<svg width="160" height="160" viewBox="0 0 160 160" fill="none" xmlns="http://www.w3.org/2000/svg">
<defs>
<linearGradient id="paint0_linear_892_1932" x1="80.003" y1="23.1548" x2="80.003" y2="175.221" gradientUnits="userSpaceOnUse">
<stop stop-color="#B6D8FC"/>
<stop offset="1" stop-color="#FCDCB6"/>
</linearGradient>
<linearGradient id="paint1_linear_892_1932" x1="79.9339" y1="8.68607" x2="79.9339" y2="37.8753" gradientUnits="userSpaceOnUse">
<stop stop-color="#B6D8FC"/>
<stop offset="1" stop-color="#FCDCB6"/>
</linearGradient>
</defs>
<path d="M144.859 85.0406H125V69.9781C125 69.0781 124.972 68.1958 124.916 67.3313C134.156 58.6188 134.994 47.1344 135 35.1438C135 32.4531 132.925 30.1438 130.234 30.0156C129.56 29.984 128.885 30.0894 128.253 30.3254C127.62 30.5615 127.041 30.9234 126.552 31.3892C126.063 31.855 125.673 32.4151 125.406 33.0357C125.14 33.6563 125.001 34.3245 125 35C125 43.75 124.419 50.0469 121.906 54.95C115.9 42.0906 101.35 34.9781 80 34.9781C67.5625 34.9781 56.8156 37.8313 48.9281 43.225C44.2718 46.4094 40.7406 50.3844 38.3968 55.0125C35.625 50.2031 35 44.0625 35 35.1438C35 32.4531 32.9375 30.1438 30.25 30.0063C29.5732 29.9724 28.8965 30.0764 28.2612 30.3121C27.6258 30.5478 27.045 30.9101 26.554 31.3772C26.0629 31.8442 25.672 32.4062 25.4049 33.029C25.1377 33.6518 25 34.3223 25 35C25 46.7594 25.8156 58.0406 35.1375 66.7594C35.0479 67.8135 35.0021 68.8865 35 69.9781V85.0406H15.1406C12.45 85.0406 10.1406 87.1094 10.0062 89.8C9.97362 90.4766 10.0788 91.1527 10.3155 91.7874C10.5521 92.4221 10.9152 93.0021 11.3828 93.4921C11.8504 93.9822 12.4127 94.3722 13.0355 94.6384C13.6584 94.9046 14.3289 95.0414 15.0062 95.0406H35.0062V100C35.0016 105.749 36.104 111.446 38.2531 116.778C30.2312 123.95 25.0562 131.875 25 144.794C25 147.525 27.0687 149.888 29.8 149.997C30.473 150.024 31.1444 149.915 31.7741 149.676C32.4038 149.437 32.9787 149.073 33.4644 148.606C33.95 148.139 34.3364 147.579 34.6003 146.96C34.8641 146.34 35.0001 145.674 35 145C35 136.356 37.8437 131.028 43.1781 125.838C49.3295 134.594 58.3929 140.878 68.75 143.569C69.4888 143.76 70.2614 143.779 71.0088 143.625C71.7561 143.471 72.4583 143.148 73.0616 142.681C73.6649 142.213 74.1532 141.614 74.4892 140.929C74.8251 140.244 74.9999 139.491 75 138.728V60.1406C75 57.45 77.0687 55.1406 79.7593 55.0063C80.4354 54.9737 81.111 55.0787 81.7453 55.315C82.3795 55.5512 82.9592 55.9138 83.4492 56.3807C83.9392 56.8476 84.3293 57.4091 84.5959 58.0313C84.8624 58.6534 84.9999 59.3232 85 60V138.728C85.0001 139.491 85.1748 140.244 85.5108 140.929C85.8468 141.614 86.3351 142.213 86.9384 142.681C87.5416 143.148 88.2438 143.471 88.9912 143.625C89.7385 143.779 90.5112 143.76 91.25 143.569C101.606 140.877 110.668 134.592 116.819 125.838C122.131 131.006 124.972 136.313 124.997 144.884C124.986 146.177 125.467 147.426 126.344 148.376C127.22 149.326 128.426 149.907 129.716 150C130.396 150.039 131.077 149.938 131.716 149.704C132.356 149.47 132.942 149.108 133.436 148.64C133.931 148.172 134.325 147.607 134.594 146.981C134.863 146.356 135.001 145.681 135 145C135 131.975 129.812 123.991 121.753 116.778C123.902 111.446 125.005 105.749 125 100V95.0406H145C145.677 95.0414 146.348 94.9046 146.971 94.6384C147.594 94.3722 148.156 93.9822 148.623 93.4921C149.091 93.0021 149.454 92.4221 149.691 91.7874C149.927 91.1527 150.033 90.4766 150 89.8C149.869 87.1094 147.55 85.0406 144.859 85.0406Z" fill="url(#paint0_linear_892_1932)"/>
<path d="M100.434 32.5L100.534 32.5281C104.775 33.7156 108.369 29.2312 106.222 25.3875C103.627 20.7259 99.8348 16.8417 95.2364 14.1366C90.6381 11.4314 85.4007 10.0033 80.0656 10H79.9344C74.5455 10.0037 69.2574 11.4608 64.6271 14.2178C59.9969 16.9748 56.1961 20.9296 53.625 25.6656C51.4875 29.5969 55.2312 34.1031 59.5125 32.8094C65.6719 30.9344 72.5719 29.9781 80 29.9781C87.5281 29.9781 94.4031 30.8281 100.434 32.5Z" fill="url(#paint1_linear_892_1932)"/>
</svg>
