<svg width="132" height="132" viewBox="0 0 132 132" fill="none" xmlns="http://www.w3.org/2000/svg">
<g clip-path="url(#clip0_3817_11637)">
<path fill-rule="evenodd" clip-rule="evenodd" d="M64.4372 63.9375H78.5628C84.3907 63.9375 88.8819 63.9375 92.4903 64.2122C96.1398 64.4899 99.0495 65.0572 101.682 66.2787C106.127 68.3415 109.835 71.6528 112.307 75.7916C113.777 78.2519 114.58 81.0272 115.131 84.5225C115.674 87.9708 115.995 92.2834 116.409 97.8609L117.523 112.841C118.161 121.42 111.106 128.562 102.379 128.562C97.903 128.562 93.6361 126.653 90.7412 123.315L89.0541 121.369C87.4646 119.536 86.823 118.807 86.1127 118.226C84.5545 116.951 82.6603 116.096 80.6264 115.759C79.6957 115.605 78.6899 115.598 76.2104 115.598H66.7897C64.3102 115.598 63.3043 115.605 62.3737 115.759C60.3398 116.096 58.4456 116.951 56.8873 118.226C56.1771 118.807 55.5356 119.536 53.946 121.369L52.2589 123.315C49.364 126.653 45.0971 128.562 40.6212 128.562C31.8946 128.562 24.8395 121.42 25.4772 112.841L26.5906 97.8614C27.0052 92.2837 27.3258 87.9709 27.8694 84.5225C28.4205 81.0272 29.2229 78.2519 30.6927 75.7916C33.1653 71.6528 36.8726 68.3415 41.3181 66.2787C43.9506 65.0572 46.8602 64.4899 50.5098 64.2122C54.1182 63.9375 58.6094 63.9375 64.4372 63.9375ZM50.8228 68.3253C47.4121 68.5849 45.0544 69.0924 43.0543 70.0205C39.3421 71.7431 36.2716 74.4963 34.2339 77.9071C33.1424 79.7341 32.4539 81.9311 31.9441 85.1648C31.43 88.4261 31.1203 92.57 30.6973 98.2612L29.5909 113.146C29.1436 119.164 34.1191 124.438 40.6212 124.438C43.9332 124.438 47.0518 123.023 49.1425 120.612L50.9581 118.518C52.3787 116.88 53.2584 115.865 54.275 115.033C56.4004 113.294 58.9656 112.142 61.6997 111.689C63.006 111.473 64.3699 111.473 66.5961 111.473H76.404C78.6302 111.473 79.994 111.473 81.3003 111.689C84.0345 112.142 86.5996 113.294 88.7251 115.033C89.7416 115.865 90.6215 116.88 92.042 118.518L93.8576 120.612C95.9482 123.023 99.0668 124.438 102.379 124.438C108.881 124.438 113.856 119.164 113.409 113.146L112.303 98.2612C111.88 92.57 111.57 88.4261 111.056 85.1648C110.546 81.9311 109.858 79.7341 108.766 77.9071C106.728 74.4963 103.658 71.7431 99.9457 70.0205C97.9457 69.0924 95.5879 68.5849 92.1772 68.3253C88.7435 68.0639 84.4086 68.0625 78.4751 68.0625H64.525C58.5914 68.0625 54.2565 68.0639 50.8228 68.3253ZM53.5121 81.2232C54.6511 81.2232 55.5746 82.1466 55.5746 83.2857V89.8661H62.506C63.6451 89.8661 64.5685 90.7895 64.5685 91.9286C64.5685 93.0677 63.6451 93.9911 62.506 93.9911H55.5746V100.571C55.5746 101.711 54.6511 102.634 53.5121 102.634C52.373 102.634 51.4496 101.711 51.4496 100.571V93.9911H44.5181C43.379 93.9911 42.4556 93.0677 42.4556 91.9286C42.4556 90.7895 43.379 89.8661 44.5181 89.8661H51.4496V83.2857C51.4496 82.1466 52.373 81.2232 53.5121 81.2232ZM96.4195 87.6071C96.4195 86.4681 97.3429 85.5446 98.482 85.5446H98.527C99.6661 85.5446 100.589 86.4681 100.589 87.6071C100.589 88.7462 99.6661 89.6696 98.527 89.6696H98.482C97.3429 89.6696 96.4195 88.7462 96.4195 87.6071ZM82.9285 96.25C82.9285 95.1109 83.8519 94.1875 84.991 94.1875H85.036C86.1751 94.1875 87.0985 95.1109 87.0985 96.25C87.0985 97.3891 86.1751 98.3125 85.036 98.3125H84.991C83.8519 98.3125 82.9285 97.3891 82.9285 96.25Z" fill="white"/>
<path fill-rule="evenodd" clip-rule="evenodd" d="M15.7472 55.5188C11.4496 63.7832 10.1332 71.6435 11.3189 77.9671C11.9266 81.2081 13.2861 84.5114 15.7472 87.5839V102.215C-6.70393 87.3006 -4.05973 59.0049 15.8618 36.1159C17.0141 34.6528 18.3167 33.1521 19.661 31.6036C24.5115 26.0159 29.9038 19.8041 30.7314 12.4794C31.1644 8.64746 30.3481 4.511 27.5514 0C30.7685 0 36.195 2.32 41.5505 6.53139C49.5265 12.8034 57.3447 23.2706 57.4721 36.5172C57.5151 40.9845 56.6833 45.7679 54.688 50.8131C59.6726 48.1835 64.2736 45.5183 68.1485 42.3498C69.6132 41.1523 70.9741 39.8828 72.2128 38.5162C75.001 35.4401 77.1702 31.872 78.5097 27.5237C81.0293 31.512 83.2127 35.5752 85.0413 39.6543C87.2273 44.5308 88.9062 49.43 90.0465 54.2508H78.6869C78.22 52.5849 77.6762 50.8981 77.0551 49.1966C74.9882 51.0644 72.7974 52.7331 70.5592 54.2508H41.4993L44.4589 46.7675C48.6527 36.1638 45.754 27.5399 40.5535 20.9557C40.4049 20.7676 40.2548 20.5817 40.1031 20.398C39.9603 20.802 39.8095 21.2033 39.651 21.6017C36.8814 28.5631 31.8045 34.4018 28.3806 38.3395L27.9678 38.8145C26.5852 40.4072 25.4631 41.7034 24.5033 42.922L24.3364 43.134L24.1592 43.3375C20.99 46.9788 18.4261 50.6474 16.4284 54.2508H15.7472V55.5188Z" fill="#FF5D5D"/>
<path d="M103.125 88C103.125 90.6579 100.97 92.8125 98.3125 92.8125C95.6546 92.8125 93.5 90.6579 93.5 88C93.5 85.3421 95.6546 83.1875 98.3125 83.1875C100.97 83.1875 103.125 85.3421 103.125 88Z" fill="white"/>
<path d="M90.0625 96.25C90.0625 98.9079 87.9079 101.062 85.25 101.062C82.5921 101.062 80.4375 98.9079 80.4375 96.25C80.4375 93.5921 82.5921 91.4375 85.25 91.4375C87.9079 91.4375 90.0625 93.5921 90.0625 96.25Z" fill="white"/>
</g>
<defs>
<clipPath id="clip0_3817_11637">
<rect width="132" height="132" fill="white"/>
</clipPath>
</defs>
</svg>
