<svg width="138" height="138" viewBox="0 0 138 138" fill="none" xmlns="http://www.w3.org/2000/svg">
<rect width="138" height="138" fill="#2A829E"/>
<path fill-rule="evenodd" clip-rule="evenodd" d="M71.0382 64.625H78.6416C81.6627 64.625 84.0943 64.625 86.0706 64.7738C88.1045 64.9269 89.8852 65.2494 91.555 66.0157C94.2272 67.2422 96.4669 69.2162 97.9651 71.6968C98.9085 73.2587 99.3827 74.9614 99.6921 76.9024C99.9911 78.7786 100.165 81.0953 100.38 83.9494L100.973 91.8516C101.394 97.4526 96.7501 102 91.1586 102C88.2807 102 85.52 100.786 83.6359 98.6371L82.7443 97.6202C81.8634 96.6154 81.639 96.3743 81.4119 96.1905C80.8382 95.7261 80.1326 95.4086 79.3662 95.283C79.0563 95.2323 78.7003 95.2232 77.3292 95.2232H72.3506C70.9795 95.2232 70.6236 95.2323 70.3137 95.283C69.5472 95.4086 68.8416 95.7261 68.2679 96.1905C68.0408 96.3743 67.8164 96.6154 66.9355 97.6202L66.0439 98.6371C64.1598 100.786 61.3991 102 58.5212 102C52.9297 102 48.2855 97.4526 48.7064 91.8516L49.3002 83.9493C49.5147 81.0952 49.6887 78.7785 49.9877 76.9024C50.2971 74.9614 50.7713 73.2587 51.7147 71.6968C53.2129 69.2162 55.4527 67.2422 58.1249 66.0157C59.7946 65.2494 61.5753 64.9269 63.6092 64.7738C65.5855 64.625 68.0171 64.625 71.0382 64.625ZM64.0504 70.5072C62.3531 70.635 61.3502 70.8743 60.5717 71.2316C58.9327 71.9838 57.5906 73.1799 56.7052 74.6457C56.295 75.3249 55.9813 76.2214 55.7301 77.7978C55.4727 79.4125 55.3141 81.4925 55.0883 84.497L54.5036 92.2778C54.3511 94.3072 56.0647 96.25 58.5212 96.25C59.759 96.25 60.9014 95.7262 61.6521 94.87L62.5436 93.853C62.5866 93.804 62.6291 93.7556 62.671 93.7076C63.3619 92.9189 63.9251 92.2758 64.5864 91.7405C65.9595 90.6291 67.6106 89.8975 69.3639 89.6103C70.2062 89.4723 71.0717 89.4727 72.1562 89.4732C72.2202 89.4732 72.285 89.4732 72.3506 89.4732H77.3292C77.3948 89.4732 77.4596 89.4732 77.5236 89.4732C78.6082 89.4727 79.4736 89.4723 80.3159 89.6103C82.0693 89.8975 83.7203 90.6291 85.0934 91.7405C85.7547 92.2757 86.318 92.9189 87.0088 93.7076C87.0508 93.7556 87.0932 93.804 87.1362 93.853L88.0278 94.87C88.7785 95.7262 89.9208 96.25 91.1586 96.25C93.6151 96.25 95.3287 94.3072 95.1762 92.2778L94.5915 84.497C94.3657 81.4925 94.2071 79.4125 93.9498 77.7978C93.6985 76.2214 93.3848 75.3249 92.9746 74.6457C92.0893 73.1799 90.7471 71.9838 89.1081 71.2316C88.3297 70.8743 87.3267 70.635 85.6294 70.5072C83.8997 70.3769 81.6895 70.375 78.5261 70.375H71.1538C67.9903 70.375 65.7801 70.3769 64.0504 70.5072ZM65.3337 73.6607C66.939 73.6607 68.2403 74.9479 68.2403 76.5357V78.1786H70.0868C71.6921 78.1786 72.9934 79.4658 72.9934 81.0536C72.9934 82.6414 71.6921 83.9286 70.0868 83.9286H68.2403V85.5714C68.2403 87.1592 66.939 88.4464 65.3337 88.4464C63.7284 88.4464 62.4271 87.1592 62.4271 85.5714V83.9286H60.5806C58.9753 83.9286 57.674 82.6414 57.674 81.0536C57.674 79.4658 58.9753 78.1786 60.5806 78.1786H62.4271V76.5357C62.4271 74.9479 63.7284 73.6607 65.3337 73.6607ZM86.1926 78.7946C86.1926 77.2068 87.4939 75.9196 89.0992 75.9196H89.123C90.7283 75.9196 92.0296 77.2068 92.0296 78.7946C92.0296 80.3825 90.7283 81.6696 89.123 81.6696H89.0992C87.4939 81.6696 86.1926 80.3825 86.1926 78.7946ZM79.063 83.3125C79.063 81.7247 80.3643 80.4375 81.9696 80.4375H81.9933C83.5986 80.4375 84.8999 81.7247 84.8999 83.3125C84.8999 84.9003 83.5986 86.1875 81.9933 86.1875H81.9696C80.3643 86.1875 79.063 84.9003 79.063 83.3125Z" fill="url(#paint0_linear_3858_11784)"/>
<path fill-rule="evenodd" clip-rule="evenodd" d="M45.376 62.0212C43.1048 66.3412 42.4091 70.45 43.0357 73.7555C43.3568 75.4497 44.0753 77.1764 45.376 78.7825V86.4305C33.5111 78.6344 34.9085 63.8435 45.4365 51.8787C46.0455 51.1139 46.7339 50.3295 47.4443 49.5201C50.0076 46.5992 52.8573 43.3521 53.2947 39.5233C53.5235 37.5203 53.0921 35.358 51.6141 33C53.3143 33 56.1821 34.2127 59.0124 36.4141C63.2274 39.6927 67.3592 45.1642 67.4265 52.0885C67.4492 54.4237 67.0097 56.9241 65.9552 59.5614C68.5895 58.1868 71.0209 56.7937 73.0688 55.1374C73.8428 54.5114 74.562 53.8478 75.2166 53.1335C76.6901 51.5255 77.8365 49.6603 78.5444 47.3874C79.8759 49.4722 81.0298 51.5961 81.9961 53.7284C83.1514 56.2775 84.0387 58.8384 84.6413 61.3584H78.638C78.3913 60.4876 78.1039 59.6058 77.7756 58.7164C76.6834 59.6927 75.5256 60.565 74.3427 61.3584H58.9853L60.5494 57.4466C62.7657 51.9038 61.2338 47.3959 58.4854 43.9541C58.4069 43.8558 58.3276 43.7586 58.2474 43.6626C58.172 43.8738 58.0923 44.0835 58.0085 44.2918C56.5449 47.9307 53.8618 50.9828 52.0524 53.0411L51.8342 53.2894C51.1035 54.122 50.5106 54.7995 50.0033 55.4365L49.9151 55.5473L49.8215 55.6537C48.1466 57.5571 46.7917 59.4748 45.7359 61.3584H45.376V62.0212Z" fill="url(#paint1_linear_3858_11784)"/>
<defs>
<linearGradient id="paint0_linear_3858_11784" x1="69" y1="29.0643" x2="69" y2="116.497" gradientUnits="userSpaceOnUse">
<stop stop-color="#B6D8FC"/>
<stop offset="1" stop-color="#FCDCB6"/>
</linearGradient>
<linearGradient id="paint1_linear_3858_11784" x1="69" y1="29.0643" x2="69" y2="116.497" gradientUnits="userSpaceOnUse">
<stop stop-color="#B6D8FC"/>
<stop offset="1" stop-color="#FCDCB6"/>
</linearGradient>
</defs>
</svg>
