<svg width="209" height="95" viewBox="0 0 209 95" fill="none" xmlns="http://www.w3.org/2000/svg">
<defs>
<linearGradient id="paint0_linear_3844_11783" x1="271.683" y1="69.967" x2="71.1829" y2="118.665" gradientUnits="userSpaceOnUse">
<stop stop-color="white"/>
<stop offset="0.61"/>
</linearGradient>
<linearGradient id="paint1_linear_3844_11783" x1="219.786" y1="36.2949" x2="18.1021" y2="77.6446" gradientUnits="userSpaceOnUse">
<stop stop-color="white"/>
<stop offset="0.53" stop-color="#DABFBE"/>
<stop offset="1" stop-color="#C69C9A"/>
</linearGradient>
<linearGradient id="paint2_linear_3844_11783" x1="272.947" y1="-4.41308" x2="255.533" y2="116.052" gradientUnits="userSpaceOnUse">
<stop stop-color="#F2D558"/>
<stop offset="0.85" stop-color="#EEC929"/>
<stop offset="0.9" stop-color="#F1D044"/>
<stop offset="1" stop-color="#F2D558"/>
</linearGradient>
<linearGradient id="paint3_linear_3844_11783" x1="152.667" y1="20.3227" x2="125.614" y2="110.109" gradientUnits="userSpaceOnUse">
<stop stop-color="#F2D558"/>
<stop offset="0.69" stop-color="#A96A68"/>
<stop offset="0.85" stop-color="#EEC929"/>
<stop offset="0.9" stop-color="#F1D044"/>
<stop offset="1" stop-color="#F2D558"/>
</linearGradient>
<linearGradient id="paint4_linear_3844_11783" x1="148.22" y1="17.273" x2="111.585" y2="129.727" gradientUnits="userSpaceOnUse">
<stop stop-color="#F2D558"/>
<stop offset="0.69" stop-color="#A96A68"/>
<stop offset="0.85" stop-color="#EEC929"/>
<stop offset="0.9" stop-color="#F1D044"/>
<stop offset="1" stop-color="#F2D558"/>
</linearGradient>
<linearGradient id="paint5_linear_3844_11783" x1="163.887" y1="6.70724" x2="129.435" y2="112.46" gradientUnits="userSpaceOnUse">
<stop stop-color="#F2D558"/>
<stop offset="0.69" stop-color="#A96A68"/>
<stop offset="0.85" stop-color="#EEC929"/>
<stop offset="0.9" stop-color="#F1D044"/>
<stop offset="1" stop-color="#F2D558"/>
</linearGradient>
<linearGradient id="paint6_linear_3844_11783" x1="42.4501" y1="26.6756" x2="109.707" y2="127.383" gradientUnits="userSpaceOnUse">
<stop stop-color="#F2D558"/>
<stop offset="0.69" stop-color="#A96A68"/>
<stop offset="0.85" stop-color="#EEC929"/>
<stop offset="0.9" stop-color="#F1D044"/>
<stop offset="1" stop-color="#F2D558"/>
</linearGradient>
<linearGradient id="paint7_linear_3844_11783" x1="33.8791" y1="27.9582" x2="111.787" y2="153.344" gradientUnits="userSpaceOnUse">
<stop stop-color="#F2D558"/>
<stop offset="0.69" stop-color="#A96A68"/>
<stop offset="0.85" stop-color="#EEC929"/>
<stop offset="0.9" stop-color="#F1D044"/>
<stop offset="1" stop-color="#F2D558"/>
</linearGradient>
<linearGradient id="paint8_linear_3844_11783" x1="12.0024" y1="21.7064" x2="84.0001" y2="138.125" gradientUnits="userSpaceOnUse">
<stop stop-color="#F2D558"/>
<stop offset="0.69" stop-color="#A96A68"/>
<stop offset="0.85" stop-color="#EEC929"/>
<stop offset="0.9" stop-color="#F1D044"/>
<stop offset="1" stop-color="#F2D558"/>
</linearGradient>
<linearGradient id="paint9_linear_3844_11783" x1="152.684" y1="20.342" x2="125.606" y2="110.146" gradientUnits="userSpaceOnUse">
<stop stop-color="#F2D558"/>
<stop offset="0.69" stop-color="#A96A68"/>
<stop offset="0.85" stop-color="#EEC929"/>
<stop offset="0.9" stop-color="#F1D044"/>
<stop offset="1" stop-color="#F2D558"/>
</linearGradient>
<linearGradient id="paint10_linear_3844_11783" x1="148.197" y1="17.2522" x2="111.532" y2="129.735" gradientUnits="userSpaceOnUse">
<stop stop-color="#F2D558"/>
<stop offset="0.69" stop-color="#A96A68"/>
<stop offset="0.85" stop-color="#EEC929"/>
<stop offset="0.9" stop-color="#F1D044"/>
<stop offset="1" stop-color="#F2D558"/>
</linearGradient>
<linearGradient id="paint11_linear_3844_11783" x1="163.862" y1="6.73023" x2="129.415" y2="112.462" gradientUnits="userSpaceOnUse">
<stop stop-color="#F2D558"/>
<stop offset="0.69" stop-color="#A96A68"/>
<stop offset="0.85" stop-color="#EEC929"/>
<stop offset="0.9" stop-color="#F1D044"/>
<stop offset="1" stop-color="#F2D558"/>
</linearGradient>
<linearGradient id="paint12_linear_3844_11783" x1="42.062" y1="26.6932" x2="109.297" y2="127.378" gradientUnits="userSpaceOnUse">
<stop stop-color="#F2D558"/>
<stop offset="0.69" stop-color="#A96A68"/>
<stop offset="0.85" stop-color="#EEC929"/>
<stop offset="0.9" stop-color="#F1D044"/>
<stop offset="1" stop-color="#F2D558"/>
</linearGradient>
<linearGradient id="paint13_linear_3844_11783" x1="33.4715" y1="27.9733" x2="111.377" y2="153.363" gradientUnits="userSpaceOnUse">
<stop stop-color="#F2D558"/>
<stop offset="0.69" stop-color="#A96A68"/>
<stop offset="0.85" stop-color="#EEC929"/>
<stop offset="0.9" stop-color="#F1D044"/>
<stop offset="1" stop-color="#F2D558"/>
</linearGradient>
<linearGradient id="paint14_linear_3844_11783" x1="11.5889" y1="21.7307" x2="83.5792" y2="138.164" gradientUnits="userSpaceOnUse">
<stop stop-color="#F2D558"/>
<stop offset="0.69" stop-color="#A96A68"/>
<stop offset="0.85" stop-color="#EEC929"/>
<stop offset="0.9" stop-color="#F1D044"/>
<stop offset="1" stop-color="#F2D558"/>
</linearGradient>
<linearGradient id="paint15_linear_3844_11783" x1="-98.4098" y1="47.8767" x2="225.194" y2="47.8767" gradientUnits="userSpaceOnUse">
<stop offset="0.22" stop-color="#F2D558"/>
<stop offset="0.88" stop-color="#FFCE66"/>
<stop offset="1" stop-color="#A66562"/>
</linearGradient>
<linearGradient id="paint16_linear_3844_11783" x1="-97.8853" y1="47.884" x2="225.653" y2="47.884" gradientUnits="userSpaceOnUse">
<stop offset="0.04" stop-color="#B57D7C"/>
<stop offset="0.41" stop-color="#F2D558"/>
<stop offset="0.63" stop-color="#F2D558"/>
<stop offset="1" stop-color="#9F5856"/>
</linearGradient>
<linearGradient id="paint17_linear_3844_11783" x1="-31.487" y1="51.8524" x2="177.378" y2="51.8524" gradientUnits="userSpaceOnUse">
<stop stop-color="white"/>
<stop offset="0.61"/>
</linearGradient>
<linearGradient id="paint18_linear_3844_11783" x1="-11.8281" y1="47.4317" x2="197.12" y2="47.4317" gradientUnits="userSpaceOnUse">
<stop stop-color="white"/>
<stop offset="0.61" stop-color="#DABFBE"/>
</linearGradient>
<linearGradient id="paint19_linear_3844_11783" x1="0" y1="47.8865" x2="209" y2="47.8865" gradientUnits="userSpaceOnUse">
<stop offset="0.01" stop-color="#F2D351"/>
<stop offset="0.6" stop-color="#FFD375"/>
<stop offset="1" stop-color="#994E4B"/>
</linearGradient>
<linearGradient id="paint20_linear_3844_11783" x1="-314.679" y1="47.8807" x2="209" y2="47.8807" gradientUnits="userSpaceOnUse">
<stop offset="0.22" stop-color="#F2D558"/>
<stop offset="0.88" stop-color="#FFCE66"/>
<stop offset="1" stop-color="#A66562"/>
</linearGradient>
<linearGradient id="paint21_linear_3844_11783" x1="0.165972" y1="47.8845" x2="238.377" y2="47.8845" gradientUnits="userSpaceOnUse">
<stop stop-color="#F2D558"/>
<stop offset="0.88" stop-color="#FFCE66"/>
<stop offset="1" stop-color="#A66562"/>
</linearGradient>
<linearGradient id="paint22_linear_3844_11783" x1="-7.4563" y1="47.9746" x2="252.769" y2="47.9746" gradientUnits="userSpaceOnUse">
<stop offset="0.22" stop-color="#F2D558"/>
<stop offset="0.88" stop-color="#FFCE66"/>
<stop offset="1" stop-color="#A66562"/>
</linearGradient>
<linearGradient id="paint23_linear_3844_11783" x1="-417.979" y1="47.9746" x2="233.595" y2="47.9746" gradientUnits="userSpaceOnUse">
<stop offset="0.22" stop-color="#F2D558"/>
<stop offset="0.88" stop-color="#FFCE66"/>
<stop offset="1" stop-color="#A66562"/>
</linearGradient>
<linearGradient id="paint24_linear_3844_11783" x1="-0.240756" y1="47.8751" x2="208.784" y2="47.8751" gradientUnits="userSpaceOnUse">
<stop offset="0.01" stop-color="#F4DA6D"/>
<stop offset="0.18" stop-color="#F2D558"/>
<stop offset="0.58" stop-color="#FFCE66"/>
<stop offset="1" stop-color="#A66562"/>
</linearGradient>
<linearGradient id="paint25_linear_3844_11783" x1="-98.3528" y1="47.8878" x2="225.046" y2="47.8878" gradientUnits="userSpaceOnUse">
<stop offset="0.12" stop-color="#B57D7C"/>
<stop offset="0.41" stop-color="#F2D558"/>
<stop offset="0.63" stop-color="#F2D558"/>
<stop offset="1" stop-color="#A66562"/>
</linearGradient>
<linearGradient id="paint26_linear_3844_11783" x1="125.628" y1="23.7431" x2="139.625" y2="23.7431" gradientUnits="userSpaceOnUse">
<stop offset="0.22" stop-color="#F2D558"/>
<stop offset="0.58" stop-color="#FFCE66"/>
<stop offset="1" stop-color="#A66562"/>
</linearGradient>
</defs>
<path d="M12.093 56.9535C12.093 60.2929 9.38591 63 6.04651 63C2.70712 63 0 60.2929 0 56.9535C0 53.6141 2.70712 50.907 6.04651 50.907C9.38591 50.907 12.093 53.6141 12.093 56.9535Z" fill="#D9D9D9"/>
<path d="M33.2558 56.9535C33.2558 60.2929 30.2103 63 26.4535 63C22.6967 63 19.6512 60.2929 19.6512 56.9535C19.6512 53.6141 22.6967 50.907 26.4535 50.907C30.2103 50.907 33.2558 53.6141 33.2558 56.9535Z" fill="#D9D9D9"/>
<path d="M52.907 56.9535C52.907 60.2929 50.1999 63 46.8605 63C43.5211 63 40.814 60.2929 40.814 56.9535C40.814 53.6141 43.5211 50.907 46.8605 50.907C50.1999 50.907 52.907 53.6141 52.907 56.9535Z" fill="#D9D9D9"/>
<path d="M74.0698 56.9535C74.0698 60.2929 71.0243 63 67.2674 63C63.5106 63 60.4651 60.2929 60.4651 56.9535C60.4651 53.6141 63.5106 50.907 67.2674 50.907C71.0243 50.907 74.0698 53.6141 74.0698 56.9535Z" fill="#D9D9D9"/>
<path d="M93.7209 56.9535C93.7209 60.2929 91.0138 63 87.6744 63C84.335 63 81.6279 60.2929 81.6279 56.9535C81.6279 53.6141 84.335 50.907 87.6744 50.907C91.0138 50.907 93.7209 53.6141 93.7209 56.9535Z" fill="#D9D9D9"/>
<path fill-rule="evenodd" clip-rule="evenodd" d="M41.1366 9.90406C41.1366 4.96882 45.1374 0.968018 50.0727 0.968018C55.0079 0.968018 59.0087 4.96882 59.0087 9.90406C59.0087 14.8393 55.0079 18.8401 50.0727 18.8401C49.666 18.8401 49.2652 18.8129 48.872 18.76C48.5769 18.7204 48.3836 18.6945 48.2404 18.6807C48.1415 18.6712 48.0992 18.6711 48.0908 18.671C48.0644 18.675 48.0507 18.6779 48.045 18.6792C48.0392 18.6818 48.0245 18.6888 47.9965 18.7044C47.9907 18.7085 47.9676 18.7257 47.919 18.7699C47.8414 18.8406 47.7422 18.9395 47.5778 19.1039L45.4891 21.1926C45.3015 21.3801 45.0472 21.4855 44.782 21.4855H43.1366V23.1308C43.1366 23.6831 42.6889 24.1308 42.1366 24.1308H40.4913V25.7762C40.4913 26.3284 40.0436 26.7762 39.4913 26.7762H36.282C35.9416 26.7762 35.6285 26.7762 35.3667 26.7548C35.0843 26.7317 34.7747 26.6789 34.4688 26.523C34.0317 26.3003 33.6764 25.945 33.4537 25.508C33.2979 25.202 33.245 24.8924 33.2219 24.61C33.2005 24.3482 33.2006 24.0351 33.2006 23.6948V21.3621C33.2006 21.3409 33.2005 21.3197 33.2005 21.2983C33.2001 21.0401 33.1996 20.7627 33.2648 20.4911C33.3217 20.2541 33.4155 20.0275 33.5429 19.8197C33.6888 19.5816 33.8853 19.3858 34.0682 19.2035C34.0833 19.1884 34.0984 19.1734 34.1133 19.1585L40.8729 12.399C41.0373 12.2346 41.1361 12.1353 41.2068 12.0577C41.2511 12.0091 41.2683 11.986 41.2724 11.9803C41.2879 11.9522 41.2949 11.9376 41.2976 11.9317C41.2989 11.9261 41.3018 11.9124 41.3058 11.8859C41.3056 11.8775 41.3056 11.8352 41.296 11.7363C41.2822 11.5931 41.2564 11.3998 41.2167 11.1048C41.1639 10.7116 41.1366 10.3107 41.1366 9.90406ZM41.2989 11.9287L41.2983 11.9301ZM50.0727 2.96802C46.242 2.96802 43.1366 6.07339 43.1366 9.90406C43.1366 10.2214 43.1579 10.5332 43.1989 10.8383L43.2014 10.8571C43.2379 11.1281 43.2689 11.3591 43.2868 11.5441C43.3041 11.7236 43.3184 11.9405 43.2875 12.1561C43.2431 12.467 43.1689 12.6863 43.0157 12.9605C42.8556 13.247 42.5995 13.502 42.3533 13.7472C42.3311 13.7693 42.309 13.7913 42.2871 13.8132L35.5275 20.5727C35.407 20.6933 35.34 20.7606 35.2915 20.8137C35.2621 20.846 35.2509 20.8608 35.248 20.8649C35.2304 20.8937 35.2174 20.925 35.2095 20.9578L35.2098 20.9563M35.2095 20.9578C35.2087 20.9627 35.2061 20.9811 35.2041 21.0247C35.2008 21.0966 35.2006 21.1916 35.2006 21.3621V23.6599C35.2006 24.0468 35.2014 24.2768 35.2153 24.4472C35.2236 24.5489 35.2345 24.5925 35.2381 24.6046C35.2684 24.6617 35.3151 24.7084 35.3722 24.7386C35.3843 24.7423 35.4278 24.7531 35.5296 24.7615C35.7 24.7754 35.93 24.7762 36.3169 24.7762H38.4913V23.1308C38.4913 22.5785 38.939 22.1308 39.4913 22.1308H41.1366V20.4855C41.1366 19.9332 41.5843 19.4855 42.1366 19.4855H44.3678L46.1636 17.6897C46.1855 17.6677 46.2075 17.6456 46.2296 17.6235C46.4747 17.3773 46.7297 17.1212 47.0163 16.961C47.2904 16.8078 47.5098 16.7337 47.8206 16.6892C48.0362 16.6584 48.2531 16.6726 48.4326 16.69C48.6177 16.7078 48.8486 16.7389 49.1196 16.7753L49.1385 16.7779C49.4436 16.8189 49.7554 16.8401 50.0727 16.8401C53.9034 16.8401 57.0087 13.7347 57.0087 9.90406C57.0087 6.07339 53.9034 2.96802 50.0727 2.96802M35.2394 24.6083L35.2387 24.6063ZM49.0727 7.25871C49.0727 6.70643 49.5204 6.25871 50.0727 6.25871C51.0041 6.25871 51.9387 6.61481 52.6503 7.32641C53.3619 8.03799 53.718 8.97262 53.718 9.90396C53.718 10.4562 53.2703 10.904 52.7181 10.904C52.1658 10.904 51.718 10.4563 51.718 9.90402C51.718 9.4814 51.5576 9.06208 51.2361 8.74063C50.9146 8.41916 50.4953 8.25871 50.0727 8.25871C49.5204 8.25871 49.0727 7.811 49.0727 7.25871Z" fill="white"/>
<path d="M205.908 20.829C205.995 20.829 204.799 18.025 204.799 18.025C204.799 18.025 203.952 21.1223 204.144 21.2597C204.336 21.3972 205.908 20.829 205.908 20.829Z" fill="#333333"/>
<path d="M208.478 27.8207C209.216 29.6762 202.018 30.1527 202.321 28.2284C202.586 26.4966 204.153 20.6274 204.153 20.6274L205.821 20.5175C205.821 20.5175 207.741 25.9651 208.478 27.8207Z" fill="#333333"/>
<path d="M208.533 28.0268C208.533 28.0268 208.804 36.5167 208.932 40.5623C209.06 44.6079 202.976 40.4065 202.976 40.4065L202.293 28.3705C202.293 28.3705 204.914 29.5159 208.533 28.0268Z" fill="#333333"/>
<path d="M172.723 51.256C173.328 50.3928 173.847 49.472 174.272 48.507C174.065 48.8781 173.841 49.2446 173.593 49.602C169.47 55.5032 161.182 56.8273 155.038 52.5572C148.894 48.287 147.249 40.04 151.336 34.1342C152.737 32.1212 154.696 30.5608 156.971 29.6442L156.316 25.9788C153.692 26.4768 151.231 27.6128 149.149 29.2865C147.068 30.9603 145.431 33.1205 144.381 35.5765C143.332 38.0326 142.903 40.7091 143.133 43.3701C143.362 46.0311 144.242 48.5947 145.697 50.835C147.151 53.0753 149.134 54.9234 151.471 56.2163C153.808 57.5092 156.427 58.2072 159.098 58.2488C161.768 58.2904 164.408 57.6743 166.784 56.4548C169.16 55.2353 171.2 53.4499 172.723 51.256Z" fill="#333333"/>
<path d="M155.038 52.5572C161.182 56.8273 169.488 55.5032 173.593 49.602C173.841 49.2446 174.052 48.8781 174.272 48.507C175.544 45.6001 175.936 42.3839 175.399 39.2565L169.058 40.3974C169.34 42.3441 169.043 44.3309 168.204 46.11C167.365 47.8891 166.02 49.3815 164.338 50.4012C162.655 51.4209 160.71 51.9227 158.745 51.8438C156.779 51.765 154.88 51.1091 153.285 49.958C151.69 48.8069 150.469 47.2115 149.775 45.3709C149.081 43.5304 148.944 41.5261 149.381 39.6083C149.819 37.6905 150.812 35.9439 152.236 34.5867C153.659 33.2294 155.451 32.3215 157.388 31.9763L156.967 29.6442C154.691 30.5608 152.733 32.1212 151.331 34.1342C147.235 40.04 148.894 48.287 155.038 52.5572Z" fill="#333333"/>
<path d="M155.038 52.5572C161.182 56.8273 169.488 55.5032 173.593 49.602C173.841 49.2446 174.052 48.8781 174.272 48.507C175.544 45.6001 175.936 42.3839 175.399 39.2565L169.058 40.3974C169.34 42.3441 169.043 44.3309 168.204 46.11C167.365 47.8891 166.02 49.3815 164.338 50.4012C162.655 51.4209 160.71 51.9227 158.745 51.8438C156.779 51.765 154.88 51.1091 153.285 49.958C151.69 48.8069 150.469 47.2115 149.775 45.3709C149.081 43.5304 148.944 41.5261 149.381 39.6083C149.819 37.6905 150.812 35.9439 152.236 34.5867C153.659 33.2294 155.451 32.3215 157.388 31.9763L156.967 29.6442C154.691 30.5608 152.733 32.1212 151.331 34.1342C147.235 40.04 148.894 48.287 155.038 52.5572Z" fill="#333333"/>
<path d="M167.371 28.3705C166.508 27.7661 165.587 27.2474 164.622 26.8219C164.994 27.028 165.36 27.2525 165.718 27.5C171.619 31.6235 172.943 39.9117 168.673 46.0557C164.403 52.1998 156.156 53.8446 150.25 49.7577C148.237 48.356 146.676 46.3975 145.76 44.1223L142.094 44.7775C142.593 47.4009 143.729 49.8615 145.403 51.9422C147.077 54.0229 149.237 55.6599 151.692 56.7088C154.148 57.7578 156.824 58.1865 159.485 57.9572C162.145 57.7279 164.709 56.8476 166.949 55.3939C169.189 53.9401 171.037 51.9577 172.33 49.6212C173.623 47.2848 174.321 44.6661 174.364 41.996C174.406 39.326 173.791 36.6865 172.572 34.3104C171.353 31.9342 169.569 29.8943 167.376 28.3705H167.371Z" fill="#333333"/>
<path d="M168.654 46.0557C172.924 39.9117 171.6 31.6051 165.699 27.5C165.342 27.2525 164.975 27.0418 164.604 26.8219C161.64 25.5207 158.007 25.3374 154.937 25.8597L156.495 32.0358C158.112 31.7994 159.762 31.9621 161.302 32.5097C162.841 33.0572 164.224 33.9731 165.328 35.1774C166.433 36.3817 167.226 37.8379 167.639 39.419C168.052 41.0002 168.072 42.6584 167.697 44.249C167.322 45.8396 166.564 47.3144 165.489 48.5448C164.413 49.7752 163.053 50.724 161.527 51.3083C160.001 51.8926 158.355 52.0948 156.733 51.8972C155.11 51.6996 153.561 51.1082 152.22 50.1747C150.002 48.6698 148.467 46.3523 147.945 43.7237L145.728 44.1223C146.654 46.3955 148.218 48.3525 150.231 49.7577C156.156 53.8583 164.403 52.2044 168.654 46.0557Z" fill="#333333"/>
<path d="M168.187 45.8679C172.457 39.7239 171.133 31.4127 165.232 27.3121C164.875 27.0647 164.508 26.8539 164.137 26.634C161.23 25.3605 158.014 24.967 154.886 25.5023L155.853 31.8755C158.417 31.4943 161.032 32.0841 163.184 33.5294C164.539 34.4695 165.641 35.7295 166.392 37.1977C167.143 38.6658 167.521 40.2967 167.491 41.9456C167.46 43.5945 167.024 45.2105 166.219 46.6502C165.415 48.0899 164.267 49.3087 162.879 50.1986C161.49 51.0884 159.904 51.6218 158.26 51.7514C156.615 51.881 154.965 51.6028 153.454 50.9415C151.943 50.2801 150.619 49.2561 149.599 47.9602C148.579 46.6644 147.894 45.1368 147.606 43.5129L145.269 43.9344C146.186 46.2108 147.749 48.1696 149.764 49.5699C155.665 53.6705 163.912 52.0119 168.187 45.8679Z" fill="#333333"/>
<path d="M206.096 51.256C206.699 50.3917 207.218 49.4711 207.644 48.507C207.438 48.8781 207.214 49.2446 206.966 49.602C202.843 55.5032 194.555 56.8273 188.411 52.5572C182.267 48.287 180.622 40.04 184.709 34.1342C186.109 32.1203 188.068 30.5597 190.344 29.6442L189.684 25.9788C187.061 26.4776 184.6 27.6142 182.52 29.2884C180.439 30.9626 178.802 33.1229 177.754 35.579C176.705 38.035 176.277 40.7113 176.506 43.372C176.736 46.0326 177.617 48.5959 179.071 50.8357C180.526 53.0756 182.509 54.9233 184.845 56.2159C187.182 57.5085 189.801 58.2063 192.472 58.2478C195.142 58.2893 197.781 57.6733 200.157 56.454C202.533 55.2347 204.573 53.4495 206.096 51.256Z" fill="#333333"/>
<path d="M188.401 52.5571C194.545 56.8273 202.852 55.5032 206.957 49.602C207.205 49.2446 207.415 48.8781 207.635 48.5069C208.909 45.6005 209.303 42.3843 208.767 39.2565L202.431 40.3974C202.713 42.3443 202.416 44.3314 201.577 46.1107C200.738 47.8899 199.393 49.3826 197.71 50.4023C196.028 51.422 194.082 51.9236 192.116 51.8446C190.151 51.7655 188.252 51.1092 186.657 49.9577C185.061 48.8061 183.841 47.2103 183.147 45.3694C182.453 43.5284 182.317 41.5239 182.755 39.606C183.193 37.6881 184.187 35.9417 185.611 34.5848C187.036 33.2279 188.829 32.3207 190.766 31.9763L190.344 29.6442C188.068 30.5597 186.109 32.1203 184.709 34.1342C180.599 40.04 182.271 48.287 188.401 52.5571Z" fill="#333333"/>
<path d="M188.401 52.5571C194.545 56.8273 202.852 55.5032 206.957 49.602C207.205 49.2446 207.415 48.8781 207.635 48.5069C208.818 45.7954 209.236 42.8119 208.845 39.8796C208.817 39.6689 208.785 39.4627 208.753 39.2565L202.431 40.3974C202.713 42.3443 202.416 44.3314 201.577 46.1107C200.738 47.8899 199.393 49.3826 197.71 50.4023C196.028 51.422 194.082 51.9236 192.116 51.8446C190.151 51.7655 188.252 51.1092 186.657 49.9577C185.061 48.8061 183.841 47.2103 183.147 45.3694C182.453 43.5284 182.317 41.5239 182.755 39.606C183.193 37.6881 184.187 35.9417 185.611 34.5848C187.036 33.2279 188.829 32.3207 190.766 31.9763L190.344 29.6442C188.068 30.5597 186.109 32.1203 184.709 34.1342C180.599 40.04 182.271 48.287 188.401 52.5571Z" fill="#333333"/>
<path d="M200.735 28.3705C199.871 27.7661 198.951 27.2474 197.986 26.8219C198.357 27.028 198.724 27.2525 199.081 27.5C204.983 31.6235 206.307 39.9117 202.036 46.0557C197.766 52.1998 189.515 53.8446 183.614 49.7577C181.598 48.3574 180.036 46.3987 179.119 44.1223L175.454 44.7775C175.952 47.4009 177.088 49.8615 178.762 51.9422C180.436 54.0229 182.596 55.6599 185.052 56.7088C187.507 57.7578 190.184 58.1865 192.844 57.9572C195.505 57.7279 198.068 56.8476 200.308 55.3939C202.548 53.9401 204.396 51.9577 205.689 49.6212C206.982 47.2848 207.681 44.6661 207.723 41.996C207.765 39.326 207.15 36.6865 205.931 34.3104C204.713 31.9342 202.928 29.8943 200.735 28.3705Z" fill="#333333"/>
<path d="M202.018 46.0557C206.288 39.9117 204.964 31.6051 199.063 27.5C198.706 27.2525 198.339 27.0418 197.968 26.8219C195.004 25.5207 191.37 25.3374 188.301 25.8597L189.858 32.0358C191.474 31.8015 193.122 31.9657 194.66 32.514C196.197 33.0624 197.578 33.9782 198.681 35.1819C199.783 36.3856 200.575 37.8405 200.987 39.4202C201.399 40.9998 201.419 42.6561 201.044 44.2451C200.67 45.834 199.913 47.3073 198.839 48.5368C197.765 49.7662 196.406 50.7145 194.882 51.299C193.358 51.8836 191.714 52.0868 190.093 51.8908C188.473 51.6948 186.925 51.1057 185.584 50.1747C183.366 48.6698 181.831 46.3523 181.309 43.7237L179.091 44.1223C180.015 46.3974 181.58 48.3552 183.595 49.7577C189.496 53.8583 197.743 52.2044 202.018 46.0557Z" fill="#333333"/>
<path d="M201.546 45.8679C205.816 39.7239 204.497 31.4127 198.591 27.3121C198.239 27.0662 197.873 26.8398 197.496 26.634C194.584 25.3564 191.361 24.9628 188.227 25.5023L189.194 31.8755C191.758 31.4938 194.373 32.0837 196.525 33.5294C197.877 34.47 198.977 35.7298 199.726 37.1971C200.476 38.6643 200.851 40.2938 200.82 41.941C200.789 43.5882 200.352 45.2023 199.548 46.6403C198.744 48.0783 197.598 49.2957 196.211 50.1847C194.824 51.0736 193.239 51.6067 191.596 51.7366C189.954 51.8665 188.305 51.5892 186.795 50.9294C185.286 50.2696 183.962 49.2475 182.942 47.9538C181.922 46.6601 181.237 45.1348 180.947 43.5129L178.61 43.9344C179.527 46.2108 181.09 48.1696 183.105 49.5699C189.029 53.6705 197.276 52.0119 201.546 45.8679Z" fill="#333333"/>
<path d="M124.945 69.5368V83.8592C124.945 83.8592 128.363 86.063 131.868 83.8592V69.5277" fill="#333333"/>
<path d="M124.945 83.0803C124.945 83.0803 125.229 77.2203 132.436 73.5504L132.189 71.2871C132.134 71.3558 124.244 72.2492 124.945 83.0803Z" fill="#333333"/>
<path d="M127.378 91.6068C127.277 91.6068 128.404 94.7636 128.404 94.7636C128.404 94.7636 129.545 91.4144 129.321 91.2494C129.096 91.0845 127.378 91.6068 127.378 91.6068Z" fill="#333333"/>
<path d="M125 83.7446C124.317 81.6554 132.267 81.6096 131.809 83.708C131.392 85.5956 129.289 91.955 129.289 91.955H127.456C127.456 91.955 125.701 85.8339 125 83.7446Z" fill="#333333"/>
<path d="M117.862 45.7579C117.862 45.7579 127.062 48.7223 117.862 53.304C117.862 53.304 135.914 52.8 139.272 56.6486C142.882 60.7721 143.991 51.8103 143.991 51.8103" fill="#333333"/>
<path d="M140.738 55.7872C142.997 57.3404 142.96 58.8066 143.51 62.536C144.604 61.0379 145.196 59.2321 145.201 57.3771C145.201 52.9099 143.368 49.1667 140.944 48.1496C143.785 49.6615 144.509 52.0486 140.738 55.7872Z" fill="#333333"/>
<path d="M139.607 47.8747C140.066 47.8765 140.521 47.9699 140.944 48.1496C134.622 44.7637 117.862 45.7579 117.862 45.7579C119.429 49.3912 118.004 53.2765 118.004 53.2765C122.269 54.0141 129.916 53.7346 134.31 54.3028C135.08 50.5641 137.151 47.8747 139.607 47.8747Z" fill="#333333"/>
<path d="M140.944 48.1496C140.521 47.9699 140.066 47.8765 139.607 47.8747C137.151 47.8747 135.062 50.5641 134.31 54.289C136.504 54.5018 138.66 55.0009 140.724 55.7735C144.509 52.0486 143.785 49.6615 140.944 48.1496Z" fill="#333333"/>
<path d="M140.944 48.1496C140.521 47.9699 140.066 47.8765 139.607 47.8747C137.151 47.8747 135.062 50.5641 134.31 54.289C136.504 54.5018 138.66 55.0009 140.724 55.7735C144.509 52.0486 143.785 49.6615 140.944 48.1496Z" fill="#333333"/>
<path d="M124.899 68.254V78.9476C124.899 78.8148 129.334 73.697 134.09 70.2837C141.549 64.9368 149.966 59.2418 140.738 55.7872C140.738 55.7872 132.253 58.7837 124.899 68.254Z" fill="#333333"/>
<path d="M145.192 32.0129C145.192 32.0129 145.274 22.5334 145.192 22.6205C145.109 22.7075 121.431 29.2639 118.435 33.8456V41.5565C118.521 42.2268 118.846 42.8433 119.351 43.293C119.351 43.293 115.965 41.1167 125.577 38.6518C135.675 36.0769 139.464 35.0231 145.192 32.0129Z" fill="#333333"/>
<path d="M140.926 23.9904V21.191C139.29 24.3936 134.677 25.5344 129.124 27.8894C128.349 28.2193 127.607 28.5537 126.911 28.879C131.621 26.9731 137.183 25.1404 140.926 23.9904Z" fill="#333333"/>
<path d="M204.607 19.5324C204.694 19.5324 203.503 16.7284 203.503 16.7284C203.503 16.7284 202.655 19.8256 202.847 19.9631C203.04 20.1005 204.607 19.5324 204.607 19.5324Z" fill="url(#paint0_linear_3844_11783)"/>
<path d="M207.182 26.5149C207.919 28.3476 200.722 28.8515 201.019 26.9272C201.29 25.1954 202.852 19.3262 202.852 19.3262L204.52 19.2163C204.52 19.2163 206.444 24.6822 207.182 26.5149Z" fill="url(#paint1_linear_3844_11783)"/>
<path d="M207.232 26.7256C207.232 26.7256 207.507 35.2155 207.635 39.2611C207.764 43.3067 201.679 39.1099 201.679 39.1099L201.01 27.0739C201.01 27.0739 203.617 28.2193 207.232 26.7256Z" fill="url(#paint2_linear_3844_11783)"/>
<path d="M171.426 49.9777C172.029 49.1128 172.548 48.1923 172.975 47.2287C172.769 47.5998 172.517 47.9663 172.292 48.3237C168.192 54.2249 159.885 55.549 153.736 51.2743C147.588 46.9996 145.948 38.7571 150.039 32.8559C151.442 30.831 153.41 29.2632 155.697 28.3476L155.038 24.6822C152.413 25.1806 149.952 26.317 147.87 27.9912C145.788 29.6655 144.151 31.8262 143.101 34.2828C142.052 36.7394 141.623 39.4165 141.852 42.078C142.081 44.7396 142.962 47.3038 144.417 49.5446C145.871 51.7854 147.854 53.6339 150.192 54.9273C152.529 56.2206 155.149 56.9191 157.82 56.9609C160.491 57.0028 163.131 56.3869 165.508 55.1675C167.885 53.9481 169.925 52.1626 171.449 49.9685L171.426 49.9777Z" fill="url(#paint3_linear_3844_11783)"/>
<path d="M153.736 51.256C159.885 55.5307 168.192 54.2066 172.292 48.3054C172.54 47.948 172.75 47.5814 172.975 47.2103C174.244 44.3011 174.638 41.0847 174.107 37.9553L167.761 39.1008C168.044 41.0475 167.747 43.0343 166.907 44.8134C166.068 46.5924 164.723 48.0849 163.041 49.1046C161.359 50.1243 159.414 50.626 157.448 50.5472C155.482 50.4684 153.584 49.8125 151.988 48.6614C150.393 47.5102 149.172 45.9149 148.478 44.0743C147.784 42.2338 147.647 40.2295 148.085 38.3117C148.522 36.3938 149.515 34.6473 150.939 33.2901C152.363 31.9328 154.155 31.0249 156.091 30.6796L155.697 28.3476C153.42 29.2634 151.461 30.8258 150.062 32.8422C145.934 38.7388 147.592 46.9858 153.736 51.256Z" fill="url(#paint4_linear_3844_11783)"/>
<path d="M153.736 51.256C159.885 55.5307 168.192 54.2066 172.292 48.3054C172.54 47.948 172.75 47.5814 172.975 47.2103C174.244 44.3011 174.638 41.0847 174.107 37.9553L167.761 39.1008C168.044 41.0475 167.747 43.0343 166.907 44.8134C166.068 46.5924 164.723 48.0849 163.041 49.1046C161.359 50.1243 159.414 50.626 157.448 50.5472C155.482 50.4684 153.584 49.8125 151.988 48.6614C150.393 47.5102 149.172 45.9149 148.478 44.0743C147.784 42.2338 147.647 40.2295 148.085 38.3117C148.522 36.3938 149.515 34.6473 150.939 33.2901C152.363 31.9328 154.155 31.0249 156.091 30.6796L155.697 28.3476C153.42 29.2634 151.461 30.8258 150.062 32.8422C145.934 38.7388 147.592 46.9858 153.736 51.256Z" fill="url(#paint5_linear_3844_11783)"/>
<path d="M166.075 27.0739C165.203 26.4677 164.275 25.9475 163.303 25.5207C163.682 25.7279 164.049 25.9558 164.403 26.2033C170.308 30.3268 171.628 38.6105 167.358 44.7591C163.088 50.9078 154.841 52.548 148.939 48.4565C146.923 47.0572 145.361 45.0982 144.445 42.8211L140.779 43.4808C141.278 46.1038 142.415 48.5637 144.089 50.6438C145.763 52.7239 147.922 54.3604 150.378 55.409C152.833 56.4576 155.509 56.8862 158.169 56.6569C160.829 56.4276 163.392 55.5476 165.632 54.0943C167.872 52.641 169.72 50.6591 171.013 48.3232C172.306 45.9874 173.005 43.3693 173.048 40.6996C173.091 38.03 172.476 35.3908 171.259 33.0147C170.041 30.6385 168.258 28.5983 166.066 27.0739H166.075Z" fill="url(#paint6_linear_3844_11783)"/>
<path d="M167.353 44.7591C171.623 38.6105 170.304 30.3039 164.398 26.2033C164.046 25.956 163.68 25.7281 163.303 25.5207C160.343 24.2241 156.705 24.0408 153.64 24.5585L155.198 30.7346C156.814 30.5003 158.462 30.6645 159.999 31.2128C161.537 31.7612 162.917 32.677 164.02 33.8807C165.123 35.0844 165.915 36.5393 166.327 38.119C166.739 39.6986 166.758 41.3549 166.384 42.9439C166.009 44.5328 165.252 46.0061 164.178 47.2356C163.104 48.465 161.746 49.4133 160.222 49.9979C158.698 50.5824 157.054 50.7856 155.433 50.5896C153.812 50.3936 152.264 49.8045 150.923 48.8735C148.704 47.3729 147.167 45.0557 146.649 42.4271L144.431 42.8257C145.355 45.0995 146.919 47.0559 148.935 48.4566C154.836 52.5617 163.083 50.9032 167.353 44.7591Z" fill="url(#paint7_linear_3844_11783)"/>
<path d="M166.886 44.5667C171.156 38.4227 169.836 30.1161 163.931 26.0155C163.579 25.7675 163.213 25.5396 162.836 25.3328C159.926 24.0689 156.711 23.6835 153.585 24.2241L154.552 30.6017C157.116 30.2201 159.731 30.81 161.883 32.2557C163.236 33.1963 164.336 34.4562 165.085 35.9237C165.834 37.3912 166.21 39.0209 166.179 40.6684C166.148 42.3159 165.711 43.9302 164.907 45.3684C164.102 46.8065 162.955 48.0239 161.568 48.9127C160.18 49.8016 158.595 50.3343 156.952 50.4638C155.31 50.5932 153.66 50.3154 152.151 49.6549C150.641 48.9944 149.318 47.9716 148.298 46.6772C147.278 45.3829 146.594 43.8569 146.305 42.2346L143.968 42.6561C144.884 44.9332 146.447 46.8923 148.463 48.2916C154.369 52.3693 162.616 50.7153 166.886 44.5667Z" fill="url(#paint8_linear_3844_11783)"/>
<path d="M204.785 49.9777C205.39 49.1129 205.91 48.1924 206.339 47.2287C206.133 47.5998 205.903 47.9663 205.656 48.3237C201.555 54.2249 193.249 55.549 187.1 51.2743C180.952 46.9996 179.311 38.7571 183.398 32.8559C184.797 30.8354 186.755 29.2682 189.034 28.3476L188.379 24.6822C185.756 25.1812 183.296 26.3178 181.216 27.9916C179.135 29.6655 177.499 31.8253 176.45 34.2807C175.402 36.7362 174.973 39.4118 175.202 42.0719C175.432 44.7321 176.312 47.2949 177.765 49.5347C179.218 51.7745 181.2 53.6225 183.536 54.9157C185.872 56.209 188.49 56.9078 191.16 56.9507C193.829 56.9935 196.469 56.3791 198.845 55.1615C201.221 53.9439 203.261 52.1605 204.785 49.9685V49.9777Z" fill="url(#paint9_linear_3844_11783)"/>
<path d="M187.1 51.256C193.249 55.5307 201.555 54.2066 205.656 48.3054C205.903 47.948 206.114 47.5814 206.339 47.2103C207.608 44.3058 208.001 41.094 207.47 37.9691L201.129 39.1145C201.412 41.0612 201.115 43.0481 200.276 44.8271C199.436 46.6062 198.092 48.0987 196.409 49.1184C194.727 50.138 192.782 50.6398 190.816 50.561C188.851 50.4821 186.952 49.8262 185.357 48.6751C183.762 47.524 182.541 45.9286 181.847 44.0881C181.152 42.2475 181.015 40.2433 181.453 38.3254C181.891 36.4076 182.883 34.6611 184.307 33.3038C185.731 31.9465 187.523 31.0386 189.46 30.6934L189.038 28.3567C186.762 29.2737 184.803 30.8359 183.403 32.8514C179.298 38.7388 180.956 46.9858 187.1 51.256Z" fill="url(#paint10_linear_3844_11783)"/>
<path d="M187.1 51.256C193.249 55.5307 201.555 54.2066 205.656 48.3054C205.903 47.948 206.114 47.5814 206.339 47.2103C207.524 44.4978 207.947 41.5135 207.562 38.5785C207.534 38.3723 207.502 38.1661 207.466 37.9553L201.125 39.1008C201.407 41.0475 201.11 43.0343 200.271 44.8134C199.432 46.5924 198.087 48.0849 196.405 49.1046C194.723 50.1243 192.777 50.626 190.812 50.5472C188.846 50.4684 186.947 49.8125 185.352 48.6614C183.757 47.5102 182.536 45.9149 181.842 44.0743C181.148 42.2338 181.011 40.2295 181.449 38.3117C181.886 36.3938 182.879 34.6473 184.303 33.2901C185.727 31.9328 187.519 31.0249 189.455 30.6796L189.034 28.343C186.757 29.2599 184.799 30.8222 183.398 32.8376C179.298 38.7388 180.956 46.9858 187.1 51.256Z" fill="url(#paint11_linear_3844_11783)"/>
<path d="M199.434 27.0739C198.57 26.4688 197.649 25.9486 196.685 25.5207C197.056 25.7268 197.423 25.9788 197.78 26.2033C203.681 30.3268 205.005 38.6105 200.735 44.7591C196.465 50.9078 188.218 52.548 182.317 48.4565C180.301 47.0572 178.738 45.0982 177.822 42.8211L174.157 43.4808C174.655 46.1043 175.792 48.5648 177.466 50.6456C179.139 52.7263 181.299 54.3633 183.755 55.4122C186.211 56.4612 188.887 56.8899 191.547 56.6606C194.208 56.4313 196.771 55.5509 199.011 54.0972C201.251 52.6435 203.099 50.6611 204.392 48.3246C205.686 45.9882 206.384 43.3695 206.426 40.6994C206.468 38.0294 205.853 35.3899 204.635 33.0137C203.416 30.6376 201.632 28.5977 199.439 27.0739H199.434Z" fill="url(#paint12_linear_3844_11783)"/>
<path d="M200.717 44.7591C204.987 38.6105 203.663 30.3039 197.762 26.2033C197.404 25.9559 197.038 25.7452 196.667 25.5207C193.725 24.2241 190.06 24.0408 186.999 24.5585L188.557 30.7346C190.174 30.4982 191.824 30.6609 193.364 31.2085C194.904 31.756 196.286 32.6719 197.391 33.8762C198.496 35.0805 199.289 36.5367 199.702 38.1179C200.115 39.699 200.134 41.3572 199.76 42.9478C199.385 44.5384 198.627 46.0132 197.551 47.2436C196.476 48.474 195.116 49.4228 193.589 50.0071C192.063 50.5914 190.417 50.7936 188.795 50.596C187.173 50.3984 185.624 49.807 184.282 48.8735C182.064 47.3724 180.529 45.0552 180.012 42.4271L177.795 42.8257C178.719 45.0995 180.283 47.0559 182.299 48.4566C188.2 52.5617 196.447 50.9032 200.717 44.7591Z" fill="url(#paint13_linear_3844_11783)"/>
<path d="M200.25 44.5667C204.52 38.4227 203.196 30.1161 197.294 26.0155C196.942 25.7685 196.576 25.5406 196.199 25.3328C193.29 24.0689 190.075 23.6835 186.949 24.2241L187.916 30.6017C190.48 30.2201 193.094 30.81 195.246 32.2557C196.602 33.1958 197.704 34.456 198.456 35.9243C199.207 37.3927 199.584 39.0238 199.554 40.673C199.524 42.3222 199.087 43.9384 198.282 45.3782C197.477 46.818 196.33 48.0369 194.941 48.9266C193.552 49.8164 191.965 50.3494 190.32 50.4786C188.676 50.6077 187.025 50.3289 185.514 49.6669C184.003 49.0049 182.679 47.9801 181.66 46.6836C180.64 45.3871 179.956 43.8589 179.669 42.2346L177.337 42.6561C178.252 44.9321 179.813 46.8909 181.827 48.2916C187.732 52.3693 195.98 50.7153 200.25 44.5667Z" fill="url(#paint14_linear_3844_11783)"/>
<path d="M123.648 68.2402V82.558C123.648 82.558 127.066 84.7664 130.567 82.558V68.2311" fill="url(#paint15_linear_3844_11783)"/>
<path d="M123.626 81.7837C123.626 81.7837 123.91 75.9237 131.117 72.2492L130.874 69.9859C130.837 70.0408 122.948 70.9572 123.626 81.7837Z" fill="url(#paint16_linear_3844_11783)"/>
<path d="M126.077 90.3056C125.981 90.3056 127.108 93.467 127.108 93.467C127.108 93.467 128.244 90.1132 128.047 89.9528C127.85 89.7925 126.077 90.3056 126.077 90.3056Z" fill="url(#paint17_linear_3844_11783)"/>
<path d="M123.717 82.4435C123.03 80.3542 130.979 80.313 130.521 82.4068C130.109 84.2945 128.006 90.6538 128.006 90.6538H126.173C126.173 90.6538 124.404 84.5327 123.717 82.4435Z" fill="url(#paint18_linear_3844_11783)"/>
<path d="M116.565 44.4613C116.565 44.4613 125.761 47.4211 116.565 52.0073C116.565 52.0073 134.617 51.5034 137.971 55.3474C141.586 59.4709 142.69 50.5137 142.69 50.5137" fill="url(#paint19_linear_3844_11783)"/>
<path d="M139.437 54.4906C141.7 56.0392 141.659 57.5099 142.214 61.2394C143.308 59.7399 143.9 57.9324 143.904 56.0759C143.904 51.6133 142.071 47.8701 139.643 46.8484C142.47 48.3603 143.208 50.7474 139.437 54.4906Z" fill="url(#paint20_linear_3844_11783)"/>
<path d="M138.287 46.5735C138.747 46.5748 139.202 46.6683 139.625 46.8484C133.307 43.4671 116.547 44.4613 116.547 44.4613C118.114 48.0946 116.689 51.9753 116.689 51.9753C120.954 52.7175 128.601 52.4334 132.995 53.0062C133.765 49.2675 135.85 46.5735 138.287 46.5735Z" fill="url(#paint21_linear_3844_11783)"/>
<path d="M139.661 46.8484C139.238 46.6683 138.784 46.5748 138.324 46.5735C135.868 46.5735 133.783 49.2675 133.032 52.9878C135.226 53.1985 137.383 53.6976 139.446 54.4723C143.208 50.7474 142.47 48.3603 139.661 46.8484Z" fill="url(#paint22_linear_3844_11783)"/>
<path d="M139.661 46.8484C139.238 46.6683 138.784 46.5748 138.324 46.5735C135.868 46.5735 133.783 49.2675 133.032 52.9878C135.226 53.1985 137.383 53.6976 139.446 54.4723C143.208 50.7474 142.47 48.3603 139.661 46.8484Z" fill="url(#paint23_linear_3844_11783)"/>
<path d="M123.626 66.9528V77.651C123.626 77.5181 128.061 72.3958 132.816 68.9871C140.275 63.6402 148.692 57.9406 139.46 54.4906C139.437 54.4906 130.956 57.487 123.626 66.9528Z" fill="url(#paint24_linear_3844_11783)"/>
<path d="M143.895 30.7346C143.895 30.7346 143.977 21.2551 143.895 21.3376C143.813 21.4201 120.134 27.9673 117.138 32.5627V40.2599C117.222 40.9322 117.548 41.5509 118.054 42.001C118.054 42.001 114.673 39.8247 124.285 37.3597C134.379 34.7619 138.168 33.7219 143.895 30.7346Z" fill="url(#paint25_linear_3844_11783)"/>
<path d="M139.625 22.6938V19.8944C138.003 23.1015 133.389 24.2332 127.85 26.6019C127.077 26.9349 126.339 27.2663 125.637 27.5962C130.319 25.649 135.882 23.8484 139.625 22.6938Z" fill="url(#paint26_linear_3844_11783)"/>
</svg>
