<svg width="354" height="92" viewBox="0 0 354 92" fill="none" xmlns="http://www.w3.org/2000/svg">
<defs>
<linearGradient id="paint0_linear_559_1011" x1="178" y1="-32.0647" x2="178" y2="100.741" gradientUnits="userSpaceOnUse">
<stop stop-color="#3F60D6"/>
<stop offset="0.595598" stop-color="#AF5623" stop-opacity="0.63"/>
</linearGradient>
<linearGradient id="paint1_linear_559_1011" x1="177" y1="-4.16956" x2="177" y2="116" gradientUnits="userSpaceOnUse">
<stop stop-color="#36241B" stop-opacity="0.41"/>
<stop offset="1" stop-color="#61402E" stop-opacity="0"/>
</linearGradient>
<linearGradient id="paint2_linear_559_1011" x1="185.22" y1="44.0454" x2="185.22" y2="108.455" gradientUnits="userSpaceOnUse">
<stop stop-color="#734549"/>
<stop offset="1" stop-opacity="0.07"/>
</linearGradient>
<radialGradient id="paint3_radial_559_1011" cx="0" cy="0" r="1" gradientUnits="userSpaceOnUse" gradientTransform="translate(321 59) rotate(90) scale(93)">
<stop stop-color="#FFF858" stop-opacity="0.31"/>
<stop offset="0.70625" stop-color="#FFED8D" stop-opacity="0"/>
</radialGradient>
<radialGradient id="paint4_radial_559_1011" cx="0" cy="0" r="1" gradientUnits="userSpaceOnUse" gradientTransform="translate(321 59) rotate(90) scale(272)">
<stop stop-color="#F45D5D" stop-opacity="0.43"/>
<stop offset="0.680208" stop-color="#EA0000" stop-opacity="0"/>
</radialGradient>
<linearGradient id="paint5_linear_559_1011" x1="-2.08187" y1="44.6763" x2="355.972" y2="48.7687" gradientUnits="userSpaceOnUse">
<stop stop-color="#475894" stop-opacity="0.53"/>
<stop offset="1" stop-color="#D9D9D9" stop-opacity="0"/>
</linearGradient>
<clipPath id="clip0_559_1011">
<rect width="354" height="92" fill="white"/>
</clipPath>
</defs>
<g clip-path="url(#clip0_559_1011)">
<rect y="-11" width="356" height="108" fill="#084588"/>
<rect y="-7" width="356" height="104" fill="url(#paint0_linear_559_1011)"/>
<path d="M41 27.2L-6 75.9435L-1.5 105.865L208 116L347 109.726L360 63.3957L342.5 46.0217L322.5 63.3957L285 37.3348L253 63.3957L204 27.2L171 51.813L121.5 5L71.5 51.813L41 27.2Z" fill="url(#paint1_linear_559_1011)"/>
<path d="M8.89787 49L-45 76.0597L-25.0378 108.836C102.055 113.918 374.705 108.455 380.693 108.455C386.682 108.455 383.189 81.0143 380.693 67.2939L356.739 49L331.786 67.2939L273.397 53.1923L197.54 70.3429L133.162 49L66.2891 70.3429L8.89787 49Z" fill="url(#paint2_linear_559_1011)"/>
<path d="M80.8895 69.417C51.4228 65.0583 15.4634 47.139 -17 36L-11.0068 78.4978L6.97294 109.372L343.094 117C356.911 111.552 380.951 100.655 366.567 100.655C348.587 100.655 309.631 91.9372 277.168 86.4888C251.197 82.13 205.749 76.6816 184.273 76.6816C160.799 76.6816 110.356 73.7758 80.8895 69.417Z" fill="#361B1B"/>
<circle cx="321" cy="59" r="93" fill="url(#paint3_radial_559_1011)"/>
<circle cx="321" cy="59" r="272" fill="url(#paint4_radial_559_1011)"/>
<path fill-rule="evenodd" clip-rule="evenodd" d="M323.415 63.379L316.081 58.0984C316.506 55.7673 318.546 54 321 54C323.761 54 326 56.2386 326 59C326 60.8855 324.956 62.5272 323.415 63.379Z" fill="#FFBA93"/>
<rect width="356" height="92" fill="url(#paint5_linear_559_1011)"/>
</g>
</svg>
