<svg width="140" height="139" viewBox="0 0 140 139" fill="none" xmlns="http://www.w3.org/2000/svg">
<defs>
<linearGradient id="paint0_linear_411_1136" x1="75.2077" y1="53.5974" x2="65.5659" y2="121.01" gradientUnits="userSpaceOnUse">
<stop stop-color="#B6D8FC"/>
<stop offset="1" stop-color="#FCDCB6"/>
</linearGradient>
</defs>
<path fill-rule="evenodd" clip-rule="evenodd" d="M80.1308 19.178C75.3282 18.4911 70.4493 19.7402 66.5676 22.6505C62.6859 25.5607 60.1193 29.8938 59.4324 34.6964L56.6654 54.0421C56.1857 57.3964 53.0775 59.7268 49.7231 59.247C46.3687 58.7672 44.0384 55.659 44.5182 52.3047L47.2851 32.959C48.4328 24.9347 52.7212 17.695 59.2068 12.8325C65.6923 7.97003 73.8439 5.88308 81.8682 7.03078C89.8925 8.17848 97.1322 12.4668 101.995 18.9524C106.857 25.438 108.944 33.5896 107.796 41.6139L105.029 60.9595C104.55 64.3139 101.442 66.6442 98.0872 66.1644C94.7328 65.6847 92.4025 62.5765 92.8822 59.2221L95.6492 39.8765C96.3361 35.0738 95.0871 30.195 92.1768 26.3133C89.2665 22.4316 84.9335 19.865 80.1308 19.178Z" fill="#7490AD"/>
<path fill-rule="evenodd" clip-rule="evenodd" d="M40.9189 51.7897L108.629 61.4741C113.971 62.2382 117.682 67.1883 116.918 72.5304L112.076 106.385C111.312 111.727 106.362 115.439 101.019 114.675L33.3097 104.99C27.9676 104.226 24.2563 99.2761 25.0204 93.9339L29.8626 60.0791C30.6267 54.7369 35.5768 51.0257 40.9189 51.7897ZM77.4128 78.125C77.1092 80.2482 75.6631 81.9263 73.7856 82.6263L74.4596 95.4738L63.9536 93.9711L68.243 81.7108C66.7568 80.4986 65.9242 78.5603 66.2155 76.5234C66.6577 73.4313 69.5229 71.2833 72.6149 71.7255C75.707 72.1678 77.8551 75.0329 77.4128 78.125Z" fill="url(#paint0_linear_411_1136)"/>
<path d="M105.909 136.693C123.697 131.043 133.653 116.441 138.417 104.185" stroke="#33DB58" stroke-width="3" stroke-linecap="round"/>
<path d="M13.8204 38.3349L20.5615 35.6115C19.868 35.1012 19.2516 34.0687 19.151 33.0497C18.6228 27.6997 29.19 25.9491 28.272 16.6503C27.6873 10.7271 22.247 7.08392 14.031 7.89501C8.55359 8.43574 3.67842 11.1679 0.692651 15.4499L6.42374 20.7365C8.1655 18.185 10.6833 16.3287 13.8678 16.0143C17.3708 15.6685 18.9992 17.1798 19.1941 19.1542C19.6279 23.5489 10.4171 25.3585 11.1653 32.9377C11.3854 35.1668 12.3383 37.0021 13.8204 38.3349ZM18.2294 51.7266C21.0318 51.4499 23.1557 48.8608 22.879 46.0584C22.6024 43.256 20.0132 41.1321 17.2108 41.4087C14.4084 41.6854 12.2845 44.2746 12.5612 47.077C12.8378 49.8793 15.427 52.0032 18.2294 51.7266Z" fill="#5DECFF"/>
</svg>
