<svg width="160" height="160" viewBox="0 0 160 160" fill="none" xmlns="http://www.w3.org/2000/svg">
<defs>
<linearGradient id="paint0_linear_892_1935" x1="80.0017" y1="-9.12629" x2="80.0017" y2="193.615" gradientUnits="userSpaceOnUse">
<stop stop-color="#B6D8FC"/>
<stop offset="1" stop-color="#FCDCB6"/>
</linearGradient>
</defs>
<path d="M135.25 66.075C130.4 63.3188 124.341 65.3625 121.716 70.35L108.784 96.7281C108.542 97.2275 108.119 97.6161 107.601 97.8151C107.083 98.0141 106.508 98.0087 105.994 97.8C105.586 97.6377 105.237 97.3566 104.991 96.9933C104.745 96.63 104.615 96.2011 104.616 95.7625V22.5C104.616 18.1531 100.6 15 96.2501 15C91.9001 15 88.1251 18.1531 88.1251 22.5V71.45C88.1355 72.3642 87.7892 73.2464 87.1596 73.9093C86.53 74.5722 85.6667 74.9635 84.7532 75C84.2963 75.0087 83.8422 74.9263 83.4175 74.7574C82.9929 74.5886 82.6062 74.3368 82.28 74.0167C81.9538 73.6966 81.6947 73.3147 81.5179 72.8933C81.341 72.4719 81.25 72.0195 81.2501 71.5625V7.5C81.2501 3.15313 77.8313 0 73.4813 0C69.1313 0 65.6251 3.15313 65.6251 7.5V71.45C65.6355 72.3642 65.2892 73.2464 64.6596 73.9093C64.03 74.5722 63.1667 74.9635 62.2532 75C61.7963 75.0087 61.3422 74.9263 60.9175 74.7574C60.4929 74.5886 60.1061 74.3368 59.78 74.0167C59.4538 73.6966 59.1947 73.3147 59.0179 72.8933C58.841 72.4719 58.75 72.0195 58.7501 71.5625V17.5C58.7501 13.1531 54.9751 10 50.6251 10C46.2751 10 42.5001 13.4656 42.5001 17.8125V76.45C42.5105 77.3642 42.1642 78.2464 41.5346 78.9093C40.9049 79.5722 40.0417 79.9635 39.1282 80C38.6713 80.0087 38.2172 79.9263 37.7925 79.7574C37.3679 79.5886 36.9811 79.3368 36.655 79.0167C36.3288 78.6966 36.0697 78.3147 35.8929 77.8933C35.716 77.4719 35.625 77.0195 35.6251 76.5625V37.5C35.6251 33.1531 32.1626 30 27.8126 30C23.4626 30 19.9626 33.1938 20.0001 37.5V105C20.0001 141.691 42.5001 160 70.0001 160H75.0001C102.5 160 111.159 147.625 117.5 132.5L138.972 79.6875C141.041 74.0625 140.097 68.8281 135.25 66.075V66.075Z" fill="url(#paint0_linear_892_1935)"/>
</svg>
