<svg width="145" height="213" viewBox="0 0 145 213" fill="none" xmlns="http://www.w3.org/2000/svg">
<path d="M25.4037 8.99014C25.4037 4.53416 29.016 0.921875 33.472 0.921875H82.0996C86.5555 0.921875 90.1678 4.53416 90.1678 8.99014V33.7695C90.1678 38.2255 86.5556 41.8378 82.0996 41.8378H33.472C29.016 41.8378 25.4037 38.2255 25.4037 33.7695V8.99014Z" fill="#4A81BD"/>
<path fill-rule="evenodd" clip-rule="evenodd" d="M30.3312 1.55581C30.3897 1.53109 30.4485 1.50704 30.5076 1.48366C30.6438 1.42985 30.7817 1.37964 30.9214 1.33315C31.723 1.06627 32.5807 0.921875 33.472 0.921875H82.0996C83.4498 0.921875 84.7225 1.25346 85.8408 1.83982C86.9149 2.40303 87.8467 3.20108 88.5675 4.16593C89.5727 5.51148 90.1678 7.18143 90.1678 8.99014V33.7695C90.1678 38.2255 86.5556 41.8378 82.0996 41.8378H33.472C29.016 41.8378 25.4037 38.2255 25.4037 33.7695V8.99014C25.4037 5.64815 27.4354 2.78064 30.3312 1.55581ZM35.0673 4.3796H82.0994C82.1044 4.3796 82.1093 4.3796 82.1143 4.37962L57.7065 21.0151L35.0673 4.3796ZM85.7052 6.11677C86.334 6.9048 86.7098 7.90353 86.7098 8.99004V33.7694C86.7098 36.3157 84.6457 38.3798 82.0994 38.3798H33.4718C30.9255 38.3798 28.8613 36.3157 28.8613 33.7694V8.99003C28.8613 7.53107 29.539 6.23039 30.5968 5.38559L57.6314 25.2508L85.7052 6.11677Z" fill="white"/>
<ellipse cx="29.4527" cy="210.984" rx="29.2125" ry="1.729" fill="black" fill-opacity="0.2"/>
<ellipse cx="113.902" cy="210.984" rx="29.2125" ry="1.729" fill="black" fill-opacity="0.2"/>
<path fill-rule="evenodd" clip-rule="evenodd" d="M120.737 28.3032L79.9356 23.5959C72.2182 22.7055 65.45 28.7574 65.45 36.5484V157.62C65.45 164.245 70.4026 169.816 76.9643 170.573L117.766 175.28C118.983 175.421 120.667 174.661 122.137 173.998C122.857 173.673 123.525 173.371 124.063 173.21C124.821 172.982 126.035 172.883 126.628 172.835C126.833 172.818 126.964 172.807 126.977 172.8C127.256 172.634 127.544 172.378 127.836 172.119L127.862 172.096C130.542 169.719 132.252 166.243 132.252 162.328V41.2557C132.252 34.6315 127.299 29.0602 120.737 28.3032Z" fill="#AAC1DA"/>
<path d="M126.983 172.808L117.038 176.34L114.586 173.417L118.218 170.409L126.983 172.808Z" fill="#AAC1DA"/>
<path d="M74.4089 24.1482L67.3665 26.4791L78.124 27.8872L81.7565 24.879L74.4089 24.1482Z" fill="#AAC1DA"/>
<path fill-rule="evenodd" clip-rule="evenodd" d="M5.7403 124.616C6.69391 118.45 7.48741 115.123 13.1027 111.283L22.3236 117.623L11.9259 127.709C11.1934 129.174 11.2931 130.917 12.1878 132.289L18.3043 141.668L12.5117 145.446L6.39517 136.067C4.15841 132.637 3.90913 128.278 5.7403 124.616Z" fill="#AD5353"/>
<path d="M5.61095 208.103L5.61072 205.798C5.61079 206.147 5.84959 206.374 6.27385 206.793C6.80426 207.317 7.33466 207.317 7.86507 207.317H8.92588C9.63308 206.967 11.1536 206.269 11.5779 206.269C12.1083 206.269 12.6387 206.793 13.6995 206.793C14.7603 206.793 17.4123 207.841 19.0036 208.365C20.5948 208.888 20.5948 210.286 20.5948 210.984H17.9428H9.45628H6.27385C5.21305 210.984 5.61095 208.941 5.61095 208.103Z" fill="#989898"/>
<path d="M29.5917 206.77L28.7809 204.004C28.889 204.373 29.2319 205.193 29.7389 205.525C30.3726 205.94 30.8442 205.802 31.3157 205.663L32.2589 205.387C32.7795 204.834 33.9151 203.7 34.2923 203.589C34.7639 203.451 35.3976 203.866 36.3407 203.589C37.2838 203.313 39.9659 203.728 41.5428 203.866C43.1196 204.004 43.5521 205.479 43.7683 206.216L41.4105 206.907L33.8656 209.12L31.0362 209.949C30.0931 210.226 29.8511 207.654 29.5917 206.77Z" fill="#989898"/>
<circle cx="46.8241" cy="129.537" r="3.52726" fill="#FFA386"/>
<path d="M31.4369 94.0604C31.437 95.8375 29.614 96.4527 28.7026 96.5381C27.6678 98.7216 25.4332 103.248 24.7724 103.886C23.9465 104.684 20.7852 104.627 19.7029 104.57C18.6206 104.513 18.0795 104 17.7093 102.832C17.339 101.665 16.7124 101.921 15.6587 101.266C14.6049 100.611 14.6619 100.127 14.0923 98.7597C13.5226 97.3926 14.6047 97.1648 15.4876 96.0825C16.3705 95.0002 16.3137 94.7439 16.7124 94.0604C17.1111 93.3768 17.4243 91.2978 19.1046 90.6142C20.785 89.9307 20.6142 90.7282 23.3483 90.4718C26.0825 90.2155 24.3736 89.8167 25.6837 88.7629C26.9938 87.7091 27.4495 88.3643 30.1267 89.532C32.8039 90.6997 31.4368 91.8389 31.4369 94.0604Z" fill="#6A563D"/>
<path d="M20.3629 100.127H20.9846C21.0903 100.127 21.1525 99.6693 21.2182 99.1854C21.2587 98.8869 21.3006 98.5784 21.3549 98.361C21.3779 98.2692 21.3927 98.1789 21.4075 98.0887C21.4844 97.6195 21.5606 97.1548 22.779 96.5098C23.4247 96.1679 23.879 95.7867 24.2521 95.4736C24.7182 95.0825 25.0575 94.7978 25.4846 94.8295C26.2536 94.8864 26.8517 94.9435 27.4498 95.2283C27.6992 95.347 27.9981 95.6193 28.2888 95.884C28.6438 96.2074 28.9865 96.5194 29.2113 96.5266C29.4495 97.5149 29.5813 98.6269 29.5813 99.8335L31.3102 103.868H29.083C28.3215 106.844 26.766 109.055 24.9709 109.055C24.3998 109.055 23.853 108.86 23.3483 108.504L23.2419 110.207L19.2077 109.631L19.9677 104.058C19.4014 103.626 17.6078 102.083 18.4075 100.401C18.6588 99.873 19.0985 99.6731 19.4258 99.6731C19.7685 99.7273 20.0423 99.8694 20.2576 100.041L20.3295 100.127H20.3577C20.3594 100.128 20.3611 100.13 20.3628 100.132L20.3629 100.127Z" fill="#FFA386"/>
<path d="M23.2423 110.231C22.4679 109.437 22.0171 108.233 21.2554 105.816L23.3504 108.502L23.2423 110.231Z" fill="black" fill-opacity="0.26"/>
<path d="M24.0524 140.675C25.205 156.043 27.9713 188.047 29.8155 193.118C32.1207 199.458 33.8496 203.492 34.4259 204.645C34.887 205.567 30.9681 205.797 29.2392 205.797C26.5498 196.384 21.632 177.212 21.1709 175.829C20.7099 174.446 17.1368 159.885 15.4079 152.777C13.1026 165.84 8.72273 193.118 9.64482 197.729C10.7974 203.492 9.6447 204.068 11.3736 205.797C11.6415 206.065 11.8488 206.251 12.0048 206.376C12.4326 206.414 12.6285 206.877 12.0048 206.376C11.987 206.375 11.9687 206.374 11.9501 206.374L9.00539 208.095L5.61072 206.95C5.61072 203.684 6.18687 197.268 6.18687 195.424C6.18687 193.118 5.03426 182.745 6.18687 179.287C7.10895 176.521 7.33958 164.303 7.33963 158.54C6.95541 152.969 8.49228 142.98 10.2212 139.522C11.8315 136.302 20.4025 139.138 24.0524 140.675Z" fill="#4A81BD"/>
<path d="M27.2663 128.545C27.358 128.464 27.4482 128.382 27.537 128.299L28.3983 129.907C31.2588 135.246 37.7643 137.461 43.2882 134.975L47.9473 132.878L45.1094 126.572L40.4503 128.668C38.2407 129.663 35.6385 128.777 34.4943 126.641L32.7091 123.309L30.3919 115.894C29.6921 114.844 28.0682 112.743 26.7391 112.028C24.7518 110.482 22.211 109.554 19.4421 109.554C13.4819 109.554 8.57828 113.852 7.97782 119.364L7.91604 119.352C7.89932 119.481 7.87887 119.636 7.8556 119.811C7.587 121.838 6.94385 126.69 7.33978 129.149C7.43223 129.723 7.43172 130.556 7.43112 131.527C7.42894 135.076 7.42563 140.47 11.9503 141.828C17.7135 143.556 21.1711 143.556 24.6289 141.828C26.4129 140.936 26.5317 138.362 26.6921 134.889C26.7795 132.999 26.8791 130.842 27.2663 128.545Z" fill="#FF7B7B"/>
<path fill-rule="evenodd" clip-rule="evenodd" d="M9.76427 140.596C10.3396 141.134 11.0566 141.559 11.9504 141.827C17.4513 143.478 20.8517 143.553 24.1567 142.053C24.2061 142.699 24.2578 143.369 24.3118 144.061C21.2555 145.194 17.9784 145.005 12.9372 143.492C11.3638 143.02 10.338 142.06 9.66919 140.859C9.70075 140.77 9.73245 140.682 9.76427 140.596Z" fill="black" fill-opacity="0.26"/>
<path d="M63.3521 38.5104C63.3521 33.1324 68.0378 28.9548 73.3806 29.5694L114.182 34.263C118.725 34.7856 122.154 38.6314 122.154 43.2041V163.924C122.154 169.302 117.468 173.48 112.125 172.865L71.3235 168.171C66.7808 167.649 63.3521 163.803 63.3521 159.23V38.5104Z" fill="white"/>
<path fill-rule="evenodd" clip-rule="evenodd" d="M73.8377 25.5956L114.639 30.2892C121.201 31.0441 126.154 36.5992 126.154 43.2041V163.924C126.154 171.692 119.385 177.727 111.668 176.839L70.8664 172.145C64.3047 171.39 59.3521 165.835 59.3521 159.23V38.5104C59.3521 30.7421 66.1203 24.7078 73.8377 25.5956ZM73.3806 29.5694C68.0378 28.9548 63.3521 33.1324 63.3521 38.5104V159.23C63.3521 163.803 66.7808 167.649 71.3235 168.171L112.125 172.865C117.468 173.48 122.154 169.302 122.154 163.924V43.2041C122.154 38.6314 118.725 34.7856 114.182 34.263L73.3806 29.5694Z" fill="#C8E0FA"/>
<path d="M68.2905 42.2461C68.2905 38.0401 71.9733 34.7837 76.1477 35.2987L108.452 39.2844C112.912 39.8346 116.283 43.5903 116.349 48.0835L117.257 109.387C117.338 114.887 112.51 119.173 107.058 118.439L76.0909 114.275C71.6242 113.674 68.2905 109.862 68.2905 105.355V42.2461Z" fill="#C8E0FA"/>
<path d="M65.8003 126.691C65.8003 122.252 69.6585 118.799 74.0701 119.289L112.745 123.585C116.517 124.004 119.37 127.192 119.37 130.987V130.987C119.37 135.425 115.512 138.879 111.101 138.389L72.4258 134.093C68.6539 133.674 65.8003 130.486 65.8003 126.691V126.691Z" fill="#4A81BD"/>
<path d="M84.5487 129.594L83.385 125.184L82.2561 125.06L80.1537 129.109L81.1811 129.223L81.5264 128.535L83.3402 128.735L83.5213 129.481L84.5487 129.594ZM83.1802 127.915L81.8611 127.77L82.7213 126.022L83.1802 127.915Z" fill="white"/>
<path d="M86.4022 129.875C87.0301 129.944 87.4406 129.714 87.675 129.451L87.2025 128.904C87.0342 129.091 86.7983 129.193 86.5193 129.163C86.0309 129.109 85.7283 128.71 85.787 128.177C85.8457 127.644 86.2273 127.327 86.7157 127.381C86.9947 127.411 87.2041 127.55 87.3262 127.782L87.9071 127.345C87.7349 127.044 87.3844 126.729 86.7566 126.66C85.8116 126.556 85.0597 127.147 84.9562 128.085C84.8521 129.03 85.4573 129.771 86.4022 129.875Z" fill="white"/>
<path d="M89.6431 130.232C90.1187 130.285 90.6168 130.192 90.952 129.946L90.6541 129.387C90.4366 129.556 90.0625 129.63 89.8025 129.602C89.2824 129.544 89.0073 129.187 88.9992 128.794L91.276 129.045L91.2956 128.867C91.406 127.865 90.86 127.112 89.9467 127.011C89.0145 126.909 88.2823 127.553 88.1844 128.441C88.0761 129.424 88.7108 130.13 89.6431 130.232ZM90.556 128.414L89.0467 128.247C89.1183 127.947 89.3751 127.597 89.8761 127.652C90.4089 127.711 90.5692 128.12 90.556 128.414Z" fill="white"/>
<path d="M93.5227 130.66C94.3091 130.747 94.9449 130.22 95.0574 129.199C95.1699 128.178 94.6634 127.531 93.877 127.445C93.5029 127.403 93.1486 127.531 92.8811 127.803L92.9237 127.416L92.1183 127.328L91.6521 131.558L92.4575 131.647L92.6295 130.086C92.8418 130.431 93.1612 130.62 93.5227 130.66ZM93.348 129.915C93.088 129.887 92.8074 129.695 92.6952 129.49L92.8147 128.406C92.9695 128.224 93.2844 128.105 93.5444 128.133C94.0073 128.184 94.2783 128.58 94.2203 129.106C94.1615 129.639 93.8109 129.966 93.348 129.915Z" fill="white"/>
<path d="M96.5605 130.995C96.8966 131.032 97.1221 130.967 97.2544 130.872L97.1503 130.244C97.101 130.284 96.982 130.316 96.8615 130.302C96.6839 130.283 96.5985 130.126 96.6195 129.936L96.7718 128.553L97.3933 128.622L97.4709 127.918L96.8494 127.849L96.9417 127.012L96.1299 126.923L96.0377 127.76L95.5303 127.704L95.4527 128.408L95.9601 128.464L95.7839 130.062C95.7238 130.607 95.9961 130.932 96.5605 130.995Z" fill="white"/>
<path d="M100.392 131.34L100.61 129.361C100.708 128.48 100.098 128.13 99.4002 128.053C98.9182 128 98.4195 128.099 98.009 128.388L98.254 128.96C98.5405 128.748 98.8582 128.661 99.188 128.697C99.5939 128.742 99.8379 128.974 99.8037 129.285L99.7582 129.697C99.5818 129.434 99.235 129.261 98.8291 129.216C98.3408 129.162 97.7336 129.372 97.6547 130.088C97.5792 130.773 98.12 131.167 98.6083 131.22C99.0078 131.264 99.3854 131.158 99.6219 130.934L99.587 131.251L100.392 131.34ZM98.9918 130.711C98.6747 130.676 98.4329 130.482 98.4643 130.197C98.4972 129.899 98.7754 129.762 99.0925 129.797C99.3525 129.826 99.5964 129.943 99.71 130.135L99.6681 130.516C99.5153 130.678 99.2518 130.739 98.9918 130.711Z" fill="white"/>
<path d="M102.06 131.524L102.283 129.501C102.438 129.319 102.81 129.206 103.076 129.235C103.165 129.245 103.24 129.26 103.296 129.279L103.383 128.492C103.002 128.45 102.597 128.63 102.352 128.879L102.398 128.461L101.592 128.372L101.255 131.435L102.06 131.524Z" fill="white"/>
<path d="M98.2602 62.6838C98.4821 61.8501 98.602 60.9608 98.602 60.0376C98.602 55.2793 95.4173 51.422 91.4888 51.422C87.5602 51.422 84.3755 55.2793 84.3755 60.0376C84.3755 62.2618 85.0714 64.2892 86.2139 65.8177C86.8429 66.7547 87.5259 67.2913 88.4652 68.0293C88.8771 68.3529 89.3382 68.7152 89.8657 69.1669V73.538L96.3683 73.3213V67.2884L97.4478 64.7441C97.7158 64.2474 97.9426 63.7151 98.1223 63.1544L98.3266 62.6727L98.2602 62.6838Z" fill="#92415C"/>
<path d="M85.3773 57.1237C84.6119 56.982 84.1866 56.5284 83.6479 56.0464C83.2376 55.6792 83.3432 54.0489 83.4604 53.168C83.4663 52.729 83.5461 51.7151 83.8181 51.1709C84.1582 50.4905 86.6812 48.5345 87.5317 48.9598C88.3821 49.385 91.2169 49.9236 92.4925 49.4133C93.7682 48.9031 92.8894 48.0807 93.8249 47.0602C94.7603 46.0397 97.3683 47.7405 97.8502 48.8177C98.3321 49.8949 99.7779 50.547 100.543 52.2195C101.309 53.8921 100.912 56.415 100.883 56.8119C100.855 57.2087 100.118 61.3475 99.7779 62.1129C99.4377 62.8783 97.4817 64.976 97.3683 64.8626C97.2549 64.7492 97.1132 61.3475 97.0848 60.8656C97.0565 60.3837 96.688 58.2009 96.4045 57.5206C96.121 56.8402 95.384 55.5646 94.7887 55.5646H92.2657C91.7555 55.5646 88.5238 56.3016 88.0703 56.415C87.6167 56.5284 86.1426 57.2654 85.3773 57.1237Z" fill="#2D2D2D"/>
<path fill-rule="evenodd" clip-rule="evenodd" d="M72.5278 68.8322L74.6538 76.6392C75.0388 78.0531 76.3721 77.8917 77.5714 76.8475C81.5961 73.3434 84.2456 72.1869 89.8802 71.7883L87.2977 77.7848L86.1052 80.5405C82.0315 89.9541 68.377 88.9792 65.6819 79.0824L63.5559 71.2754L72.5278 68.8322Z" fill="#D9A160"/>
<path fill-rule="evenodd" clip-rule="evenodd" d="M87.8381 59.1308C87.8381 58.9608 87.8556 58.7956 87.8887 58.6372L86.9185 58.7184C87.0004 58.9574 87.0454 59.2177 87.0454 59.4899C87.0454 60.6567 86.2193 61.6026 85.2003 61.6026C84.1812 61.6026 83.3551 60.6567 83.3551 59.4899C83.3551 58.3232 84.1812 57.3773 85.2003 57.3773C85.8093 57.3773 86.3494 57.7152 86.6855 58.2362L88.0621 58.121C88.3749 57.464 88.9836 57.0182 89.6832 57.0182C90.5655 57.0182 91.3032 57.7273 91.4852 58.675L97.5688 58.1759L97.6097 58.6742L91.5279 59.1732C91.5082 60.3204 90.6898 61.2434 89.6832 61.2434C88.6641 61.2434 87.8381 60.2976 87.8381 59.1308ZM91.2283 59.1308C91.2283 60.1713 90.4996 60.9434 89.6832 60.9434C88.8667 60.9434 88.1381 60.1713 88.1381 59.1308C88.1381 58.9484 88.1604 58.7742 88.2018 58.611L88.3731 58.5967L88.3422 58.2281C88.6151 57.674 89.1289 57.3182 89.6832 57.3182C90.4996 57.3182 91.2283 58.0903 91.2283 59.1308ZM86.7454 59.4899C86.7454 59.2204 86.6965 58.969 86.6099 58.7442L86.5164 58.7521L86.4953 58.5C86.2132 57.9961 85.7249 57.6773 85.2003 57.6773C84.3838 57.6773 83.6551 58.4494 83.6551 59.4899C83.6551 60.5305 84.3838 61.3026 85.2003 61.3026C86.0167 61.3026 86.7454 60.5305 86.7454 59.4899Z" fill="#F3B56C"/>
<path d="M72.9453 70.0544C72.9453 72.7625 70.7978 74.9579 68.1487 74.9579C65.4997 74.9579 63.3522 72.7625 63.3522 70.0544C63.3522 67.3463 65.4997 65.151 68.1487 65.151C70.7978 65.151 72.9453 67.3463 72.9453 70.0544Z" fill="#92415C"/>
<path d="M78.4448 76.1069C82.005 73.1761 84.6629 72.1574 89.8802 71.7883L87.2977 77.7848L86.1052 80.5405C84.4515 84.3618 81.2191 86.4712 77.7819 86.9669C77.7597 85.9767 77.572 84.5202 77.3988 83.1767C77.2101 81.7123 77.0386 80.382 77.1177 79.9361C77.3756 78.4829 77.735 77.2829 78.4448 76.1069Z" fill="black" fill-opacity="0.26"/>
<path d="M88.1355 71.7747C88.1355 71.7747 85.0261 72.2526 84.3395 72.5881C82.6352 73.4209 81.3752 74.8186 80.989 75.3383C79.9238 76.7714 79.4589 78.1659 79.1448 79.9361C79.0657 80.382 79.2371 81.7122 79.4259 83.1767C79.6103 84.6071 79.8111 86.1656 79.8111 87.1531V93.5928C79.8111 95.8134 79.7 97.923 79.1448 99.5885C78.5896 101.254 78.1455 102.919 78.0345 104.696C77.9565 105.943 77.9881 107.191 78.0138 108.207C78.0246 108.639 78.0345 109.028 78.0345 109.359C78.0345 110.328 79.8955 110.452 82.3623 110.615C82.7216 110.639 83.0938 110.663 83.475 110.692C85.6119 110.85 90.5131 110.782 94.278 110.731C95.7948 110.71 97.1272 110.692 98.02 110.692C99.0732 110.692 100.267 110.844 101.441 110.995C103.732 111.288 105.948 111.572 106.902 110.692C107.928 109.745 107.497 106.559 107.161 104.076C107.024 103.062 106.902 102.166 106.902 101.587V88.8185C106.902 87.1531 106.347 81.7126 105.792 80.8243C105.52 80.3884 105.194 79.0165 104.867 77.6405C104.699 76.9327 104.53 76.2237 104.369 75.6406C104.573 75.2244 104.76 74.8408 104.908 74.537L105.517 73.3201C104.874 72.8469 103.397 71.9106 102.626 71.9511C102.058 71.9811 100.731 71.8873 99.5709 71.8054C99.4707 71.7983 99.3718 71.7914 99.2747 71.7845C98.8874 71.6778 98.3314 71.6087 97.4648 71.6087H91.8023C90.0258 71.6087 88.1355 71.7747 88.1355 71.7747Z" fill="#F3B56C"/>
<path d="M82.2192 110.522L82.2528 110.608L82.3623 110.615C82.7216 110.639 83.0938 110.663 83.475 110.692C84.1381 110.741 85.0675 110.768 86.1465 110.781L106.715 102.715C106.802 102.681 106.888 102.646 106.974 102.61C106.93 102.211 106.902 101.863 106.902 101.587L106.902 100.703C106.424 100.982 105.92 101.227 105.392 101.434L82.2192 110.522Z" fill="black" fill-opacity="0.26"/>
<path fill-rule="evenodd" clip-rule="evenodd" d="M100.849 79.5233L97.7112 78.2468L98.4949 71.6412L102.735 72.0871C106.416 73.5845 110.602 75.7978 111.046 79.7468L112.212 90.1227C112.761 95.0021 109.964 99.6417 105.392 101.434L81.508 110.801L78.1132 102.144L101.997 92.7776C102.65 92.5215 103.05 91.8587 102.972 91.1616C102.972 91.1616 101.869 81.3499 101.805 80.7857C101.742 80.2216 101.375 79.7373 100.849 79.5233Z" fill="#F3B56C"/>
<path fill-rule="evenodd" clip-rule="evenodd" d="M103.506 93.0636C103.492 93.125 103.468 93.2026 103.419 93.2721C103.373 93.3388 103.306 93.3873 103.263 93.4168C103.211 93.4521 103.148 93.4887 103.079 93.5261C102.939 93.6012 102.751 93.6899 102.525 93.7899C102.072 93.9902 101.444 94.2443 100.684 94.5378C99.1639 95.1253 97.1041 95.8765 94.8371 96.6831C90.3024 98.2967 84.9299 100.135 81.366 101.336L81.1745 100.767C84.7366 99.5671 90.1056 97.7298 94.636 96.1178C96.9015 95.3117 98.9552 94.5627 100.468 93.9781C101.225 93.6857 101.843 93.4357 102.283 93.2411C102.503 93.1436 102.675 93.062 102.795 92.9975C102.853 92.9663 102.894 92.9415 102.922 92.9229C102.926 92.8998 102.931 92.8662 102.933 92.82C102.939 92.7127 102.936 92.5639 102.921 92.3741C102.891 91.9959 102.82 91.4872 102.718 90.8865C102.515 89.687 102.194 88.1474 101.853 86.6076C101.512 85.0688 101.152 83.5342 100.873 82.3457C100.856 82.274 100.839 82.2036 100.823 82.1345C100.705 81.6311 100.603 81.198 100.526 80.8653C100.441 80.498 100.382 80.2295 100.37 80.1349L100.965 80.0605C100.972 80.1159 101.021 80.3429 101.111 80.7306C101.187 81.0617 101.288 81.4931 101.407 81.9966L101.457 82.2084C101.736 83.3969 102.097 84.9348 102.439 86.4778C102.78 88.0198 103.104 89.5714 103.31 90.7863C103.413 91.3929 103.487 91.9222 103.519 92.3272C103.535 92.5289 103.541 92.708 103.532 92.854C103.528 92.927 103.52 92.9984 103.506 93.0636Z" fill="white"/>
<path d="M85.0202 106.38C85.0202 109.088 82.8727 111.284 80.2236 111.284C77.5745 111.284 75.427 109.088 75.427 106.38C75.427 103.672 77.5745 101.477 80.2236 101.477C82.8727 101.477 85.0202 103.672 85.0202 106.38Z" fill="#92415C"/>
<line x1="71.8344" y1="141.455" x2="112.135" y2="145.933" stroke="#93A5B8" stroke-width="4" stroke-linecap="round"/>
<line x1="71.8344" y1="141.455" x2="112.135" y2="145.933" stroke="#93A5B8" stroke-width="4" stroke-linecap="round"/>
<line x1="71.8344" y1="149.297" x2="112.135" y2="153.775" stroke="#93A5B8" stroke-width="4" stroke-linecap="round"/>
<line x1="71.8344" y1="149.297" x2="112.135" y2="153.775" stroke="#93A5B8" stroke-width="4" stroke-linecap="round"/>
<line x1="71.8344" y1="157.138" x2="112.135" y2="161.616" stroke="#93A5B8" stroke-width="4" stroke-linecap="round"/>
<line x1="71.8344" y1="157.138" x2="112.135" y2="161.616" stroke="#93A5B8" stroke-width="4" stroke-linecap="round"/>
<path fill-rule="evenodd" clip-rule="evenodd" d="M99.7078 153.983C98.2895 153.983 97.1397 155.133 97.1397 156.551C97.1397 157.889 98.163 158.988 99.4698 159.108C96.0069 159.125 93.8023 159.126 92.5149 159.123C89.5589 159.114 87.2255 161.99 87.9493 165.047C88.5016 167.379 89.6584 172.15 90.4558 174.489C90.5348 174.721 90.6273 174.933 90.7278 175.128C91.5373 176.695 92.4709 178.132 93.759 179.371C95.0603 180.624 96.5672 181.526 98.3466 182.248L98.5287 182.322L98.7177 182.374C101.953 183.271 104.854 183.76 105.41 183.85C105.654 183.89 105.89 183.907 106.118 183.907H108.919C109.024 183.907 109.128 183.903 109.231 183.896C110.414 184.869 111.505 185.615 112.548 186.137C110.806 191.991 108.658 194.568 102.882 197.194H99.4286C98.3803 197.194 97.5305 198.044 97.5305 199.092V205.903C97.5305 206.077 97.5539 206.246 97.5977 206.406H96.3023C95.0998 206.406 94.125 207.38 94.125 208.583C94.125 209.785 95.0998 210.76 96.3023 210.76H135.94C137.143 210.76 138.117 209.785 138.117 208.583C138.117 207.38 137.143 206.406 135.94 206.406H134.645C134.689 206.246 134.712 206.077 134.712 205.903V199.092C134.712 198.044 133.862 197.194 132.814 197.194H129.839C123.277 195.045 120.732 192.645 119.724 186.137C120.807 185.615 121.95 184.87 123.201 183.907L123.212 183.907H126.013C126.241 183.907 126.477 183.89 126.721 183.85C127.276 183.76 130.178 183.271 133.413 182.374L133.602 182.322L133.784 182.248C135.564 181.526 137.07 180.624 138.372 179.371C139.66 178.132 140.593 176.695 141.403 175.128C141.503 174.933 141.596 174.721 141.675 174.489C142.472 172.15 143.629 167.379 144.182 165.047C144.905 161.99 142.572 159.114 139.616 159.123C138.362 159.126 136.237 159.125 132.926 159.11C134.24 158.996 135.27 157.894 135.27 156.551C135.27 155.133 134.12 153.983 132.702 153.983H99.7078ZM100.495 162.674L100.705 162.669C100.73 171.145 102.107 175.803 105.719 180.285C104.86 180.139 102.362 179.687 99.6255 178.927C96.6852 177.735 95.2103 176.183 93.8024 173.456C93.7779 173.409 93.7574 173.361 93.7402 173.311C93.0117 171.173 91.897 166.597 91.3303 164.204C91.1526 163.453 91.7521 162.69 92.5046 162.693C93.9261 162.697 96.4421 162.694 100.495 162.674ZM131.675 162.674C131.8 170.45 130.554 175.171 126.676 180.239C127.712 180.057 130.009 179.62 132.505 178.927C135.446 177.735 136.92 176.183 138.328 173.456C138.353 173.409 138.373 173.361 138.391 173.311C139.119 171.173 140.234 166.597 140.8 164.204C140.978 163.453 140.379 162.69 139.626 162.693C138.209 162.697 135.705 162.694 131.675 162.674Z" fill="#FFCC69"/>
<mask id="mask0_401_5388" style="mask-type:alpha" maskUnits="userSpaceOnUse" x="100" y="158" width="32" height="40">
<path d="M131.53 158.896C132.205 170.539 130.802 175.907 124.384 182.936C122.658 184.373 121.14 185.436 119.725 186.12C120.793 193.034 123.593 195.318 131.083 197.585H101.997C108.445 194.811 110.72 192.272 112.548 186.12C111.191 185.44 109.754 184.381 108.138 182.936C102.383 177.145 100.513 172.235 100.72 160.741C100.731 160.144 100.747 159.529 100.769 158.896H131.53Z" fill="#D9D9D9"/>
</mask>
<g mask="url(#mask0_401_5388)">
<path d="M119.471 180.98C117.659 183.217 112.548 186.123 112.548 186.123C112.548 186.123 112.604 196.914 120.532 197.193C128.459 197.473 135.215 197.193 135.215 197.193V178.576L133.205 155.485H124.551V165.269C124.551 169.91 124.272 175.053 119.471 180.98Z" fill="black" fill-opacity="0.09"/>
</g>
<path fill-rule="evenodd" clip-rule="evenodd" d="M90.7279 175.127L90.7279 175.127C91.5374 176.695 92.471 178.131 93.7591 179.371C95.0604 180.623 96.5673 181.526 98.3467 182.248L98.5288 182.321L98.7177 182.374C101.953 183.271 104.854 183.76 105.41 183.85C105.654 183.889 105.89 183.907 106.118 183.907H108.919C109.051 183.907 109.182 183.901 109.311 183.89C108.951 183.593 108.581 183.275 108.202 182.937C107.317 182.046 106.524 181.177 105.817 180.301C105.065 180.175 102.475 179.718 99.6255 178.927C96.6853 177.735 95.2104 176.183 93.8024 173.456C93.7779 173.409 93.7575 173.361 93.7402 173.311C93.0118 171.173 91.8971 166.597 91.3304 164.203C91.1527 163.453 91.7522 162.69 92.5046 162.693C93.9262 162.697 96.4422 162.694 100.495 162.674L100.769 162.667C100.767 162.046 100.772 161.404 100.784 160.741C100.793 160.206 100.808 159.658 100.826 159.094L100.445 159.104C96.4151 159.124 93.9193 159.127 92.5149 159.122C89.559 159.113 87.2256 161.99 87.9493 165.046C88.5017 167.379 89.6585 172.149 90.4559 174.489C90.5349 174.721 90.6274 174.933 90.7279 175.127Z" fill="black" fill-opacity="0.12"/>
<mask id="mask1_401_5388" style="mask-type:alpha" maskUnits="userSpaceOnUse" x="94" y="206" width="45" height="5">
<path fill-rule="evenodd" clip-rule="evenodd" d="M94.1251 208.611C94.1251 207.424 95.0999 206.461 96.3024 206.461H135.94C137.143 206.461 138.118 207.424 138.118 208.611C138.118 209.798 137.143 210.76 135.94 210.76H96.3024C95.0999 210.76 94.1251 209.798 94.1251 208.611Z" fill="#D9D9D9"/>
</mask>
<g mask="url(#mask1_401_5388)">
<path d="M130.246 206.461C132.758 206.461 132.2 207.839 132.2 210.87L133.763 212.413H138.955L139.569 208.941L137.448 205.139C135.159 205.524 128.951 206.461 130.246 206.461Z" fill="black" fill-opacity="0.16"/>
</g>
<path d="M116.289 161.911L118.418 165.12L122.129 166.154L119.735 169.171L119.898 173.02L116.289 171.675L112.679 173.02L112.843 169.171L110.448 166.154L114.159 165.12L116.289 161.911Z" fill="white"/>
<mask id="mask2_401_5388" style="mask-type:alpha" maskUnits="userSpaceOnUse" x="97" y="197" width="38" height="10">
<path d="M97.5305 198.889C97.5305 197.953 98.2893 197.194 99.2254 197.194H133.017C133.953 197.194 134.712 197.953 134.712 198.889V206.462H97.5305V198.889Z" fill="#D9D9D9"/>
</mask>
<g mask="url(#mask2_401_5388)">
<path d="M124.998 207.801H132.814C133.862 207.801 134.712 206.952 134.712 205.903V199.092C134.712 198.044 133.862 197.194 132.814 197.194H124.998C126.046 197.194 126.896 198.044 126.896 199.092V205.903C126.896 206.952 126.046 207.801 124.998 207.801Z" fill="black" fill-opacity="0.16"/>
</g>
<path fill-rule="evenodd" clip-rule="evenodd" d="M102.108 201.046C102.108 200.491 102.558 200.041 103.113 200.041H128.683C129.238 200.041 129.687 200.491 129.687 201.046C129.687 201.601 129.238 202.051 128.683 202.051H103.113C102.558 202.051 102.108 201.601 102.108 201.046Z" fill="white"/>
</svg>
