<svg width="180" height="153" viewBox="0 0 180 153" fill="none" xmlns="http://www.w3.org/2000/svg">
<defs>
<linearGradient id="paint0_linear_407_831" x1="114.94" y1="67.5974" x2="105.298" y2="135.01" gradientUnits="userSpaceOnUse">
<stop stop-color="#B6D8FC"/>
<stop offset="1" stop-color="#FCDCB6"/>
</linearGradient>
</defs>
<path fill-rule="evenodd" clip-rule="evenodd" d="M119.863 33.178C115.061 32.4911 110.182 33.7402 106.3 36.6505C102.418 39.5607 99.8517 43.8938 99.1648 48.6964L96.3978 68.0421C95.9181 71.3964 92.8099 73.7268 89.4555 73.247C86.1011 72.7672 83.7708 69.659 84.2506 66.3047L87.0176 46.959C88.1653 38.9347 92.4536 31.695 98.9392 26.8325C105.425 21.97 113.576 19.8831 121.601 21.0308C129.625 22.1785 136.865 26.4668 141.727 32.9524C146.59 39.438 148.677 47.5896 147.529 55.6139L144.762 74.9595C144.282 78.3139 141.174 80.6442 137.82 80.1644C134.465 79.6847 132.135 76.5765 132.615 73.2221L135.382 53.8765C136.069 49.0738 134.819 44.195 131.909 40.3133C128.999 36.4316 124.666 33.865 119.863 33.178Z" fill="#7490AD"/>
<path fill-rule="evenodd" clip-rule="evenodd" d="M80.6513 65.7897L148.361 75.4741C153.703 76.2382 157.414 81.1883 156.65 86.5304L151.808 120.385C151.044 125.727 146.094 129.439 140.752 128.675L73.0422 118.99C67.7 118.226 63.9888 113.276 64.7528 107.934L69.595 74.0791C70.3591 68.7369 75.3092 65.0257 80.6513 65.7897ZM117.145 92.125C116.842 94.2482 115.395 95.9263 113.518 96.6263L114.192 109.474L103.686 107.971L107.975 95.7108C106.489 94.4986 105.657 92.5603 105.948 90.5234C106.39 87.4313 109.255 85.2833 112.347 85.7255C115.439 86.1678 117.588 89.0329 117.145 92.125Z" fill="url(#paint0_linear_407_831)"/>
<circle cx="32.1555" cy="81.2549" r="21.3889" stroke="#FF0000" stroke-width="3"/>
<path d="M145.642 150.693C163.43 145.043 173.385 130.441 178.15 118.185" stroke="#33DB58" stroke-width="3" stroke-linecap="round"/>
<path d="M32.9386 24.0872C33.3535 20.6481 37.3358 18.9477 40.1067 21.0266L71.4302 44.5264C74.2011 46.6053 73.6825 50.9042 70.4967 52.2645L34.4835 67.6415C31.2977 69.0018 27.834 66.4032 28.2489 62.964L32.9386 24.0872Z" stroke="#0094FF" stroke-width="3"/>
</svg>
