<svg width="88" height="139" viewBox="0 0 88 139" fill="none" xmlns="http://www.w3.org/2000/svg">
<defs>
<linearGradient id="paint0_linear_1027_1180" x1="43.9706" y1="47.0406" x2="43.9706" y2="115.139" gradientUnits="userSpaceOnUse">
<stop stop-color="#B6D8FC"/>
<stop offset="1" stop-color="#FCDCB6"/>
</linearGradient>
<linearGradient id="paint1_linear_1027_1180" x1="44.5118" y1="119.4" x2="44.5118" y2="141.862" gradientUnits="userSpaceOnUse">
<stop stop-color="#B6D8FC"/>
<stop offset="1" stop-color="#FCDCB6"/>
</linearGradient>
<linearGradient id="paint2_linear_1027_1180" x1="44.5118" y1="119.4" x2="44.5118" y2="141.862" gradientUnits="userSpaceOnUse">
<stop stop-color="#B6D8FC"/>
<stop offset="1" stop-color="#FCDCB6"/>
</linearGradient>
<linearGradient id="paint3_linear_1027_1180" x1="44.5118" y1="119.4" x2="44.5118" y2="141.862" gradientUnits="userSpaceOnUse">
<stop stop-color="#B6D8FC"/>
<stop offset="1" stop-color="#FCDCB6"/>
</linearGradient>
<linearGradient id="paint4_linear_1027_1180" x1="44.5118" y1="119.4" x2="44.5118" y2="141.862" gradientUnits="userSpaceOnUse">
<stop stop-color="#B6D8FC"/>
<stop offset="1" stop-color="#FCDCB6"/>
</linearGradient>
</defs>
<path fill-rule="evenodd" clip-rule="evenodd" d="M43.9708 12.2709C39.1193 12.2709 34.4665 14.1981 31.0359 17.6287C27.6054 21.0592 25.6781 25.712 25.6781 30.5636V50.1061C25.6781 53.4946 22.9312 56.2415 19.5427 56.2415C16.1542 56.2415 13.4072 53.4946 13.4072 50.1061V30.5636C13.4072 22.4576 16.6273 14.6836 22.3591 8.95186C28.0909 3.22008 35.8648 0 43.9708 0C52.0768 0 59.8507 3.22008 65.5825 8.95186C71.3143 14.6836 74.5344 22.4576 74.5344 30.5636V50.1061C74.5344 53.4946 71.7874 56.2415 68.3989 56.2415C65.0104 56.2415 62.2635 53.4946 62.2635 50.1061V30.5636C62.2635 25.712 60.3362 21.0592 56.9057 17.6287C53.4751 14.1981 48.8223 12.2709 43.9708 12.2709Z" fill="#7490AD"/>
<path fill-rule="evenodd" clip-rule="evenodd" d="M9.77125 50.106H78.17C83.5665 50.106 87.9413 54.4807 87.9413 59.8772L87.9413 94.0766C87.9413 99.4731 83.5665 103.848 78.17 103.848H9.77125C4.37474 103.848 0 99.4731 0 94.0766L0 59.8772C0 54.4807 4.37474 50.106 9.77125 50.106ZM49.6263 71.0088C49.6263 73.1536 48.4324 75.0196 46.6729 75.9783L49.1591 88.601L38.5462 88.601L41.0565 75.8569C39.4137 74.8673 38.315 73.0664 38.315 71.0088C38.315 67.8853 40.8471 65.3531 43.9706 65.3531C47.0941 65.3531 49.6263 67.8853 49.6263 71.0088Z" fill="url(#paint0_linear_1027_1180)"/>
<path d="M15.4773 138.138L15.1923 131.868L20.4363 135.231L22.2603 132.153L16.7313 129.303L22.2603 126.453L20.4363 123.318L15.1923 126.681L15.4773 120.411L11.8863 120.411L12.1713 126.681L6.87027 123.318L5.10327 126.453L10.6323 129.303L5.10327 132.153L6.87027 135.231L12.1713 131.868L11.8863 138.138L15.4773 138.138Z" fill="url(#paint1_linear_1027_1180)"/>
<path d="M36.0307 138.138L35.7457 131.868L40.9897 135.231L42.8137 132.153L37.2847 129.303L42.8137 126.453L40.9897 123.318L35.7457 126.681L36.0307 120.411L32.4397 120.411L32.7247 126.681L27.4237 123.318L25.6567 126.453L31.1857 129.303L25.6567 132.153L27.4237 135.231L32.7247 131.868L32.4397 138.138L36.0307 138.138Z" fill="url(#paint2_linear_1027_1180)"/>
<path d="M56.5841 138.138L56.2991 131.868L61.5431 135.231L63.3671 132.153L57.8381 129.303L63.3671 126.453L61.5431 123.318L56.2991 126.681L56.5841 120.411L52.9931 120.411L53.2781 126.681L47.9771 123.318L46.2101 126.453L51.7391 129.303L46.2101 132.153L47.9771 135.231L53.2781 131.868L52.9931 138.138L56.5841 138.138Z" fill="url(#paint3_linear_1027_1180)"/>
<path d="M77.1375 138.138L76.8525 131.868L82.0965 135.231L83.9205 132.153L78.3915 129.303L83.9205 126.453L82.0965 123.318L76.8525 126.681L77.1375 120.411L73.5465 120.411L73.8315 126.681L68.5305 123.318L66.7635 126.453L72.2925 129.303L66.7635 132.153L68.5305 135.231L73.8315 131.868L73.5465 138.138L77.1375 138.138Z" fill="url(#paint4_linear_1027_1180)"/>
</svg>
