<svg width="108" height="108" viewBox="0 0 108 108" fill="none" xmlns="http://www.w3.org/2000/svg">
<defs>
<linearGradient id="paint0_linear_1027_1226" x1="43.9706" y1="50.5481" x2="43.9706" y2="118.646" gradientUnits="userSpaceOnUse">
<stop stop-color="#B6D8FC"/>
<stop offset="1" stop-color="#FCDCB6"/>
</linearGradient>
</defs>
<path fill-rule="evenodd" clip-rule="evenodd" d="M43.9708 15.7787C39.1193 15.7787 34.4665 17.7059 31.0359 21.1365C27.6054 24.567 25.6781 29.2199 25.6781 34.0714V53.6139C25.6781 57.0024 22.9312 59.7493 19.5427 59.7493C16.1542 59.7493 13.4072 57.0024 13.4072 53.6139V34.0714C13.4072 25.9654 16.6273 18.1915 22.3591 12.4597C28.0909 6.72789 35.8648 3.50781 43.9708 3.50781C52.0768 3.50781 59.8507 6.72789 65.5825 12.4597C71.3143 18.1915 74.5344 25.9654 74.5344 34.0714V53.6139C74.5344 57.0024 71.7874 59.7493 68.3989 59.7493C65.0104 59.7493 62.2635 57.0024 62.2635 53.6139V34.0714C62.2635 29.2199 60.3362 24.567 56.9057 21.1365C53.4751 17.7059 48.8223 15.7787 43.9708 15.7787Z" fill="#7490AD"/>
<path fill-rule="evenodd" clip-rule="evenodd" d="M9.77125 53.6135H78.17C83.5665 53.6135 87.9413 57.9883 87.9413 63.3848V97.5842C87.9413 102.981 83.5665 107.355 78.17 107.355H9.77125C4.37474 107.355 0 102.981 0 97.5842V63.3848C0 57.9883 4.37474 53.6135 9.77125 53.6135ZM49.6263 74.5164C49.6263 76.6612 48.4324 78.5271 46.6729 79.4859L49.1591 92.1085H38.5462L41.0565 79.3644C39.4137 78.3749 38.315 76.5739 38.315 74.5164C38.315 71.3928 40.8471 68.8607 43.9706 68.8607C47.0941 68.8607 49.6263 71.3928 49.6263 74.5164Z" fill="url(#paint0_linear_1027_1226)"/>
<path d="M106.536 18.9926C106.536 28.9589 98.7095 36.9852 89.1199 36.9852C79.5303 36.9852 71.7041 28.9589 71.7041 18.9926C71.7041 9.02626 79.5303 1 89.1199 1C98.7095 1 106.536 9.02626 106.536 18.9926Z" fill="#101C29" stroke="#46DEB0" stroke-width="2"/>
<path d="M98.9414 12.6641L85.4365 26.592L79.2979 20.2611" stroke="#69FBCB" stroke-width="2" stroke-linecap="round" stroke-linejoin="round"/>
</svg>
