<svg width="150" height="150" viewBox="0 0 150 150" fill="none" xmlns="http://www.w3.org/2000/svg">
<path d="M89.7979 57.59C89.7978 55.7932 89.1123 53.9963 87.7414 52.6254C86.3704 51.2544 84.5735 50.5689 82.7766 50.5689M82.7766 78.654C94.4098 78.654 103.84 69.2234 103.84 57.5902C103.84 45.957 94.4098 36.5264 82.7766 36.5264C71.1434 36.5264 61.7128 45.957 61.7128 57.5902C61.7128 58.551 61.7771 59.4967 61.9017 60.4234C62.1066 61.9475 62.209 62.7096 62.1401 63.1917C62.0682 63.694 61.9768 63.9646 61.7292 64.4075C61.4916 64.8326 61.0728 65.2514 60.2353 66.089L42.2941 84.0301C41.687 84.6373 41.3834 84.9409 41.1663 85.2952C40.9738 85.6093 40.8319 85.9517 40.7459 86.3099C40.6489 86.7139 40.6489 87.1433 40.6489 88.0019V94.1008C40.6489 96.067 40.6489 97.05 41.0316 97.801C41.3681 98.4616 41.9052 98.9986 42.5658 99.3352C43.3167 99.7179 44.2998 99.7179 46.266 99.7179H54.6915V92.6966H61.7128V85.6753H68.734L74.2778 80.1315C75.1154 79.294 75.5341 78.8752 75.9593 78.6376C76.4022 78.39 76.6728 78.2986 77.1751 78.2267C77.6572 78.1578 78.4193 78.2602 79.9434 78.4651C80.87 78.5897 81.8158 78.654 82.7766 78.654ZM129 75.1434C129 108.171 92.1915 132.192 78.7987 139.839C77.2766 140.708 76.5156 141.143 75.4416 141.368C74.608 141.543 73.392 141.543 72.5584 141.368C71.4844 141.143 70.7234 140.708 69.2013 139.839C55.8085 132.192 19 108.171 19 75.1434V42.964C19 37.5843 19 34.8944 19.899 32.5822C20.6931 30.5396 21.9836 28.7171 23.6589 27.2721C25.5553 25.6364 28.1286 24.6919 33.2753 22.803L70.1376 9.27373C71.5669 8.74916 72.2816 8.48687 73.0168 8.38289C73.6689 8.29066 74.3311 8.29066 74.9832 8.38289C75.7184 8.48687 76.4331 8.74915 77.8624 9.27373L114.725 22.803C119.871 24.6919 122.445 25.6364 124.341 27.2721C126.016 28.7171 127.307 30.5396 128.101 32.5822C129 34.8944 129 37.5843 129 42.964V75.1434Z" stroke="white" stroke-width="5" stroke-linecap="round" stroke-linejoin="round"/>
</svg>
