<svg width="181" height="181" viewBox="0 0 181 181" fill="none" xmlns="http://www.w3.org/2000/svg">
<circle cx="90.6357" cy="90.7266" r="90" fill="white" fill-opacity="0.1"/>
<circle cx="90.6357" cy="90.7265" r="68.1054" fill="#101C29" stroke="white" stroke-width="3"/>
<path d="M107.396 67.3851L107.413 67.3783C108.029 67.1325 108.704 67.0727 109.354 67.2065C110.004 67.3402 110.601 67.6616 111.07 68.1309C111.54 68.6002 112.824 69.7929 113.276 70.6965C113.409 71.3465 113.445 72.3305 113.199 72.947L113.191 72.968L92.9957 117.047C92.865 117.368 92.6715 117.66 92.4265 117.906C92.0733 118.258 91.6241 118.499 91.135 118.597C90.7296 118.68 90.3099 118.662 89.9135 118.543C89.5171 118.423 89.1566 118.208 88.8641 117.915L80.3662 109.417C79.9479 108.998 79.689 108.446 79.6339 107.856C79.5789 107.266 79.7313 106.676 80.0647 106.186L92.4715 87.6492C92.4715 87.6492 93.0269 86.8406 92.8933 86.721C92.7457 86.5945 92.0426 87.0023 91.9019 87.0937L73.5531 99.1878C73.0633 99.5212 71.9337 99.6227 71.3438 99.5672C70.7539 99.5118 70.2018 99.2523 69.7827 98.8335L61.2863 90.3371C60.9802 90.0303 60.7551 89.6521 60.6314 89.2368C60.5077 88.8214 60.4892 88.3817 60.5776 87.9574C60.6577 87.5523 60.8369 87.1732 61.0993 86.8543C61.3617 86.5353 61.6991 86.2864 62.0813 86.1298L107.396 67.3851Z" fill="white"/>
</svg>
