<svg width="169" height="161" viewBox="0 0 169 161" fill="none" xmlns="http://www.w3.org/2000/svg">
<path d="M81.0728 2.69488C82.6274 0.111602 86.3726 0.111605 87.9272 2.69488L113.744 45.594C114.303 46.5221 115.214 47.1839 116.269 47.4283L165.046 58.7253C167.984 59.4055 169.141 62.9674 167.165 65.2443L134.343 103.054C133.633 103.872 133.285 104.943 133.379 106.022L137.708 155.903C137.968 158.907 134.938 161.108 132.162 159.932L86.0604 140.401C85.063 139.979 83.937 139.979 82.9396 140.401L36.8377 159.932C34.0616 161.108 31.0316 158.907 31.2923 155.903L35.6213 106.022C35.715 104.943 35.367 103.872 34.657 103.054L1.83541 65.2443C-0.141021 62.9674 1.01631 59.4055 3.95356 58.7253L52.731 47.4283C53.7862 47.1839 54.6972 46.5221 55.2557 45.594L81.0728 2.69488Z" fill="white" fill-opacity="0.13"/>
</svg>
