<svg width="170" height="164" viewBox="0 0 170 164" fill="none" xmlns="http://www.w3.org/2000/svg">
<defs>
<linearGradient id="paint0_linear_2471_1825" x1="35.5604" y1="31.2378" x2="43.8058" y2="54.6749" gradientUnits="userSpaceOnUse">
<stop stop-color="#B6D8FC"/>
<stop offset="1" stop-color="#FCDCB6"/>
</linearGradient>
</defs>
<mask id="mask0_2471_1825" style="mask-type:alpha" maskUnits="userSpaceOnUse" x="0" y="0" width="170" height="164">
<path d="M159.237 0H0L0.000244141 131.977H42.806C55.1549 150.894 76.5113 163.396 100.788 163.396C125.064 163.396 146.421 150.894 158.77 131.977H159.237V131.25C166.04 120.54 169.98 107.832 169.98 94.2038C169.98 80.5757 166.04 67.8679 159.237 57.1571L159.237 0Z" fill="#D9D9D9"/>
</mask>
<g mask="url(#mask0_2471_1825)">
<path d="M169.98 94.2038C169.98 132.418 139.002 163.396 100.788 163.396C62.5741 163.396 31.5957 132.418 31.5957 94.2038C31.5957 55.9899 62.5741 25.0115 100.788 25.0115C139.002 25.0115 169.98 55.9899 169.98 94.2038Z" fill="#2A829E"/>
<path d="M127.913 52.6132C128.63 49.913 129.017 47.0331 129.017 44.0434C129.017 28.6342 118.733 16.1425 106.047 16.1425C93.3606 16.1425 83.0765 28.6342 83.0765 44.0434C83.0765 51.2464 85.3236 57.8119 89.0129 62.762C91.044 65.7963 93.2496 67.5341 96.2829 69.924C97.6129 70.9719 99.102 72.1451 100.805 73.608V87.7637L121.804 87.0617V67.5245L125.29 59.2852C126.155 57.6766 126.887 55.9529 127.468 54.137L128.128 52.5771L127.913 52.6132Z" fill="#92415C"/>
<path d="M86.3113 34.607C83.8397 34.148 82.4664 32.6792 80.727 31.1183C79.4018 29.9291 79.743 24.6497 80.1214 21.7967C80.1404 20.3753 80.398 17.0919 81.2765 15.3293C82.3747 13.1261 90.5221 6.79175 93.2683 8.16878C96.0146 9.54581 105.169 11.29 109.288 9.63761C113.407 7.98518 110.57 5.32206 113.59 2.01719C116.611 -1.28767 125.033 4.22036 126.589 7.70883C128.145 11.1973 132.814 13.3091 135.286 18.7254C137.757 24.1416 136.476 32.312 136.384 33.5972C136.292 34.8825 133.912 48.2855 132.814 50.7641C131.715 53.2428 125.399 60.0361 125.033 59.6689C124.667 59.3017 124.209 48.2855 124.118 46.7249C124.026 45.1642 122.836 38.0955 121.921 35.8923C121.005 33.689 118.625 29.558 116.703 29.558H108.556C106.908 29.558 96.4723 31.9448 95.0076 32.312C93.543 32.6792 88.7829 35.0661 86.3113 34.607Z" fill="#2D2D2D"/>
<path fill-rule="evenodd" clip-rule="evenodd" d="M44.8175 72.5243L51.6828 97.8066C52.9261 102.385 57.2318 101.863 61.1044 98.4812C74.101 87.1332 82.6568 83.3881 100.852 82.0972L92.5128 101.516L88.6619 110.441C75.507 140.926 31.4136 137.769 22.7107 105.719L15.8454 80.4364L44.8175 72.5243Z" fill="#D9A160"/>
<path fill-rule="evenodd" clip-rule="evenodd" d="M94.2577 41.1069C94.2577 40.5565 94.3143 40.0213 94.4212 39.5085L91.2881 39.7714C91.5527 40.5454 91.698 41.3882 91.698 42.2699C91.698 46.0484 89.0304 49.1115 85.7397 49.1115C82.449 49.1115 79.7814 46.0484 79.7814 42.2699C79.7814 38.4914 82.449 35.4284 85.7397 35.4284C87.7065 35.4284 89.4506 36.5226 90.5358 38.2097L94.9812 37.8367C95.9914 35.709 97.9569 34.2653 100.216 34.2653C103.065 34.2653 105.448 36.5619 106.035 39.6309L125.68 38.0145L125.812 39.6282L106.173 41.2442C106.109 44.9593 103.467 47.9485 100.216 47.9485C96.9253 47.9485 94.2577 44.8854 94.2577 41.1069ZM105.205 41.1069C105.205 44.4766 102.853 46.977 100.216 46.977C97.5794 46.977 95.2265 44.4766 95.2265 41.1069C95.2265 40.5162 95.2988 39.9522 95.4323 39.4237L95.9855 39.3773L95.8859 38.1836C96.7669 36.3892 98.4261 35.2369 100.216 35.2369C102.853 35.2369 105.205 37.7373 105.205 41.1069ZM90.7292 42.2699C90.7292 41.3972 90.5714 40.5828 90.2917 39.8551L89.9898 39.8804L89.9217 39.064C89.0107 37.4322 87.4338 36.3999 85.7397 36.3999C83.1031 36.3999 80.7502 38.9003 80.7502 42.2699C80.7502 45.6396 83.1031 48.14 85.7397 48.14C88.3763 48.14 90.7292 45.6396 90.7292 42.2699Z" fill="#F3B56C"/>
<path d="M46.1658 76.4822C46.1658 85.2522 39.2311 92.3616 30.6767 92.3616C22.1222 92.3616 15.1875 85.2522 15.1875 76.4822C15.1875 67.7123 22.1222 60.6028 30.6767 60.6028C39.2311 60.6028 46.1658 67.7123 46.1658 76.4822Z" fill="#92415C"/>
<path d="M63.9249 96.0826C75.4214 86.5917 84.0044 83.2925 100.852 82.0972L92.5128 101.516L88.6619 110.441C83.3218 122.816 72.8837 129.647 61.7841 131.252C61.7125 128.045 61.1063 123.329 60.5471 118.978C59.9376 114.235 59.3839 109.927 59.6394 108.483C60.4722 103.777 61.6329 99.8912 63.9249 96.0826Z" fill="black" fill-opacity="0.26"/>
<path d="M95.2183 82.0531C95.2183 82.0531 85.1773 83.6009 82.9602 84.6873C77.4566 87.3843 73.3876 91.9108 72.1405 93.5935C68.7007 98.2348 67.1997 102.751 66.1853 108.483C65.9298 109.927 66.4835 114.235 67.093 118.978C67.6884 123.61 68.337 128.657 68.337 131.855V152.71C68.337 159.901 67.9781 166.733 66.1853 172.126C64.3926 177.519 62.9585 182.913 62.5999 188.666C62.3482 192.705 62.45 196.745 62.5329 200.038C62.5681 201.434 62.5999 202.697 62.5999 203.768C62.5999 206.906 68.6095 207.305 76.5753 207.834C77.7357 207.911 78.9376 207.991 80.1684 208.082C87.0689 208.595 102.896 208.377 115.054 208.209C119.952 208.142 124.254 208.082 127.137 208.082C130.539 208.082 134.393 208.578 138.183 209.065C145.581 210.015 152.739 210.935 155.821 208.082C159.131 205.018 157.739 194.699 156.655 186.657C156.212 183.376 155.821 180.474 155.821 178.598V137.248C155.821 131.855 154.028 114.236 152.235 111.36C151.355 109.948 150.303 105.505 149.247 101.049C148.704 98.7569 148.16 96.4611 147.639 94.5725C148.298 93.2247 148.904 91.9825 149.381 90.9986L151.346 87.058C149.272 85.5255 144.501 82.4932 142.013 82.6246C140.177 82.7215 135.89 82.4179 132.146 82.1527C131.822 82.1298 131.503 82.1071 131.189 82.0851C129.938 81.7393 128.143 81.5158 125.345 81.5158H107.059C101.322 81.5158 95.2183 82.0531 95.2183 82.0531Z" fill="#F3B56C"/>
<path d="M76.1131 207.533L76.2217 207.811L76.5753 207.834C77.7357 207.911 78.9376 207.991 80.1684 208.082C82.3098 208.241 85.311 208.33 88.7953 208.372L155.215 182.251C155.496 182.14 155.774 182.027 156.051 181.91C155.91 180.619 155.821 179.492 155.821 178.598L155.821 175.737C154.277 176.64 152.649 177.433 150.944 178.104L76.1131 207.533Z" fill="black" fill-opacity="0.26"/>
<path fill-rule="evenodd" clip-rule="evenodd" d="M136.273 107.147L126.14 103.013L128.671 81.6209L142.365 83.0649C154.251 87.9143 167.766 95.0818 169.2 107.87L172.967 141.472C174.738 157.274 165.706 172.298 150.944 178.104L73.8166 208.436L62.8541 180.402L139.981 150.069C142.09 149.24 143.381 147.094 143.128 144.836C143.128 144.836 139.565 113.062 139.361 111.235C139.156 109.408 137.971 107.839 136.273 107.147Z" fill="#F3B56C"/>
<path fill-rule="evenodd" clip-rule="evenodd" d="M144.852 150.996C144.808 151.194 144.73 151.446 144.573 151.671C144.422 151.887 144.207 152.044 144.068 152.139C143.9 152.254 143.697 152.372 143.473 152.494C143.021 152.737 142.416 153.024 141.686 153.348C140.222 153.997 138.193 154.819 135.74 155.77C130.831 157.672 124.18 160.105 116.859 162.717C102.216 167.943 84.8668 173.896 73.3581 177.784L72.7396 175.942C84.2423 172.057 101.58 166.107 116.21 160.887C123.526 158.276 130.158 155.85 135.042 153.957C137.486 153.01 139.481 152.201 140.903 151.571C141.615 151.255 142.168 150.991 142.556 150.782C142.744 150.681 142.878 150.6 142.967 150.54C142.981 150.465 142.995 150.357 143.003 150.207C143.023 149.859 143.011 149.377 142.963 148.763C142.867 147.538 142.638 145.891 142.309 143.945C141.653 140.061 140.616 135.075 139.514 130.088C138.413 125.105 137.252 120.136 136.349 116.287C136.295 116.055 136.241 115.826 136.189 115.603C135.806 113.972 135.477 112.57 135.23 111.493C134.957 110.303 134.764 109.434 134.726 109.127L136.648 108.886C136.671 109.066 136.829 109.801 137.118 111.056C137.364 112.129 137.692 113.526 138.074 115.156L138.235 115.842C139.138 119.691 140.302 124.671 141.406 129.668C142.509 134.662 143.555 139.686 144.22 143.621C144.551 145.585 144.792 147.299 144.894 148.611C144.945 149.264 144.965 149.844 144.938 150.317C144.925 150.553 144.899 150.785 144.852 150.996Z" fill="white"/>
<path d="M85.1582 194.12C85.1582 202.89 78.2235 210 69.669 210C61.1146 210 54.1799 202.89 54.1799 194.12C54.1799 185.35 61.1146 178.241 69.669 178.241C78.2235 178.241 85.1582 185.35 85.1582 194.12Z" fill="#92415C"/>
<path fill-rule="evenodd" clip-rule="evenodd" d="M31.3504 19.2711C29.6807 19.8585 28.3127 21.0852 27.5474 22.6812C26.7821 24.2773 26.6822 26.112 27.2696 27.7817L29.6358 34.5076C30.0461 35.6738 29.4333 36.9518 28.2671 37.3621C27.1009 37.7724 25.8229 37.1596 25.4126 35.9933L23.0464 29.2675C22.0649 26.4777 22.2319 23.4122 23.5105 20.7455C24.7892 18.0789 27.0749 16.0293 29.8647 15.0479C32.6545 14.0664 35.7199 14.2333 38.3866 15.512C41.0533 16.7907 43.1028 19.0763 44.0843 21.8661L46.4505 28.592C46.8608 29.7582 46.248 31.0362 45.0818 31.4465C43.9156 31.8568 42.6376 31.244 42.2273 30.0778L39.861 23.3519C39.2736 21.6822 38.047 20.3142 36.4509 19.5489C34.8549 18.7836 33.0202 18.6837 31.3504 19.2711Z" fill="#7490AD"/>
<path fill-rule="evenodd" clip-rule="evenodd" d="M24.1613 36.4336L47.7018 28.1519C49.5591 27.4984 51.5945 28.4744 52.2479 30.3317L56.3888 42.102C57.0422 43.9593 56.0662 45.9946 54.2089 46.648L30.6684 54.9298C28.8111 55.5832 26.7758 54.6073 26.1223 52.75L21.9815 40.9797C21.328 39.1224 22.304 37.0871 24.1613 36.4336ZM40.4091 38.8021C40.6688 39.5403 40.4838 40.327 39.9944 40.87L42.3784 44.9133L38.7258 46.1983L38.0467 41.5083C37.3615 41.3666 36.7653 40.8798 36.5161 40.1717C36.1379 39.0967 36.7028 37.9186 37.7778 37.5404C38.8528 37.1622 40.0309 37.7271 40.4091 38.8021Z" fill="url(#paint0_linear_2471_1825)"/>
<path fill-rule="evenodd" clip-rule="evenodd" d="M14.1462 55.5022C17.3985 53.8075 18.6613 49.7972 16.9666 46.5448C15.272 43.2924 11.2616 42.0296 8.00921 43.7243C4.75683 45.419 3.49406 49.4294 5.18873 52.6817C6.8834 55.9341 10.8938 57.1969 14.1462 55.5022ZM14.9365 57.0191C19.0267 54.8879 20.6147 49.8445 18.4835 45.7544C16.3523 41.6643 11.309 40.0762 7.21883 42.2074C3.1287 44.3386 1.54066 49.382 3.67185 53.4721C5.80304 57.5623 10.8464 59.1503 14.9365 57.0191Z" fill="#FF0000"/>
<path fill-rule="evenodd" clip-rule="evenodd" d="M64.4477 36.0988C64.9171 36.0472 65.3396 36.3859 65.3913 36.8554C65.9316 41.7675 65.1629 48.472 60.1099 53.5507C59.7767 53.8856 59.2352 53.8869 58.9004 53.5538C58.5656 53.2207 58.5642 52.6792 58.8973 52.3443C63.4498 47.7688 64.1999 41.6679 63.6911 37.0425C63.6394 36.573 63.9782 36.1505 64.4477 36.0988Z" fill="#6AFF8A"/>
<path fill-rule="evenodd" clip-rule="evenodd" d="M15.2986 31.9091L5.41231 30.2802C4.11312 30.0661 3.0694 31.3387 3.53361 32.5709L7.06606 41.9471C7.53027 43.1793 9.15425 43.4469 9.98923 42.4288L16.3431 34.6814C17.178 33.6634 16.5978 32.1231 15.2986 31.9091ZM5.69038 28.5925C3.09201 28.1643 1.00457 30.7096 1.93299 33.1739L5.46543 42.5501C6.39385 45.0145 9.64182 45.5496 11.3118 43.5134L17.6656 35.7661C19.3356 33.7299 18.175 30.6495 15.5767 30.2214L5.69038 28.5925Z" fill="#0094FF"/>
</g>
</svg>
