<svg width="160" height="160" viewBox="0 0 160 160" fill="none" xmlns="http://www.w3.org/2000/svg">
<defs>
<linearGradient id="paint0_linear_892_1873" x1="79.9999" y1="58.7529" x2="79.9999" y2="179.104" gradientUnits="userSpaceOnUse">
<stop stop-color="#B6D8FC"/>
<stop offset="1" stop-color="#FCDCB6"/>
</linearGradient>
</defs>
<path d="M31.9085 25.6221C31.1114 25.6217 30.3276 25.417 29.6315 25.0273C28.9355 24.6377 28.3503 24.0762 27.9315 23.396C27.5127 22.7158 27.2742 21.9395 27.2387 21.1409C27.2032 20.3423 27.3718 19.5479 27.7285 18.833L34.7439 4.76217C35.299 3.64962 36.272 2.80378 37.449 2.41071C38.6259 2.01764 39.9104 2.10954 41.0198 2.66621C42.1291 3.22287 42.9726 4.19868 43.3645 5.37899C43.7565 6.5593 43.6649 7.84741 43.1098 8.95995L36.0944 23.0307C35.7055 23.81 35.1079 24.4652 34.3686 24.9229C33.6292 25.3806 32.7774 25.6227 31.9085 25.6221ZM38.9239 44.3832C38.1268 44.3827 37.343 44.178 36.6469 43.7884C35.9509 43.3988 35.3657 42.8372 34.9469 42.157C34.5281 41.4768 34.2896 40.7006 34.2541 39.902C34.2186 39.1034 34.3872 38.3089 34.7439 37.594L39.4208 28.2135C39.9759 27.1009 40.949 26.2551 42.1259 25.862C42.7087 25.6674 43.324 25.5898 43.9367 25.6336C44.5493 25.6775 45.1474 25.8419 45.6967 26.1175C46.246 26.3932 46.7358 26.7746 47.1381 27.24C47.5405 27.7055 47.8474 28.2459 48.0415 28.8303C48.2356 29.4147 48.313 30.0318 48.2692 30.6462C48.2255 31.2606 48.0616 31.8604 47.7867 32.4113L43.1098 41.7918C42.721 42.571 42.1234 43.2263 41.384 43.684C40.6447 44.1417 39.7928 44.3838 38.9239 44.3832ZM113.755 25.6221C112.958 25.6217 112.174 25.417 111.478 25.0273C110.782 24.6377 110.197 24.0762 109.778 23.396C109.359 22.7158 109.121 21.9395 109.085 21.1409C109.05 20.3423 109.218 19.5479 109.575 18.833L116.59 4.76217C117.146 3.64962 118.119 2.80378 119.296 2.41071C120.472 2.01764 121.757 2.10954 122.866 2.66621C123.976 3.22287 124.819 4.19868 125.211 5.37899C125.603 6.5593 125.511 7.84741 124.956 8.95995L117.941 23.0307C117.552 23.81 116.954 24.4652 116.215 24.9229C115.476 25.3806 114.624 25.6227 113.755 25.6221ZM120.77 44.3832C119.973 44.3827 119.19 44.178 118.493 43.7884C117.797 43.3988 117.212 42.8372 116.793 42.157C116.375 41.4768 116.136 40.7006 116.101 39.902C116.065 39.1034 116.234 38.3089 116.59 37.594L121.267 28.2135C121.822 27.1009 122.796 26.2551 123.972 25.862C125.149 25.469 126.434 25.5609 127.543 26.1175C128.653 26.6742 129.496 27.65 129.888 28.8303C130.28 30.0106 130.188 31.2987 129.633 32.4113L124.956 41.7918C124.568 42.571 123.97 43.2263 123.231 43.684C122.491 44.1417 121.639 44.3838 120.77 44.3832Z" fill="white"/>
<mask id="mask0_892_1873" style="mask-type:alpha" maskUnits="userSpaceOnUse" x="18" y="64" width="124" height="96">
<path d="M105.699 124.477C98.6265 117.92 89.4926 114.298 80.0296 114.298C70.5666 114.298 61.4327 117.92 54.3601 124.477C53.7624 125.016 53.2735 125.674 52.9217 126.412C52.5698 127.15 52.3621 127.954 52.3106 128.776C52.259 129.599 52.3647 130.424 52.6214 131.203C52.8781 131.983 53.2808 132.701 53.806 133.317C54.3312 133.933 54.9686 134.434 55.681 134.791C56.3934 135.148 57.1666 135.353 57.9559 135.396C58.7452 135.438 59.5347 135.317 60.2785 135.039C61.0224 134.76 61.7059 134.331 62.2892 133.775C67.1774 129.244 73.4898 126.741 80.0296 126.741C86.5693 126.741 92.8818 129.244 97.77 133.775C98.9529 134.871 100.505 135.433 102.085 135.336C103.665 135.239 105.143 134.491 106.195 133.258C107.246 132.024 107.785 130.405 107.692 128.757C107.599 127.109 106.882 125.567 105.699 124.471V124.477Z" fill="white"/>
<path d="M80 89.234C63.6059 89.2106 47.8204 95.6512 35.8618 107.243C35.2563 107.803 34.7652 108.483 34.4173 109.242C34.0694 110.002 33.8717 110.825 33.8358 111.665C33.7998 112.504 33.9264 113.342 34.208 114.131C34.4897 114.919 34.9208 115.641 35.476 116.255C36.0312 116.868 36.6993 117.361 37.4412 117.704C38.1832 118.048 38.9839 118.234 39.7966 118.254C40.6092 118.273 41.4174 118.124 42.1737 117.816C42.93 117.508 43.6192 117.047 44.2009 116.46C53.911 107.077 66.7073 101.857 80 101.857C93.2927 101.857 106.089 107.077 115.799 116.46C116.381 117.047 117.07 117.508 117.826 117.816C118.583 118.124 119.391 118.273 120.203 118.254C121.016 118.234 121.817 118.048 122.559 117.704C123.301 117.361 123.969 116.868 124.524 116.255C125.079 115.641 125.51 114.919 125.792 114.131C126.074 113.342 126.2 112.504 126.164 111.665C126.128 110.825 125.931 110.002 125.583 109.242C125.235 108.483 124.744 107.803 124.138 107.243C112.18 95.6512 96.3941 89.2106 80 89.234V89.234Z" fill="white"/>
<path d="M139.964 86.5849C123.476 72.1487 102.151 64.1704 80.0537 64.1704C57.9564 64.1704 36.6317 72.1487 20.1435 86.5849C19.5239 87.1043 19.0162 87.74 18.6505 88.4547C18.2847 89.1693 18.0682 89.9485 18.0137 90.7464C17.9592 91.5444 18.0677 92.345 18.333 93.1011C18.5982 93.8573 19.0148 94.5538 19.5583 95.1498C20.1017 95.7457 20.7611 96.2291 21.4976 96.5714C22.2342 96.9138 23.033 97.1082 23.8472 97.1433C24.6614 97.1785 25.4745 97.0535 26.2388 96.7759C27.0031 96.4983 27.7031 96.0735 28.2977 95.5266C42.5432 83.0595 60.9643 76.1698 80.0522 76.1698C99.1401 76.1698 117.561 83.0595 131.807 95.5266C133.016 96.5877 134.605 97.134 136.225 97.0453C137.844 96.9566 139.362 96.2402 140.443 95.0537C141.524 93.8672 142.081 92.3078 141.99 90.7185C141.9 89.1292 141.17 87.6402 139.961 86.5791L139.964 86.5849Z" fill="white"/>
<path d="M80 159.149C85.8284 159.149 90.5532 155.31 90.5532 150.574C90.5532 145.839 85.8284 142 80 142C74.1716 142 69.4468 145.839 69.4468 150.574C69.4468 155.31 74.1716 159.149 80 159.149Z" fill="white"/>
</mask>
<g mask="url(#mask0_892_1873)">
<rect x="18" y="64.1704" width="124" height="94.9787" fill="url(#paint0_linear_892_1873)"/>
</g>
<path d="M75.3862 44.383C75.1551 44.3832 74.9268 44.3302 74.7173 44.2276C74.5078 44.1251 74.3221 43.9755 74.1734 43.7894C74.0248 43.6033 73.9166 43.3853 73.8566 43.1505C73.7966 42.9157 73.7861 42.67 73.826 42.4305V42.4206L76.249 28.4224H66.8683C66.608 28.4223 66.3529 28.3448 66.1327 28.1986C65.9125 28.0525 65.7361 27.8437 65.6239 27.5965C65.5117 27.3493 65.4684 27.0737 65.4988 26.8016C65.5293 26.5296 65.6324 26.2721 65.7961 26.0591L84.6875 1.48883C84.9025 1.20166 85.201 0.99648 85.5374 0.904681C85.8737 0.812882 86.2294 0.839513 86.55 0.980503C86.8706 1.12149 87.1385 1.36908 87.3127 1.6854C87.4869 2.00173 87.5579 2.36938 87.5147 2.73213C87.5147 2.75934 87.5078 2.78563 87.5035 2.81284L85.0719 16.8147H94.4508C94.7112 16.8147 94.9662 16.8923 95.1865 17.0384C95.4067 17.1846 95.5831 17.3933 95.6953 17.6406C95.8074 17.8878 95.8508 18.1633 95.8203 18.4354C95.7898 18.7075 95.6868 18.9649 95.5231 19.1779L76.6291 43.7482C76.4806 43.9455 76.2918 44.1051 76.0766 44.215C75.8614 44.3249 75.6254 44.3823 75.3862 44.383V44.383Z" fill="#F7FF9D"/>
</svg>
