<svg width="38" height="56" viewBox="0 0 38 56" fill="none" xmlns="http://www.w3.org/2000/svg">
<path d="M23.6047 48.3286C22.1312 48.1508 20.4341 47.0194 19.7697 46.476C20.1734 49.292 22.0404 50.8235 24.1849 51.2928C25.9006 51.6683 28.3479 50.6423 29.3571 50.0824L29.5337 46.9947L28.1713 47.1429C28.1124 47.2088 27.8887 47.4394 27.4649 47.8346C26.935 48.3286 25.4464 48.5509 23.6047 48.3286Z" fill="#F49B1D"/>
<path d="M25.1185 53.1701C23.5643 53.1504 20.4593 51.9021 19.2903 51.2928C19.5678 51.6386 21.7124 55.6403 24.74 55.9614C27.1621 56.2183 29.786 55.1298 30.7952 54.5534V51.6633H29.1805C28.2103 53.1409 27.0612 53.1948 25.1185 53.1701Z" fill="#F49B1D"/>
<path d="M14.3452 1.24739C10.1469 2.55163 4.95963 6.94522 2.89076 8.97898C12.125 3.66814 25.8501 6.90405 28.6002 7.74391C29.5085 8.02129 29.2057 11.9102 28.6002 13.4253C30.114 14.4051 33.2728 16.3845 33.7976 16.4636C34.4536 16.5624 36.2954 15.5496 37.1784 13.4253C38.0615 11.3009 36.6738 8.97898 35.7908 7.74391C34.9077 6.50883 34.0751 5.49606 31.5774 3.64344C29.0796 1.79082 25.7745 0.358129 23.201 0.111114C20.6275 -0.135902 18.5435 -0.0568571 14.3452 1.24739Z" fill="#ED9E28"/>
<path d="M6.92758 8.21324C3.90979 9.69533 1.88565 11.3009 1.25081 11.9185C0.723968 13.9872 -0.461465 18.4397 0.191138 21.5521C1.13385 26.0481 4.52229 26.3113 6.65003 26.1219L25.396 8.08973C23.9158 7.74391 20.9706 7.12142 19.2146 6.90405C17.0196 6.63233 10.6998 6.36062 6.92758 8.21324Z" fill="#E42826"/>
<path d="M25.0175 9.52242L10.2579 23.874C15.6067 20.317 26.3699 13.1634 26.6323 13.0053C26.9603 12.8077 27.6667 11.1527 27.5153 10.7575C27.3942 10.4413 26.4725 9.93411 26.0267 9.72003L25.0175 9.52242Z" fill="#E52A29"/>
<path d="M26.8593 13.697L8.59275 25.8502C8.7285 27.7813 9.99611 30.7371 11.5447 31.3339C13.1202 31.9411 16.115 31.9314 17.499 31.3339L26.8593 13.697Z" fill="#ED9E28"/>
<path d="M27.2882 14.5121L18.3568 31.1857L20.678 45.2409C21.0396 45.6197 22.3431 46.3849 23.1757 46.4513C25.2194 46.6142 26.087 45.982 26.7332 45.2409C27.3793 44.4999 27.6919 42.6967 27.919 42.0297C28.0704 42.0297 28.6629 42.6419 31.6783 43.3636C35.0843 44.1788 36.5958 42.5484 36.8 42.0297C37.8596 39.3372 38.4652 34.3228 37.5569 25.4055C36.8314 18.283 30.0131 14.9074 27.2882 14.5121Z" fill="#3E1D0C"/>
<path fill-rule="evenodd" clip-rule="evenodd" d="M19.4417 36.9165C20.8769 36.9165 22.0404 35.6004 22.0404 33.977C22.0404 32.3536 20.8769 31.0375 19.4417 31.0375C18.0065 31.0375 16.843 32.3536 16.843 33.977C16.843 35.6004 18.0065 36.9165 19.4417 36.9165ZM19.366 35.1874C20.2578 35.1874 20.9807 34.3469 20.9807 33.3101C20.9807 32.2732 20.2578 31.4327 19.366 31.4327C18.4742 31.4327 17.7513 32.2732 17.7513 33.3101C17.7513 34.3469 18.4742 35.1874 19.366 35.1874Z" fill="#ED9E28"/>
</svg>
