<svg width="36" height="36" viewBox="0 0 36 36" fill="none" xmlns="http://www.w3.org/2000/svg">
<path fill-rule="evenodd" clip-rule="evenodd" d="M8.33577 0.356689C7.45715 0.356689 6.74488 1.06546 6.74488 1.93978C6.74488 2.76463 7.37884 3.44214 8.18835 3.51616C6.04313 3.52607 4.67739 3.52724 3.87986 3.52483C2.0487 3.5193 0.603206 5.29254 1.05154 7.17667C1.39373 8.61475 2.11035 11.5553 2.60429 12.9976C2.65326 13.1406 2.71053 13.2711 2.77279 13.391C3.27431 14.3576 3.85261 15.2429 4.65062 16.0071C5.45673 16.7791 6.39024 17.3355 7.49256 17.7803L7.60534 17.8258L7.7224 17.8581C9.72654 18.4112 11.524 18.7125 11.8682 18.7681C12.0191 18.7924 12.1657 18.8031 12.3066 18.8031H14.0421C14.107 18.8031 14.1714 18.8009 14.2352 18.7965C14.9681 19.396 15.6438 19.8558 16.2902 20.1777C15.2111 23.7862 13.8806 25.3749 10.302 26.9939H8.16285C7.51343 26.9939 6.98697 27.5177 6.98697 28.164V32.3626C6.98697 32.4698 7.00147 32.5737 7.02861 32.6723H6.22611C5.48119 32.6723 4.87731 33.2732 4.87731 34.0145C4.87731 34.7558 5.48119 35.3567 6.22611 35.3567H30.7812C31.5261 35.3567 32.13 34.7558 32.13 34.0145C32.13 33.2732 31.5261 32.6723 30.7812 32.6723H29.9787C30.0059 32.5737 30.0204 32.4698 30.0204 32.3626V28.164C30.0204 27.5177 29.4939 26.9939 28.8445 26.9939H27.0016C22.9367 25.669 21.3598 24.1896 20.7358 20.1777C21.4066 19.8557 22.1148 19.3969 22.8893 18.8031L22.8961 18.8031H24.6316C24.7725 18.8031 24.919 18.7924 25.0699 18.7681C25.4142 18.7125 27.2116 18.4112 29.2158 17.8581L29.3328 17.8258L29.4456 17.7803C30.5479 17.3355 31.4814 16.7791 32.2875 16.0071C33.0855 15.2429 33.6638 14.3576 34.1654 13.3911C34.2276 13.2711 34.2849 13.1406 34.3339 12.9976C34.8278 11.5553 35.5444 8.61475 35.8866 7.17667C36.3349 5.29254 34.8895 3.5193 33.0583 3.52483C32.2813 3.52718 30.9651 3.52612 28.9143 3.51691C29.7278 3.44684 30.3662 2.76749 30.3662 1.93978C30.3662 1.06546 29.6539 0.356689 28.7753 0.356689H8.33577ZM8.82364 5.71394L8.95338 5.71075C8.96901 10.9361 9.82201 13.8074 12.0597 16.5702C11.5277 16.4803 9.98026 16.2014 8.28478 15.7335C6.46333 14.9985 5.54967 14.0417 4.67745 12.3607C4.66227 12.3315 4.64962 12.3023 4.63892 12.2711C4.18763 10.9534 3.4971 8.13239 3.14605 6.65706C3.03599 6.19454 3.40733 5.72424 3.87348 5.72565C4.75408 5.72831 6.31273 5.72663 8.82364 5.71394ZM28.1389 5.71406C28.2167 10.5073 27.4446 13.4177 25.042 16.5421C25.6841 16.4297 27.1071 16.1602 28.6534 15.7335C30.4748 14.9985 31.3885 14.0417 32.2607 12.3607C32.2759 12.3315 32.2885 12.3023 32.2992 12.2711C32.7505 10.9534 33.4411 8.13239 33.7921 6.65706C33.9022 6.19454 33.5308 5.72424 33.0647 5.72565C32.1869 5.7283 30.6355 5.72664 28.1389 5.71406Z" fill="#FFCC69"/>
<path d="M16.2896 20.1695C16.2896 20.1695 19.4554 18.3778 20.578 16.9988C23.5523 13.3455 23.7253 10.1748 23.7253 7.31421V3.38519H28.0485C28.4666 10.5626 27.5974 13.8717 23.6217 18.205C22.5527 19.0906 21.612 19.746 20.7353 20.1674C21.3702 24.2553 22.9915 25.7177 27.2163 27.0629C25.601 27.0792 23.495 27.0728 21.2352 26.9935C16.3241 26.8212 16.2896 20.1695 16.2896 20.1695Z" fill="black" fill-opacity="0.09"/>
<path d="M2.77231 13.3911C3.27383 14.3576 3.85212 15.2429 4.65013 16.0072C5.45624 16.7791 6.38975 17.3355 7.49207 17.7803L7.60485 17.8258L7.72192 17.8581C9.72605 18.4112 11.5235 18.7125 11.8677 18.7681C12.0186 18.7925 12.1652 18.8031 12.3061 18.8031H14.0416C14.1236 18.8031 14.2048 18.7996 14.285 18.7926C14.0615 18.6098 13.8327 18.4139 13.5978 18.205C13.0497 17.6562 12.5585 17.1203 12.1202 16.5804C11.6555 16.5032 10.0502 16.2209 8.28429 15.7335C6.46285 14.9985 5.54918 14.0418 4.67696 12.3607C4.66178 12.3315 4.64913 12.3024 4.63843 12.2711C4.18714 10.9534 3.49661 8.1324 3.14556 6.65708C3.0355 6.19456 3.40684 5.72426 3.87299 5.72567C4.7536 5.72833 6.31224 5.72665 8.82315 5.71395L8.99319 5.70978C8.99181 5.32697 8.99493 4.93152 9.00233 4.52255C9.0083 4.19311 9.01705 3.8549 9.02847 3.50745L8.79192 3.51325C6.29546 3.52584 4.74935 3.52747 3.87937 3.52485C2.04821 3.51931 0.602718 5.29256 1.05105 7.17668C1.39324 8.61476 2.10986 11.5553 2.6038 12.9976C2.65278 13.1406 2.71005 13.2711 2.77231 13.3911Z" fill="black" fill-opacity="0.12"/>
<path d="M28.4631 35.3567H30.7805C31.5254 35.3567 32.1293 34.7635 32.1293 34.0317C32.1293 33.3 31.5254 32.7067 30.7805 32.7067H27.2588C28.5457 32.7086 28.5255 33.2953 28.4818 34.5636C28.4735 34.8034 28.4644 35.0675 28.4631 35.3567Z" fill="black" fill-opacity="0.16"/>
<path d="M18.6066 5.24362L19.9259 7.2223L22.2247 7.85944L20.7412 9.71946L20.8427 12.0919L18.6066 11.2628L16.3704 12.0919L16.4719 9.71946L14.9884 7.85944L17.2872 7.2223L18.6066 5.24362Z" fill="white"/>
<path d="M25.1279 32.7068H29.9697C29.9988 32.6124 30.0163 32.513 30.0205 32.4102V28.1163C29.9955 27.4953 29.4841 26.9988 28.855 26.9939H24.0132C24.6582 26.999 25.1796 27.5209 25.1796 28.164V32.3626C25.1796 32.4824 25.1615 32.5979 25.1279 32.7068Z" fill="black" fill-opacity="0.16"/>
<path fill-rule="evenodd" clip-rule="evenodd" d="M9.82275 29.3685C9.82275 29.0264 10.1015 28.749 10.4453 28.749H26.2851C26.6289 28.749 26.9076 29.0264 26.9076 29.3685C26.9076 29.7106 26.6289 29.988 26.2851 29.988H10.4453C10.1015 29.988 9.82275 29.7106 9.82275 29.3685Z" fill="white"/>
</svg>
