<svg width="24" height="24" viewBox="0 0 24 24" fill="none" xmlns="http://www.w3.org/2000/svg">
<path fill-rule="evenodd" clip-rule="evenodd" d="M1 3C1 2.44772 1.44772 2 2 2H8C9.32608 2 10.5979 2.52678 11.5355 3.46447C11.7038 3.63275 11.8589 3.81178 12 3.99997V22C11.4477 22 11 21.5523 11 21C11 20.4696 10.7893 19.9609 10.4142 19.5858C10.0391 19.2107 9.53043 19 9 19H2C1.44772 19 1 18.5523 1 18V3ZM13 21C13 20.4696 13.2107 19.9609 13.5858 19.5858C13.9609 19.2107 14.4696 19 15 19H22C22.5523 19 23 18.5523 23 18V3C23 2.44772 22.5523 2 22 2H16C14.9119 2 13.8604 2.35467 13 3H13V21Z" fill="white"/>
</svg>
