<svg width="24" height="24" viewBox="0 0 24 24" fill="none" xmlns="http://www.w3.org/2000/svg">
<path d="M7.56844 6.96937L8.81625 4.99781C9.07922 4.69125 9.43969 4.5 9.84375 4.5L14.1562 4.5C14.5603 4.5 14.9208 4.69125 15.1837 4.99781L16.4316 6.96937C16.6945 7.27641 17.0334 7.5 17.4375 7.5L20.25 7.5C20.6478 7.5 21.0294 7.65804 21.3107 7.93934C21.592 8.22064 21.75 8.60218 21.75 9L21.75 18C21.75 18.3978 21.592 18.7794 21.3107 19.0607C21.0294 19.342 20.6478 19.5 20.25 19.5L3.75 19.5C3.35217 19.5 2.97064 19.342 2.68934 19.0607C2.40803 18.7794 2.25 18.3978 2.25 18L2.25 9C2.25 8.60217 2.40803 8.22064 2.68934 7.93934C2.97064 7.65803 3.35217 7.5 3.75 7.5L6.51562 7.5C6.92109 7.5 7.30547 7.2764 7.56844 6.96937Z" stroke="#E3E2E6" stroke-width="1.5" stroke-linecap="round" stroke-linejoin="round"/>
<path d="M12 16.5C9.92893 16.5 8.25 14.8211 8.25 12.75C8.25 10.6789 9.92893 9 12 9C14.0711 9 15.75 10.6789 15.75 12.75C15.75 14.8211 14.0711 16.5 12 16.5Z" stroke="#E3E2E6" stroke-width="1.5" stroke-miterlimit="10"/>
<path d="M18.1875 7.40625L18.1875 6.375L19.3125 6.375L19.3125 7.40625" stroke="#E3E2E6" stroke-width="1.5" stroke-linecap="round" stroke-linejoin="round"/>
</svg>
