<svg width="51" height="45" viewBox="0 0 51 45" fill="none" xmlns="http://www.w3.org/2000/svg">
<path fill-rule="evenodd" clip-rule="evenodd" d="M26.3857 18C26.022 16.5163 25.4985 14.9982 24.8194 13.4785C23.3462 15.4233 21.3681 16.8071 19.3264 18H14.7195L15.4132 16.1554C17.0004 11.9349 15.8561 8.42964 13.9501 5.8918C13.2773 4.99597 12.5156 4.23265 11.7606 3.62211C11.7449 4.63504 11.5356 5.60563 11.1875 6.52573C10.417 8.56265 8.97195 10.3124 7.86221 11.6561L7.77731 11.7589C7.34657 12.2808 6.96713 12.7412 6.63714 13.1818L6.60804 13.2207L6.57708 13.2581C2.96696 17.6204 1.48096 22.3752 2.16118 26.1905C2.49712 28.0747 3.38663 29.8655 5 31.3566V33.914C-2.08275 28.9655 -1.24854 19.5773 5.03628 11.983C5.39981 11.4975 5.81077 10.9996 6.23485 10.4858L6.23486 10.4858C8.14102 8.17642 10.3124 5.54568 9.63519 2.28022C9.48433 1.5528 9.19212 0.79388 8.72413 0C9.37168 0 10.303 0.313348 11.3312 0.90311C14.6685 2.81739 19.0266 7.64385 18.0154 14.1194C17.8774 15.0031 17.6394 15.9175 17.2852 16.8594C18.1759 16.3652 19.0277 15.8673 19.8211 15.3374C21.4522 14.2479 22.8363 13.0232 23.8029 11.4185C24.2162 10.7323 24.5532 9.97654 24.8005 9.13216C25.2565 9.89121 25.6776 10.6585 26.0626 11.4302C27.1513 13.6122 27.9522 15.83 28.4402 18H26.3857Z" fill="#FF5D5D"/>
<path d="M41.0287 26.456C42.0407 26.456 42.8917 25.605 42.8917 24.593C42.8917 23.581 42.0407 22.73 41.0287 22.73C40.0167 22.73 39.1657 23.581 39.1657 24.593C39.1657 25.605 40.0167 26.456 41.0287 26.456ZM41.0287 34.253C42.0407 34.253 42.8917 33.402 42.8917 32.39C42.8917 31.378 42.0407 30.527 41.0287 30.527C40.0167 30.527 39.1657 31.378 39.1657 32.39C39.1657 33.402 40.0167 34.253 41.0287 34.253ZM50.5042 37.151C48.9632 34.391 48.1812 31.861 48.1812 28.411C48.1812 24.961 48.9632 22.431 50.5042 19.625L48.6642 18.245C46.4332 20.775 45.0302 24.708 45.0302 28.411C45.0302 32.114 46.4332 36.07 48.6642 38.577L50.5042 37.151Z" fill="white"/>
<path d="M7.33331 20.5H14.3333C15.571 20.5 16.758 20.9917 17.6331 21.8668C18.5083 22.742 19 23.929 19 25.1667V41.5C19 40.5717 18.6312 39.6815 17.9749 39.0251C17.3185 38.3687 16.4282 38 15.5 38H7.33331V20.5Z" stroke="white" stroke-width="2" stroke-linecap="round" stroke-linejoin="round"/>
<path d="M30.6667 20.5H23.6667C22.429 20.5 21.242 20.9917 20.3668 21.8668C19.4917 22.742 19 23.929 19 25.1667V41.5C19 40.5717 19.3687 39.6815 20.0251 39.0251C20.6815 38.3687 21.5717 38 22.5 38H30.6667V20.5Z" stroke="white" stroke-width="2" stroke-linecap="round" stroke-linejoin="round"/>
</svg>
