<svg width="24" height="24" viewBox="0 0 24 24" fill="none" xmlns="http://www.w3.org/2000/svg">
<g clip-path="url(#clip0_3537_11072)">
<path d="M8.09419 16.7143H11.3647M9.72946 15.1429V18.2857M15.4529 17.5H15.4611M17.9058 15.9286H17.914M11.7318 12H14.2682C16.4144 12 17.4875 12 18.3298 12.3908C19.0714 12.735 19.6876 13.2863 20.0976 13.9726C20.5633 14.7521 20.6397 15.7807 20.7926 17.8379L20.9938 20.5443C21.0925 21.8713 19.9988 23 18.6143 23C17.9063 23 17.2349 22.6978 16.7817 22.1752L16.4749 21.8214C16.1944 21.4979 16.0541 21.3361 15.8943 21.2054C15.5595 20.9313 15.1541 20.7489 14.7206 20.6771C14.5138 20.6429 14.2947 20.6429 13.8564 20.6429H12.1436C11.7053 20.6429 11.4862 20.6429 11.2794 20.6771C10.8459 20.7489 10.4405 20.9313 10.1057 21.2054C9.94592 21.3361 9.80563 21.4979 9.52505 21.8214L9.2183 22.1752C8.76506 22.6978 8.09366 23 7.38567 23C6.00124 23 4.90755 21.8713 5.00619 20.5443L5.20735 17.8379C5.36026 15.7807 5.43672 14.7521 5.90241 13.9726C6.31244 13.2863 6.9286 12.735 7.67021 12.3908C8.51251 12 9.58561 12 11.7318 12Z" stroke="white" stroke-width="2" stroke-linecap="round" stroke-linejoin="round"/>
<path fill-rule="evenodd" clip-rule="evenodd" d="M2.86313 10.0943C2.08175 11.5969 1.84239 13.0261 2.05798 14.1758C2.16847 14.7651 2.41565 15.3657 2.86313 15.9243V18.5845C-1.2189 15.8728 -0.738133 10.7282 2.88396 6.56652C3.09347 6.3005 3.33032 6.02766 3.57473 5.74611C4.45663 4.73016 5.43705 3.60074 5.58753 2.26898C5.66625 1.57227 5.51783 0.820181 5.00934 0C5.59427 0 6.58092 0.421818 7.55464 1.18753C9.00481 2.3279 10.4263 4.23102 10.4495 6.63949C10.4573 7.45172 10.3061 8.32143 9.94327 9.23874C10.8496 8.76064 11.6861 8.27605 12.3906 7.69997C12.6569 7.48223 12.9044 7.25142 13.1296 7.00295C13.6366 6.44366 14.031 5.7949 14.2745 5.00432C14.7326 5.72945 15.1296 6.46822 15.462 7.20988C15.8595 8.09651 16.1648 8.98727 16.3721 9.86378H14.3067C14.2218 9.5609 14.1229 9.25421 14.01 8.94484C13.6342 9.28443 13.2359 9.58784 12.8289 9.86378H7.54532L8.08344 8.50318C8.84595 6.57523 8.31891 5.00725 7.37336 3.81013C7.34635 3.77594 7.31905 3.74214 7.29148 3.70874C7.26551 3.78219 7.23809 3.85514 7.20927 3.92758C6.70572 5.19329 5.78264 6.25487 5.16011 6.97081L5.08506 7.05717C4.83367 7.34677 4.62966 7.58243 4.45515 7.804L4.42479 7.84254L4.39258 7.87955C3.81637 8.5416 3.35021 9.20862 2.98698 9.86378H2.86313V10.0943Z" fill="#FF5D5D"/>
</g>
<defs>
<clipPath id="clip0_3537_11072">
<rect width="24" height="24" fill="white"/>
</clipPath>
</defs>
</svg>
