<svg width="53" height="73" viewBox="0 0 53 73" fill="none" xmlns="http://www.w3.org/2000/svg">
<path fill-rule="evenodd" clip-rule="evenodd" d="M42.3771 29.2727C41.793 26.8899 40.9522 24.4517 39.8615 22.0109C37.4954 25.1344 34.3184 27.3569 31.0394 29.2727H23.6405L24.7546 26.3102C27.3036 19.5318 25.4658 13.9022 22.4047 9.82623C21.3242 8.38747 20.1007 7.16154 18.8883 6.18097C18.863 7.8078 18.5268 9.36663 17.9678 10.8444C16.7303 14.1158 14.4095 16.9259 12.6272 19.0841L12.4908 19.2492C11.799 20.0874 11.1896 20.8267 10.6596 21.5344L10.6129 21.5968L10.5632 21.6569C4.76512 28.6631 2.37851 36.2995 3.47098 42.4271C4.01053 45.4534 5.43914 48.3294 8.0303 50.7242V54.8316C-3.34502 46.884 -2.00522 31.806 8.08857 19.609C8.67243 18.8294 9.33244 18.0297 10.0135 17.2045L10.0136 17.2045C13.075 13.4955 16.5624 9.27035 15.4747 4.02581C15.2324 2.85753 14.7631 1.63867 14.0115 0.363647C15.0515 0.363647 16.5472 0.866904 18.1986 1.8141C23.5585 4.88855 30.5579 12.6401 28.9338 23.0403C28.7122 24.4596 28.33 25.9281 27.7611 27.4408C29.1916 26.6472 30.5596 25.8475 31.8338 24.9964C34.4536 23.2467 36.6765 21.2798 38.2289 18.7024C38.8927 17.6003 39.434 16.3866 39.8312 15.0305C40.5635 16.2495 41.2397 17.4818 41.8582 18.7212C43.6067 22.2256 44.8929 25.7876 45.6767 29.2727H42.3771Z" fill="#FF5D5D"/>
<path fill-rule="evenodd" clip-rule="evenodd" d="M10.1717 33.2879C10.1717 32.4009 10.8908 31.6818 11.7778 31.6818H23.0202C25.4339 31.6818 27.7488 32.6407 29.4556 34.3474C31.1624 36.0542 32.1212 38.3691 32.1212 40.7828V67.0152C32.1212 67.9022 31.4022 68.6212 30.5152 68.6212C29.6282 68.6212 28.9091 67.9022 28.9091 67.0152C28.9091 65.9503 28.4861 64.929 27.7331 64.176C26.9801 63.423 25.9588 63 24.8939 63H11.7778C10.8908 63 10.1717 62.2809 10.1717 61.3939V33.2879ZM28.9091 61.0058V40.7828C28.9091 39.221 28.2887 37.7231 27.1843 36.6188C26.0799 35.5144 24.582 34.8939 23.0202 34.8939H13.3838V59.7879H24.8939C26.3338 59.7879 27.7293 60.2175 28.9091 61.0058Z" fill="white"/>
<path fill-rule="evenodd" clip-rule="evenodd" d="M31.5747 34.3474C33.2815 32.6407 35.5964 31.6818 38.0101 31.6818H49.2525C50.1395 31.6818 50.8586 32.4009 50.8586 33.2879V61.3939C50.8586 62.2809 50.1395 63 49.2525 63H36.1364C35.0715 63 34.0502 63.423 33.2972 64.176C32.5442 64.929 32.1212 65.9503 32.1212 67.0152C32.1212 67.9022 31.4022 68.6212 30.5151 68.6212C29.6281 68.6212 28.9091 67.9022 28.9091 67.0152V40.7828C28.9091 38.3691 29.8679 36.0542 31.5747 34.3474ZM32.1212 61.0058C33.301 60.2175 34.6965 59.7879 36.1364 59.7879H47.6465V34.8939H38.0101C36.4483 34.8939 34.9504 35.5144 33.846 36.6188C32.7416 37.7231 32.1212 39.221 32.1212 40.7828V61.0058Z" fill="white"/>
</svg>
