<svg width="24" height="24" viewBox="0 0 24 24" fill="none" xmlns="http://www.w3.org/2000/svg">
<path fill-rule="evenodd" clip-rule="evenodd" d="M5.86313 10.0943C5.08175 11.5969 4.84239 13.0261 5.05798 14.1758C5.16847 14.7651 5.41565 15.3657 5.86313 15.9243V18.5845C1.7811 15.8728 2.26187 10.7282 5.88396 6.56652C6.09347 6.3005 6.33032 6.02766 6.57473 5.74611C7.45663 4.73016 8.43705 3.60074 8.58753 2.26898C8.66625 1.57227 8.51783 0.820181 8.00934 0C8.59427 0 9.58092 0.421818 10.5546 1.18753C12.0048 2.3279 13.4263 4.23102 13.4495 6.63949C13.4573 7.45172 13.3061 8.32143 12.9433 9.23874C13.8496 8.76064 14.6861 8.27605 15.3906 7.69997C15.6569 7.48223 15.9044 7.25142 16.1296 7.00295C16.6366 6.44366 17.031 5.7949 17.2745 5.00432C17.7326 5.72945 18.1296 6.46822 18.462 7.20988C18.8595 8.09651 19.1648 8.98727 19.3721 9.86378H17.3067C17.2218 9.5609 17.1229 9.25421 17.01 8.94484C16.6342 9.28443 16.2359 9.58784 15.8289 9.86378H10.5453L11.0834 8.50318C11.8459 6.57523 11.3189 5.00725 10.3734 3.81013C10.3464 3.77594 10.319 3.74214 10.2915 3.70874C10.2655 3.78219 10.2381 3.85514 10.2093 3.92758C9.70572 5.19329 8.78264 6.25487 8.16011 6.97081L8.08506 7.05717C7.83367 7.34677 7.62966 7.58243 7.45515 7.804L7.42479 7.84254L7.39258 7.87955C6.81637 8.5416 6.35021 9.20862 5.98698 9.86378H5.86313V10.0943Z" fill="#FF5D5D"/>
<path fill-rule="evenodd" clip-rule="evenodd" d="M8 11C7.44772 11 7 11.4477 7 12V21.1667C7 21.719 7.44772 22.1667 8 22.1667H12.2C12.4062 22.1667 12.6077 22.2499 12.7592 22.4042C12.9113 22.5592 13 22.7731 13 23C13 23.5523 13.4477 24 14 24C14.5523 24 15 23.5523 15 23C15 22.7731 15.0887 22.5592 15.2408 22.4042C15.3923 22.2499 15.5938 22.1667 15.8 22.1667H20C20.5523 22.1667 21 21.719 21 21.1667V12C21 11.4477 20.5523 11 20 11H16.4C15.4973 11 14.6352 11.3634 14 12.0046C13.3648 11.3634 12.5027 11 11.6 11H8ZM15 20.2847C15.257 20.2072 15.5262 20.1667 15.8 20.1667H19V13H16.4C16.0347 13 15.6805 13.1476 15.4165 13.4166C15.1519 13.6861 15 14.0555 15 14.4444V20.2847ZM13 20.2847V14.4444C13 14.0555 12.8481 13.6861 12.5835 13.4166C12.3195 13.1476 11.9653 13 11.6 13H9V20.1667H12.2C12.4738 20.1667 12.743 20.2072 13 20.2847Z" fill="white"/>
</svg>
