<svg width="24" height="24" viewBox="0 0 24 24" fill="none" xmlns="http://www.w3.org/2000/svg">
<path d="M13.4444 13.1267C13.5815 12.751 13.852 12.4343 14.208 12.2325C14.5641 12.0307 14.9827 11.957 15.3897 12.0243C15.7967 12.0916 16.1659 12.2957 16.4318 12.6003C16.6978 12.905 16.8434 13.2905 16.8427 13.6888C16.8427 14.8129 15.094 15.375 15.094 15.375M15.1166 17.625H15.1244M13.3667 21.15L14.5022 22.61C14.6711 22.8271 14.7555 22.9357 14.859 22.9745C14.9497 23.0085 15.0503 23.0085 15.141 22.9745C15.2445 22.9357 15.3289 22.8271 15.4978 22.61L16.6333 21.15C16.8613 20.8569 16.9753 20.7103 17.1144 20.5984C17.2998 20.4492 17.5187 20.3436 17.7537 20.2901C17.93 20.25 18.12 20.25 18.5 20.25C19.5872 20.25 20.1308 20.25 20.5596 20.0787C21.1313 19.8504 21.5856 19.4124 21.8224 18.861C22 18.4476 22 17.9234 22 16.875V12.6C22 11.3399 22 10.7098 21.7457 10.2285C21.522 9.80516 21.165 9.46095 20.726 9.24524C20.2268 9 19.5735 9 18.2667 9H11.7333C10.4265 9 9.77315 9 9.27402 9.24524C8.83498 9.46095 8.47802 9.80516 8.25432 10.2285C8 10.7098 8 11.3399 8 12.6V16.875C8 17.9234 8 18.4476 8.17761 18.861C8.41443 19.4124 8.86867 19.8504 9.44041 20.0787C9.8692 20.25 10.4128 20.25 11.5 20.25C11.88 20.25 12.07 20.25 12.2463 20.2901C12.4813 20.3436 12.7002 20.4492 12.8856 20.5984C13.0247 20.7103 13.1387 20.8569 13.3667 21.15Z" stroke="white" stroke-width="2" stroke-linecap="round" stroke-linejoin="round"/>
<path d="M3.50001 14C3.25265 12.6792 3.50001 11 3.50001 11L4.00204 9.86378C4.36483 9.20862 4.83044 8.5416 5.40595 7.87955L5.43812 7.84254L5.46845 7.804C5.64274 7.58243 5.84651 7.34677 6.09759 7.05717L6.17255 6.97081C6.79433 6.25487 7.71631 5.19327 8.21924 3.92758C8.24803 3.85514 8.27541 3.78219 8.30135 3.70874C8.32889 3.74214 8.35616 3.77594 8.38313 3.81013C9.06882 4.67931 9.53416 5.74399 9.44616 7H11.4486C11.4544 6.87862 11.4567 6.75844 11.4555 6.63949C11.4324 4.23102 10.0126 2.3279 8.5642 1.18753C7.59165 0.421818 6.60619 0 6.02196 0C6.52984 0.820181 6.67808 1.57227 6.59946 2.26898C6.44916 3.60072 5.46994 4.73014 4.58911 5.74608C4.34504 6.02759 4.10837 6.30055 3.89915 6.56652C0.281444 10.7282 0.500042 17 6.02187 19.5L6.02196 17.5C4.58909 17 3.73645 15.2625 3.50001 14Z" fill="#FF5D5D"/>
<path d="M14.1351 7H16.3663C16.0546 6.32891 15.6903 5.66102 15.2759 5.00432C15.0331 5.79352 14.6402 6.44139 14.1351 7Z" fill="#FF5D5D"/>
</svg>
