<svg width="24" height="24" viewBox="0 0 24 24" fill="none" xmlns="http://www.w3.org/2000/svg">
<path d="M18.1379 7.35981C17.239 7.35981 16.5062 8.11608 16.5062 9.0544C16.5062 9.99271 17.239 10.749 18.1379 10.749C19.0367 10.749 19.7696 9.99271 19.7696 9.0544C19.7696 8.11608 19.0367 7.35981 18.1379 7.35981Z" fill="white"/>
<path d="M5.58526 10.4226C4.68641 10.4226 3.95355 11.1788 3.95355 12.1172C3.95355 13.0555 4.68641 13.8117 5.58526 13.8117C6.48411 13.8117 7.21697 13.0555 7.21697 12.1172C7.21697 11.1788 6.48411 10.4226 5.58526 10.4226Z" fill="white"/>
<path d="M8.53881 13.4853C7.63996 13.4853 6.90711 14.2416 6.90711 15.1799C6.90711 16.1182 7.63996 16.8745 8.53881 16.8745C9.43767 16.8745 10.1705 16.1182 10.1705 15.1799C10.1705 14.2416 9.43767 13.4853 8.53881 13.4853Z" fill="white"/>
<path d="M11.4924 16.5481C10.5935 16.5481 9.86066 17.3043 9.86066 18.2427C9.86066 19.181 10.5935 19.9373 11.4924 19.9373C12.3912 19.9373 13.1241 19.181 13.1241 18.2427C13.1241 17.3043 12.3912 16.5481 11.4924 16.5481Z" fill="white"/>
<path fill-rule="evenodd" clip-rule="evenodd" d="M11.6925 2.14397C10.462 1.68775 9.1053 2.35136 8.6638 3.63179L7.37837 7.3598H3.37009C2.06344 7.3598 1 8.45889 1 9.82008V20.5397C1 21.9009 2.06344 23 3.37009 23H13.7075C15.0142 23 16.0776 21.9009 16.0776 20.5397V20.3791L16.3516 20.4807C17.582 20.9369 18.9388 20.2733 19.3803 18.9929L22.8607 8.89906C23.3026 7.61738 22.658 6.20967 21.4264 5.75305L11.6925 2.14397ZM10.3456 4.25882C10.4533 3.94649 10.7869 3.78058 11.0924 3.89386L20.8264 7.50293C21.1308 7.6158 21.2861 7.96095 21.1789 8.27203L17.6985 18.3659C17.5908 18.6782 17.2571 18.8441 16.9516 18.7308L16.0776 18.4068V9.82008C16.0776 8.45889 15.0142 7.3598 13.7075 7.3598H9.27637L10.3456 4.25882ZM2.78663 9.82008C2.78663 9.48976 3.04554 9.21761 3.37009 9.21761H13.7075C14.0321 9.21761 14.291 9.48976 14.291 9.82008V20.5397C14.291 20.87 14.0321 21.1422 13.7075 21.1422H3.37009C3.04554 21.1422 2.78663 20.87 2.78663 20.5397V9.82008Z" fill="white"/>
</svg>
