<svg width="50" height="50" viewBox="0 0 50 50" fill="none" xmlns="http://www.w3.org/2000/svg">
<path d="M37.8337 15.4644C35.9543 15.4644 34.422 16.9409 34.422 18.7729C34.422 20.6048 35.9543 22.0814 37.8337 22.0814C39.7131 22.0814 41.2455 20.6048 41.2455 18.7729C41.2455 16.9409 39.7131 15.4644 37.8337 15.4644Z" fill="white"/>
<path d="M11.5874 21.444C9.70794 21.444 8.17561 22.9206 8.17561 24.7525C8.17561 26.5845 9.70794 28.061 11.5874 28.061C13.4668 28.061 14.9991 26.5845 14.9991 24.7525C14.9991 22.9206 13.4668 21.444 11.5874 21.444Z" fill="white"/>
<path d="M17.763 27.4237C15.8836 27.4237 14.3512 28.9002 14.3512 30.7322C14.3512 32.5641 15.8836 34.0407 17.763 34.0407C19.6424 34.0407 21.1747 32.5641 21.1747 30.7322C21.1747 28.9002 19.6424 27.4237 17.763 27.4237Z" fill="white"/>
<path d="M23.9386 33.4034C22.0592 33.4034 20.5268 34.8799 20.5268 36.7119C20.5268 38.5438 22.0592 40.0203 23.9386 40.0203C25.818 40.0203 27.3503 38.5438 27.3503 36.7119C27.3503 34.8799 25.818 33.4034 23.9386 33.4034Z" fill="white"/>
<path fill-rule="evenodd" clip-rule="evenodd" d="M24.357 5.28109C21.7843 4.39037 18.9474 5.686 18.0243 8.18588L15.3366 15.4644H6.95565C4.22356 15.4644 2 17.6102 2 20.2678V41.1966C2 43.8542 4.22356 46 6.95565 46H28.5703C31.3024 46 33.5259 43.8542 33.5259 41.1966V40.8831L34.0987 41.0814C36.6715 41.9721 39.5083 40.6765 40.4315 38.1766L47.7087 18.4696C48.6327 15.9673 47.2849 13.2189 44.7098 12.3274L24.357 5.28109ZM21.5408 9.41008C21.766 8.80029 22.4635 8.47637 23.1023 8.69753L43.4551 15.7438C44.0916 15.9642 44.4164 16.6381 44.1922 17.2454L36.915 36.9524C36.6898 37.5622 35.9922 37.8861 35.3534 37.6649L33.5259 37.0322V20.2678C33.5259 17.6102 31.3024 15.4644 28.5703 15.4644H19.3051L21.5408 9.41008ZM5.73569 20.2678C5.73569 19.6229 6.27705 19.0915 6.95565 19.0915H28.5703C29.2489 19.0915 29.7903 19.6229 29.7903 20.2678V41.1966C29.7903 41.8415 29.2489 42.3729 28.5703 42.3729H6.95565C6.27705 42.3729 5.73569 41.8415 5.73569 41.1966V20.2678Z" fill="white"/>
</svg>
