<svg width="24" height="24" viewBox="0 0 24 24" fill="none" xmlns="http://www.w3.org/2000/svg">
<path d="M12.7926 11.1286L11.8362 13.6757L14.2145 12.3543C15.8235 11.4603 17.4037 10.4609 18.4503 8.89818C19.488 11.0908 20.018 13.3006 19.9995 15.2803C19.9764 17.7627 19.0996 19.8313 17.3356 21.1641L17.3173 21.1779L17.2997 21.1926C16.6187 21.7578 15.8269 22.2129 14.9567 22.525C15.7194 21.6674 16.1729 20.498 16.1729 19.2633C16.1729 16.8079 14.3795 14.6106 11.9268 14.6106C9.47407 14.6106 7.68069 16.8079 7.68069 19.2633C7.68069 20.3986 8.06411 21.4788 8.71883 22.312C5.86084 21.2544 4.47182 19.3906 4.10383 17.3235C3.6652 14.8596 4.6265 11.8334 6.89684 9.08585L6.9123 9.06715L6.92683 9.04772C7.13572 8.76835 7.37506 8.47763 7.64161 8.15421C7.65638 8.13629 7.67123 8.11827 7.68617 8.10015C8.38013 7.25844 9.25463 6.19775 9.71837 4.97001C9.98081 4.27521 10.1108 3.53319 10.0397 2.75107C10.6523 3.18187 11.2987 3.779 11.8513 4.51582C13.0736 6.14578 13.8128 8.4115 12.7926 11.1286Z" stroke="white" stroke-width="2"/>
</svg>
