<svg width="25" height="25" viewBox="0 0 25 25" fill="none" xmlns="http://www.w3.org/2000/svg">
<path fill-rule="evenodd" clip-rule="evenodd" d="M18.3934 6.67675C17.7063 9.02612 15.9042 10.2714 13.7288 11.4802C16.056 5.28228 10.2996 1 8.41498 1C10.0094 3.70883 8.31661 5.76285 6.86992 7.51821C6.60669 7.8376 6.35161 8.1471 6.12597 8.44886C1.34128 14.2392 1.64629 21.7071 9.86584 23.7023C10.6079 23.8963 11.3903 24 12.1985 24C14.4007 24 16.4108 23.23 17.9384 21.962C22.0702 18.8403 21.8178 12.3858 18.3934 6.67675ZM11.9268 22.916C13.7196 22.916 15.1729 21.2806 15.1729 19.2633C15.1729 17.246 13.7196 15.6106 11.9268 15.6106C10.134 15.6106 8.68069 17.246 8.68069 19.2633C8.68069 21.2806 10.134 22.916 11.9268 22.916Z" fill="white"/>
</svg>
