<svg width="24" height="24" viewBox="0 0 24 24" fill="none" xmlns="http://www.w3.org/2000/svg">
<path fill-rule="evenodd" clip-rule="evenodd" d="M8.5 4.5C7.15874 4.5 6.07143 5.61929 6.07143 7C6.07143 8.38071 7.15874 9.5 8.5 9.5C9.84126 9.5 10.9286 8.38071 10.9286 7C10.9286 5.61929 9.84126 4.5 8.5 4.5ZM3.64286 7C3.64286 4.23858 5.81747 2 8.5 2C11.1825 2 13.3571 4.23858 13.3571 7C13.3571 9.76142 11.1825 12 8.5 12C5.81747 12 3.64286 9.76142 3.64286 7ZM1.37868 14.8842C2.27729 13.8564 3.52519 13.25 4.85714 13.25H12.1429C13.4748 13.25 14.7227 13.8564 15.6213 14.8842C16.5161 15.9077 17 17.2701 17 18.6667V20.75C17 21.4404 16.4563 22 15.7857 22C15.1151 22 14.5714 21.4404 14.5714 20.75V18.6667C14.5714 17.8531 14.2877 17.0959 13.8162 16.5566C13.3484 16.0216 12.7432 15.75 12.1429 15.75H4.85714C4.25681 15.75 3.65155 16.0216 3.18383 16.5566C2.7123 17.0959 2.42857 17.8531 2.42857 18.6667V20.75C2.42857 21.4404 1.88492 22 1.21429 22C0.543654 22 0 21.4404 0 20.75V18.6667C0 17.2701 0.483871 15.9077 1.37868 14.8842Z" fill="white"/>
<path d="M17.8116 15.75H19.0074C19.6244 15.75 20.2466 16.0216 20.7274 16.5566C21.212 17.0959 21.5037 17.8531 21.5037 18.6667V20.75C21.5037 21.4404 22.0625 22 22.7518 22C23.4412 22 24 21.4404 24 20.75V18.6667C24 17.2701 23.5026 15.9077 22.5829 14.8842C21.6592 13.8564 20.3765 13.25 19.0074 13.25H16.1174C16.2446 13.3717 16.3674 13.4984 16.4855 13.6299C17.0524 14.2606 17.4962 14.9803 17.8116 15.75Z" fill="white"/>
<path d="M13 11.4581C13.6793 11.8046 14.4483 12 15.2629 12C18.0202 12 20.2555 9.76142 20.2555 7C20.2555 4.23858 18.0202 2 15.2629 2C14.4483 2 13.6793 2.19537 13 2.54187C13.5405 3.17675 13.9677 3.91133 14.2503 4.71424C14.5597 4.57653 14.9024 4.5 15.2629 4.5C16.6416 4.5 17.7592 5.61929 17.7592 7C17.7592 8.38071 16.6416 9.5 15.2629 9.5C14.9024 9.5 14.5597 9.42347 14.2503 9.28576C13.9677 10.0887 13.5405 10.8233 13 11.4581Z" fill="white"/>
</svg>
