<svg width="23" height="23" viewBox="0 0 23 23" fill="none" xmlns="http://www.w3.org/2000/svg">
<path fill-rule="evenodd" clip-rule="evenodd" d="M11.0395 1.32465C11.3104 1.11401 11.6896 1.11401 11.9605 1.32465L20.5855 8.03299C20.7681 8.17508 20.875 8.39356 20.875 8.625V19.1667C20.875 19.8739 20.594 20.5522 20.094 21.0523C19.5939 21.5524 18.9156 21.8333 18.2083 21.8333H14.75V12C14.75 11.5858 14.4142 11.25 14 11.25H9C8.58579 11.25 8.25 11.5858 8.25 12V21.8333H4.79167C4.08442 21.8333 3.40615 21.5524 2.90605 21.0523C2.40595 20.5522 2.125 19.8739 2.125 19.1667V8.625C2.125 8.39356 2.23185 8.17508 2.41454 8.03299L11.0395 1.32465ZM9.75 21.8333H13.25V12.75H9.75V21.8333Z" fill="white"/>
</svg>
