<svg width="24" height="24" viewBox="0 0 24 24" fill="none" xmlns="http://www.w3.org/2000/svg">
<path fill-rule="evenodd" clip-rule="evenodd" d="M1 12C1 5.92544 5.92544 1 12 1C18.0746 1 23 5.92544 23 12C23 18.0746 18.0746 23 12 23C5.92544 23 1 18.0746 1 12ZM12 2.76C6.89746 2.76 2.76 6.89746 2.76 12C2.76 17.1025 6.89746 21.24 12 21.24C17.1025 21.24 21.24 17.1025 21.24 12C21.24 6.89746 17.1025 2.76 12 2.76Z" fill="white"/>
<path fill-rule="evenodd" clip-rule="evenodd" d="M10 10.8649C10 10.3872 10.3358 10 10.75 10H12.25C12.6642 10 13 10.3872 13 10.8649V17.1351C13 17.6128 12.6642 18 12.25 18C11.8358 18 11.5 17.6128 11.5 17.1351V11.7297H10.75C10.3358 11.7297 10 11.3425 10 10.8649Z" fill="white"/>
<path fill-rule="evenodd" clip-rule="evenodd" d="M9 17C9 16.4477 9.35817 16 9.8 16H14.2C14.6418 16 15 16.4477 15 17C15 17.5523 14.6418 18 14.2 18H9.8C9.35817 18 9 17.5523 9 17Z" fill="white"/>
<path d="M11.5 6C11.2033 6 10.9133 6.08797 10.6666 6.2528C10.42 6.41762 10.2277 6.65189 10.1142 6.92597C10.0006 7.20006 9.97095 7.50166 10.0288 7.79263C10.0867 8.08361 10.2296 8.35088 10.4393 8.56066C10.6491 8.77044 10.9164 8.9133 11.2074 8.97118C11.4983 9.02906 11.7999 8.99935 12.074 8.88582C12.3481 8.77229 12.5824 8.58003 12.7472 8.33335C12.912 8.08668 13 7.79667 13 7.5C13 7.10218 12.842 6.72064 12.5607 6.43934C12.2794 6.15803 11.8978 6 11.5 6V6Z" fill="white"/>
</svg>
