<svg width="24" height="24" viewBox="0 0 24 24" fill="none" xmlns="http://www.w3.org/2000/svg">
<path fill-rule="evenodd" clip-rule="evenodd" d="M13.2628 1.7346C13.312 1.2856 13.0541 0.859213 12.6336 0.694251C12.213 0.529289 11.7342 0.666711 11.4652 1.02955L2.09984 13.666C1.87477 13.9697 1.84025 14.3744 2.01062 14.712C2.181 15.0495 2.52713 15.2622 2.90519 15.2617L10.2374 15.2508L9.43605 22.5562C9.38679 23.0052 9.64467 23.4316 10.0652 23.5965C10.4858 23.7615 10.9647 23.6241 11.2336 23.2612L20.599 10.6248C20.824 10.3211 20.8586 9.91638 20.6882 9.57882C20.5178 9.24126 20.1717 9.02857 19.7936 9.02913L12.4614 9.03998L13.2628 1.7346Z" fill="white"/>
</svg>
