<svg width="61" height="24" viewBox="0 0 61 24" fill="none" xmlns="http://www.w3.org/2000/svg">
<path d="M2.83555 19L9.13555 5H11.6955L18.0155 19H15.2955L9.87555 6.38H10.9155L5.51555 19H2.83555ZM5.73555 15.76L6.43555 13.72H13.9955L14.6955 15.76H5.73555ZM25.136 19V16.84L24.996 16.38V12.6C24.996 11.8667 24.776 11.3 24.336 10.9C23.896 10.4867 23.2293 10.28 22.336 10.28C21.736 10.28 21.1427 10.3733 20.556 10.56C19.9827 10.7467 19.496 11.0067 19.096 11.34L18.116 9.52C18.6893 9.08 19.3693 8.75333 20.156 8.54C20.956 8.31333 21.7827 8.2 22.636 8.2C24.1827 8.2 25.376 8.57333 26.216 9.32C27.0693 10.0533 27.496 11.1933 27.496 12.74V19H25.136ZM21.776 19.14C20.976 19.14 20.276 19.0067 19.676 18.74C19.076 18.46 18.6093 18.08 18.276 17.6C17.956 17.1067 17.796 16.5533 17.796 15.94C17.796 15.34 17.936 14.8 18.216 14.32C18.5093 13.84 18.9827 13.46 19.636 13.18C20.2893 12.9 21.156 12.76 22.236 12.76H25.336V14.42H22.416C21.5627 14.42 20.9893 14.56 20.696 14.84C20.4027 15.1067 20.256 15.44 20.256 15.84C20.256 16.2933 20.436 16.6533 20.796 16.92C21.156 17.1867 21.656 17.32 22.296 17.32C22.9093 17.32 23.456 17.18 23.936 16.9C24.4293 16.62 24.7827 16.2067 24.996 15.66L25.416 17.16C25.176 17.7867 24.7427 18.2733 24.116 18.62C23.5027 18.9667 22.7227 19.14 21.776 19.14Z" fill="#2D1600"/>
<path d="M49 13C49.5523 13 50 12.5523 50 12C50 11.4477 49.5523 11 49 11C48.4477 11 48 11.4477 48 12C48 12.5523 48.4477 13 49 13Z" stroke="black" stroke-width="2" stroke-linecap="round" stroke-linejoin="round"/>
<path d="M49 6C49.5523 6 50 5.55228 50 5C50 4.44772 49.5523 4 49 4C48.4477 4 48 4.44772 48 5C48 5.55228 48.4477 6 49 6Z" stroke="black" stroke-width="2" stroke-linecap="round" stroke-linejoin="round"/>
<path d="M49 20C49.5523 20 50 19.5523 50 19C50 18.4477 49.5523 18 49 18C48.4477 18 48 18.4477 48 19C48 19.5523 48.4477 20 49 20Z" stroke="black" stroke-width="2" stroke-linecap="round" stroke-linejoin="round"/>
</svg>
