<svg width="24" height="24" viewBox="0 0 24 24" fill="none" xmlns="http://www.w3.org/2000/svg">
<path d="M8.5 20C8.5 20 7.66279 19.3367 6.12072 17.7998C5.02344 16.7062 4.27509 15.3117 3.97032 13.7928C3.66554 12.2739 3.81803 10.6987 4.40849 9.26641C4.99895 7.83414 6.00087 6.60913 7.28755 5.74628C8.57423 4.88344 10.0879 4.42152 11.6371 4.41893C13.1863 4.41634 14.7015 4.8732 15.991 5.73174C17.2806 6.59028 18.2866 7.81193 18.8818 9.24222C19.4771 10.6725 19.6348 12.2472 19.3351 13.7671" stroke="white" stroke-width="2" stroke-miterlimit="10" stroke-linecap="round"/>
<path d="M2.59961 20.3234L8.64184 20.3133L8.63174 14.2711" stroke="white" stroke-width="2" stroke-linecap="round" stroke-linejoin="round"/>
<path d="M13 14H15.7C16.1774 14 16.6352 14.1873 16.9728 14.5207C17.3104 14.8541 17.5 15.3063 17.5 15.7778V22C17.5 21.6464 17.3578 21.3072 17.1046 21.0572C16.8514 20.8071 16.508 20.6667 16.15 20.6667H13V14Z" stroke="white" stroke-width="1.5" stroke-linecap="round" stroke-linejoin="round"/>
<path d="M22 14H19.3C18.8226 14 18.3648 14.1873 18.0272 14.5207C17.6896 14.8541 17.5 15.3063 17.5 15.7778V22C17.5 21.6464 17.6422 21.3072 17.8954 21.0572C18.1486 20.8071 18.492 20.6667 18.85 20.6667H22V14Z" stroke="white" stroke-width="1.5" stroke-linecap="round" stroke-linejoin="round"/>
</svg>
