<svg width="50" height="50" viewBox="0 0 50 50" fill="none" xmlns="http://www.w3.org/2000/svg">
<path d="M17.7083 41.6667C17.7083 41.6667 15.9641 40.2848 12.7515 37.0829C10.4655 34.8045 8.90644 31.8995 8.2715 28.735C7.63655 25.5706 7.95423 22.2889 9.18436 19.305C10.4145 16.3211 12.5018 13.769 15.1824 11.9714C17.863 10.1738 21.0164 9.21148 24.2439 9.20609C27.4714 9.2007 30.6281 10.1525 33.3146 11.9411C36.0012 13.7297 38.0971 16.2749 39.3372 19.2546C40.5772 22.2344 40.9059 25.515 40.2815 28.6815" stroke="white" stroke-width="3" stroke-miterlimit="10" stroke-linecap="round"/>
<path d="M5.41595 42.3405L18.0039 42.3194L17.9829 29.7314" stroke="white" stroke-width="3" stroke-linecap="round" stroke-linejoin="round"/>
<path d="M27.0833 29.1666H32.7083C33.7029 29.1666 34.6567 29.5568 35.36 30.2514C36.0632 30.946 36.4583 31.888 36.4583 32.8703V45.8333C36.4583 45.0966 36.162 44.39 35.6346 43.8691C35.1071 43.3482 34.3917 43.0555 33.6458 43.0555H27.0833V29.1666Z" stroke="white" stroke-width="3" stroke-linecap="round" stroke-linejoin="round"/>
<path d="M45.8333 29.1666H40.2083C39.2138 29.1666 38.2599 29.5568 37.5567 30.2514C36.8534 30.946 36.4583 31.888 36.4583 32.8703V45.8333C36.4583 45.0966 36.7546 44.39 37.2821 43.8691C37.8095 43.3482 38.5249 43.0555 39.2708 43.0555H45.8333V29.1666Z" stroke="white" stroke-width="3" stroke-linecap="round" stroke-linejoin="round"/>
</svg>
