<svg width="24" height="24" viewBox="0 0 24 24" fill="none" xmlns="http://www.w3.org/2000/svg">
<path d="M22.4499 10.4569V17.2289V17.2499M22.4499 10.4569L22.4999 17.25H22.4499V17.2499M22.4499 10.4569L21.7499 10.4541L22.4499 10.4569ZM22.4499 17.2499C22.4499 17.2432 22.4513 17.2365 22.4539 17.2302C22.4541 17.2298 22.4543 17.2294 22.4545 17.2289C22.4572 17.2232 22.4608 17.2181 22.4654 17.2137C22.4703 17.2091 22.4761 17.2054 22.4824 17.2031C22.4888 17.2007 22.4955 17.1997 22.5023 17.2L22.5009 17.2289L22.4999 17.2499L22.4499 17.2499ZM11.9998 18.05H12C12.2697 18.05 12.5348 17.9795 12.769 17.8457C12.7691 17.8456 12.7691 17.8456 12.7692 17.8456L18.6999 14.4559V17.2212L11.9999 20.9434L5.29989 17.2212V14.4559L11.2306 17.8456C11.2307 17.8456 11.2307 17.8456 11.2307 17.8457C11.4649 17.9795 11.73 18.05 11.9998 18.05ZM18.6999 13.7241C18.6999 13.7241 18.6999 13.7241 18.6999 13.7241V13.7241ZM19.3374 14.0916C19.3364 14.0922 19.3354 14.0927 19.3344 14.0933L19.3374 14.0916ZM18.6999 17.2507C18.6999 17.2504 18.6999 17.2502 18.6999 17.25L18.6999 17.2507ZM18.7253 17.2071C18.7254 17.207 18.7255 17.207 18.7256 17.2069L18.7256 17.2069L18.7253 17.2071ZM5.27417 17.2069C5.27422 17.2069 5.27428 17.207 5.27433 17.207L5.27419 17.2069L5.27417 17.2069ZM11.999 3.05763L22.4499 9.0296V10.0429C22.444 10.0315 22.4379 10.0203 22.4315 10.0091C22.3533 9.87275 22.2405 9.75942 22.1045 9.68057C21.9686 9.60172 21.8142 9.5601 21.657 9.55994C21.5006 9.55979 21.347 9.60067 21.2114 9.67844C21.2107 9.67885 21.21 9.67927 21.2093 9.67969L11.999 14.9424L1.5998 9L11.999 3.05763ZM22.5012 17.2499L22.5023 17.2289L22.5037 17.2001C22.5128 17.2005 22.5226 17.2031 22.531 17.2071C22.5386 17.2108 22.543 17.2148 22.545 17.217C22.5482 17.2205 22.5499 17.2244 22.5499 17.2289V10.4553V10.4541H22.4499L22.5012 17.2499ZM11.9742 3.04351L11.9743 3.04356C11.9743 3.04353 11.9742 3.04349 11.9741 3.04345L11.9742 3.04351Z" stroke="white" stroke-width="1.6"/>
</svg>
