<svg width="50" height="50" viewBox="0 0 50 50" fill="none" xmlns="http://www.w3.org/2000/svg">
<path d="M29.9326 19.1967C29.9326 18.5977 29.7041 17.9988 29.2471 17.5418C28.7901 17.0848 28.1912 16.8563 27.5922 16.8563M27.5922 26.218C31.47 26.218 34.6135 23.0745 34.6135 19.1967C34.6135 15.319 31.47 12.1755 27.5922 12.1755C23.7145 12.1755 20.5709 15.319 20.5709 19.1967C20.5709 19.517 20.5924 19.8322 20.6339 20.1411C20.7022 20.6492 20.7364 20.9032 20.7134 21.0639C20.6894 21.2313 20.6589 21.3215 20.5764 21.4692C20.4972 21.6109 20.3576 21.7505 20.0784 22.0297L14.0981 28.01C13.8957 28.2124 13.7945 28.3136 13.7221 28.4317C13.6579 28.5364 13.6107 28.6506 13.582 28.77C13.5497 28.9046 13.5497 29.0478 13.5497 29.334V31.3669C13.5497 32.0223 13.5497 32.35 13.6772 32.6003C13.7894 32.8205 13.9684 32.9995 14.1886 33.1117C14.4389 33.2393 14.7666 33.2393 15.422 33.2393H18.2305V30.8989H20.5709V28.5584H22.9114L24.7593 26.7105C25.0385 26.4313 25.1781 26.2917 25.3198 26.2125C25.4674 26.13 25.5576 26.0995 25.725 26.0756C25.8857 26.0526 26.1398 26.0867 26.6478 26.155C26.9567 26.1966 27.2719 26.218 27.5922 26.218ZM43 25.0478C43 36.057 30.7305 44.0641 26.2662 46.6131C25.7589 46.9028 25.5052 47.0476 25.1472 47.1228C24.8694 47.1811 24.464 47.1811 24.1862 47.1228C23.8281 47.0476 23.5745 46.9028 23.0671 46.6131C18.6028 44.0641 6.33334 36.057 6.33334 25.0478V14.3213C6.33334 12.5281 6.33334 11.6315 6.633 10.8607C6.89772 10.1799 7.32789 9.57236 7.88631 9.0907C8.51844 8.54547 9.37621 8.23065 11.0918 7.601L23.3792 3.09124C23.8557 2.91639 24.0939 2.82896 24.3389 2.7943C24.5563 2.76355 24.7771 2.76355 24.9944 2.7943C25.2395 2.82896 25.4777 2.91638 25.9541 3.09124L38.2416 7.601C39.9571 8.23065 40.8149 8.54547 41.447 9.0907C42.0055 9.57236 42.4356 10.1799 42.7004 10.8607C43 11.6315 43 12.5281 43 14.3213V25.0478Z" stroke="white" stroke-width="2" stroke-linecap="round" stroke-linejoin="round"/>
</svg>
