<svg width="23" height="23" viewBox="0 0 23 23" fill="none" xmlns="http://www.w3.org/2000/svg">
<path d="M11.5 14.375C13.0878 14.375 14.375 13.0878 14.375 11.5C14.375 9.91218 13.0878 8.625 11.5 8.625C9.91218 8.625 8.625 9.91218 8.625 11.5C8.625 13.0878 9.91218 14.375 11.5 14.375Z" stroke="white" stroke-width="1.5" stroke-linecap="round" stroke-linejoin="round"/>
<path d="M18.5918 14.375C18.4643 14.664 18.4262 14.9847 18.4826 15.2956C18.5389 15.6064 18.6871 15.8933 18.9081 16.1192L18.9656 16.1767C19.1438 16.3547 19.2852 16.5661 19.3816 16.7987C19.4781 17.0314 19.5277 17.2808 19.5277 17.5327C19.5277 17.7846 19.4781 18.034 19.3816 18.2667C19.2852 18.4994 19.1438 18.7107 18.9656 18.8887C18.7876 19.0669 18.5762 19.2083 18.3435 19.3048C18.1108 19.4012 17.8614 19.4509 17.6095 19.4509C17.3577 19.4509 17.1082 19.4012 16.8756 19.3048C16.6429 19.2083 16.4315 19.0669 16.2535 18.8887L16.196 18.8312C15.9701 18.6103 15.6833 18.4621 15.3724 18.4057C15.0615 18.3494 14.7409 18.3874 14.4518 18.515C14.1684 18.6365 13.9266 18.8382 13.7564 19.0953C13.5861 19.3524 13.4947 19.6537 13.4935 19.9621V20.125C13.4935 20.6333 13.2916 21.1208 12.9321 21.4803C12.5727 21.8397 12.0852 22.0417 11.5768 22.0417C11.0685 22.0417 10.581 21.8397 10.2215 21.4803C9.8621 21.1208 9.66016 20.6333 9.66016 20.125V20.0387C9.65274 19.7215 9.55007 19.4139 9.36548 19.1558C9.1809 18.8978 8.92295 18.7012 8.62516 18.5917C8.33611 18.4641 8.01548 18.426 7.7046 18.4824C7.39372 18.5388 7.10685 18.687 6.881 18.9079L6.8235 18.9654C6.64549 19.1436 6.4341 19.285 6.20142 19.3814C5.96874 19.4779 5.71933 19.5275 5.46745 19.5275C5.21557 19.5275 4.96616 19.4779 4.73349 19.3814C4.50081 19.285 4.28942 19.1436 4.11141 18.9654C3.93321 18.7874 3.79184 18.576 3.69538 18.3433C3.59893 18.1107 3.54928 17.8612 3.54928 17.6094C3.54928 17.3575 3.59893 17.1081 3.69538 16.8754C3.79184 16.6427 3.93321 16.4313 4.11141 16.2533L4.16891 16.1958C4.38984 15.97 4.53805 15.6831 4.59442 15.3722C4.65078 15.0613 4.61273 14.7407 4.48516 14.4517C4.36368 14.1682 4.16197 13.9265 3.90486 13.7562C3.64775 13.5859 3.34646 13.4946 3.03808 13.4933H2.87516C2.36683 13.4933 1.87932 13.2914 1.51987 12.9319C1.16043 12.5725 0.958496 12.085 0.958496 11.5767C0.958496 11.0683 1.16043 10.5808 1.51987 10.2214C1.87932 9.86193 2.36683 9.65999 2.87516 9.65999H2.96141C3.27862 9.65257 3.58625 9.5499 3.84432 9.36532C4.1024 9.18073 4.29897 8.92278 4.4085 8.62499C4.53606 8.33595 4.57412 8.01531 4.51775 7.70443C4.46138 7.39355 4.31318 7.10669 4.09225 6.88083L4.03475 6.82333C3.85654 6.64532 3.71517 6.43393 3.61871 6.20125C3.52226 5.96858 3.47261 5.71917 3.47261 5.46729C3.47261 5.21541 3.52226 4.966 3.61871 4.73332C3.71517 4.50064 3.85654 4.28925 4.03475 4.11124C4.21275 3.93304 4.42414 3.79167 4.65682 3.69521C4.8895 3.59876 5.13891 3.54911 5.39079 3.54911C5.64267 3.54911 5.89208 3.59876 6.12476 3.69521C6.35744 3.79167 6.56882 3.93304 6.74683 4.11124L6.80433 4.16874C7.03019 4.38968 7.31705 4.53788 7.62793 4.59425C7.93881 4.65062 8.25945 4.61256 8.5485 4.48499H8.62516C8.90861 4.36351 9.15035 4.1618 9.32062 3.90469C9.49089 3.64758 9.58227 3.34629 9.5835 3.03791V2.87499C9.5835 2.36666 9.78543 1.87915 10.1449 1.51971C10.5043 1.16026 10.9918 0.958328 11.5002 0.958328C12.0085 0.958328 12.496 1.16026 12.8554 1.51971C13.2149 1.87915 13.4168 2.36666 13.4168 2.87499V2.96124C13.4181 3.26962 13.5094 3.57091 13.6797 3.82802C13.85 4.08514 14.0917 4.28685 14.3752 4.40833C14.6642 4.5359 14.9848 4.57395 15.2957 4.51758C15.6066 4.46121 15.8935 4.31301 16.1193 4.09208L16.1768 4.03458C16.3548 3.85637 16.5662 3.715 16.7989 3.61855C17.0316 3.52209 17.281 3.47245 17.5329 3.47245C17.7847 3.47245 18.0342 3.52209 18.2668 3.61855C18.4995 3.715 18.7109 3.85637 18.8889 4.03458C19.0671 4.21258 19.2085 4.42397 19.3049 4.65665C19.4014 4.88933 19.451 5.13874 19.451 5.39062C19.451 5.6425 19.4014 5.89191 19.3049 6.12459C19.2085 6.35727 19.0671 6.56865 18.8889 6.74666L18.8314 6.80416C18.6105 7.03002 18.4623 7.31688 18.4059 7.62776C18.3495 7.93864 18.3876 8.25928 18.5152 8.54833V8.62499C18.6366 8.90844 18.8384 9.15018 19.0955 9.32045C19.3526 9.49072 19.6539 9.5821 19.9622 9.58333H20.1252C20.6335 9.58333 21.121 9.78526 21.4804 10.1447C21.8399 10.5042 22.0418 10.9917 22.0418 11.5C22.0418 12.0083 21.8399 12.4958 21.4804 12.8553C21.121 13.2147 20.6335 13.4167 20.1252 13.4167H20.0389C19.7305 13.4179 19.4292 13.5093 19.1721 13.6795C18.915 13.8498 18.7133 14.0915 18.5918 14.375V14.375Z" stroke="white" stroke-width="1.5" stroke-linecap="round" stroke-linejoin="round"/>
</svg>
