<svg width="23" height="23" viewBox="0 0 23 23" fill="none" xmlns="http://www.w3.org/2000/svg">
<path fill-rule="evenodd" clip-rule="evenodd" d="M9.61454 0.989381C10.1146 0.489284 10.7929 0.208332 11.5002 0.208332C12.2074 0.208332 12.8857 0.489284 13.3858 0.989381C13.8859 1.48948 14.1668 2.16775 14.1668 2.875V2.95947C14.1677 3.12116 14.2157 3.27909 14.305 3.41392C14.3945 3.54908 14.5216 3.65512 14.6706 3.71898L14.678 3.72215C14.83 3.78921 14.9985 3.80925 15.1619 3.77962C15.3242 3.75019 15.474 3.67316 15.5924 3.55836L15.6462 3.50455C15.8939 3.25661 16.188 3.05992 16.5117 2.92572C16.8354 2.79152 17.1824 2.72245 17.5329 2.72245C17.8833 2.72245 18.2303 2.79152 18.554 2.92572C18.8775 3.05981 19.1714 3.2563 19.4189 3.50396C19.6669 3.75162 19.8636 4.04572 19.9978 4.36945C20.132 4.69318 20.201 5.04018 20.201 5.39062C20.201 5.74106 20.132 6.08807 19.9978 6.4118C19.8636 6.7354 19.667 7.02939 19.4192 7.27699L19.3651 7.33113C19.2503 7.44947 19.1733 7.5993 19.1439 7.76157C19.1142 7.925 19.1342 8.09356 19.2013 8.24551C19.2273 8.30447 19.2456 8.36638 19.2557 8.42969C19.3192 8.53559 19.4058 8.62644 19.5096 8.69514C19.6444 8.78442 19.8023 8.83243 19.9639 8.83333H20.1252C20.8324 8.83333 21.5107 9.11428 22.0108 9.61438C22.5109 10.1145 22.7918 10.7928 22.7918 11.5C22.7918 12.2072 22.5109 12.8855 22.0108 13.3856C21.5107 13.8857 20.8324 14.1667 20.1252 14.1667H20.0407C19.879 14.1675 19.7211 14.2156 19.5862 14.3049C19.4511 14.3944 19.345 14.5214 19.2812 14.6704L19.278 14.6778C19.211 14.8298 19.1909 14.9983 19.2205 15.1618C19.25 15.324 19.327 15.4739 19.4418 15.5922L19.4956 15.646C19.7436 15.8937 19.9402 16.1878 20.0744 16.5115C20.2086 16.8353 20.2777 17.1823 20.2777 17.5327C20.2777 17.8831 20.2086 18.2302 20.0744 18.5539C19.9403 18.8775 19.7437 19.1715 19.4959 19.4191C19.2483 19.6669 18.9543 19.8635 18.6307 19.9976C18.307 20.1318 17.96 20.2009 17.6095 20.2009C17.2591 20.2009 16.9121 20.1318 16.5884 19.9976C16.2646 19.8634 15.9705 19.6667 15.7229 19.4188L15.669 19.3649C15.5507 19.2502 15.4009 19.1731 15.2386 19.1437C15.0752 19.1141 14.9066 19.1341 14.7547 19.2011L14.7473 19.2044C14.5983 19.2683 14.4712 19.3743 14.3817 19.5094C14.2924 19.6442 14.2444 19.8022 14.2435 19.9639V20.125C14.2435 20.8322 13.9625 21.5105 13.4624 22.0106C12.9623 22.5107 12.2841 22.7917 11.5768 22.7917C10.8696 22.7917 10.1913 22.5107 9.69121 22.0106C9.19112 21.5105 8.91016 20.8322 8.91016 20.125V20.0489C8.90487 19.8848 8.85106 19.7258 8.75546 19.5921C8.65842 19.4565 8.52282 19.3531 8.36628 19.2956C8.35145 19.2901 8.33679 19.2842 8.32234 19.2778C8.17039 19.2107 8.00183 19.1907 7.83841 19.2204C7.67612 19.2498 7.52628 19.3268 7.40793 19.4416L7.35412 19.4954C7.10646 19.7434 6.81236 19.9401 6.48863 20.0743C6.1649 20.2085 5.81789 20.2775 5.46745 20.2775C5.11701 20.2775 4.77001 20.2085 4.44628 20.0743C4.12255 19.9401 3.82845 19.7434 3.58079 19.4954C3.33313 19.2479 3.13664 18.954 3.00255 18.6305C2.86835 18.3068 2.79928 17.9598 2.79928 17.6094C2.79928 17.2589 2.86835 16.9119 3.00255 16.5882C3.13675 16.2645 3.33344 15.9704 3.58138 15.7227L3.63519 15.6689C3.74999 15.5505 3.82702 15.4007 3.85645 15.2384C3.88608 15.075 3.86608 14.9064 3.79902 14.7545L3.79577 14.7471C3.73191 14.5981 3.62591 14.471 3.49075 14.3815C3.35592 14.2922 3.19799 14.2442 3.0363 14.2433H2.87516C2.16792 14.2433 1.48964 13.9624 0.989545 13.4623C0.489448 12.9622 0.208496 12.2839 0.208496 11.5767C0.208496 10.8694 0.489448 10.1911 0.989545 9.69105C1.48964 9.19095 2.16792 8.91 2.87516 8.91H2.95124C3.11539 8.9047 3.27434 8.8509 3.40801 8.75529C3.54368 8.65826 3.64702 8.52266 3.70459 8.36611C3.71005 8.35128 3.71597 8.33663 3.72235 8.32217C3.78941 8.17022 3.80942 8.00167 3.77978 7.83824C3.75036 7.67596 3.67333 7.52612 3.55853 7.40777L3.50471 7.35396C3.25691 7.10636 3.06003 6.81206 2.92588 6.48846C2.79169 6.16474 2.72261 5.81773 2.72261 5.46729C2.72261 5.11685 2.79169 4.76984 2.92588 4.44612C3.06003 4.12252 3.25662 3.82852 3.50442 3.58092C3.75202 3.33312 4.04601 3.13653 4.36961 3.00239C4.69334 2.86819 5.04035 2.79912 5.39079 2.79912C5.74123 2.79912 6.08823 2.86819 6.41196 3.00239C6.73556 3.13653 7.02956 3.33312 7.27716 3.58092L7.33127 3.63503C7.44962 3.74983 7.59945 3.82686 7.76174 3.85629C7.92516 3.88592 8.09372 3.86591 8.24567 3.79885C8.30464 3.77283 8.36655 3.75458 8.42987 3.74444C8.53576 3.68091 8.6266 3.59433 8.69531 3.49058C8.78458 3.35578 8.8326 3.19788 8.8335 3.03622V2.875C8.8335 2.16775 9.11445 1.48948 9.61454 0.989381ZM9.375 11.5C9.375 10.3264 10.3264 9.375 11.5 9.375C12.6736 9.375 13.625 10.3264 13.625 11.5C13.625 12.6736 12.6736 13.625 11.5 13.625C10.3264 13.625 9.375 12.6736 9.375 11.5ZM11.5 7.875C9.49797 7.875 7.875 9.49797 7.875 11.5C7.875 13.502 9.49797 15.125 11.5 15.125C13.502 15.125 15.125 13.502 15.125 11.5C15.125 9.49797 13.502 7.875 11.5 7.875Z" fill="white"/>
</svg>
