<svg width="12" height="12" viewBox="0 0 12 12" fill="none" xmlns="http://www.w3.org/2000/svg">
<path d="M9.44962 11.9987C9.36542 11.9991 9.28327 11.9709 9.21485 11.9184L5.99938 9.42122L2.7839 11.9184C2.7152 11.9717 2.63244 12.0003 2.54757 12C2.46271 11.9997 2.38015 11.9704 2.31181 11.9165C2.24348 11.8626 2.19292 11.7868 2.16745 11.7001C2.14197 11.6134 2.1429 11.5203 2.1701 11.4341L3.42419 7.45516L0.173961 5.06755C0.103559 5.01589 0.0504236 4.94147 0.0223183 4.85516C-0.00578693 4.76884 -0.00738897 4.67517 0.0177463 4.58781C0.0428816 4.50045 0.0934369 4.424 0.162026 4.36961C0.230614 4.31522 0.313642 4.28576 0.398977 4.28552H4.40876L5.61885 0.296349C5.64492 0.210224 5.69578 0.135157 5.76414 0.0819173C5.83251 0.0286771 5.91486 0 5.99938 0C6.0839 0 6.16625 0.0286771 6.23461 0.0819173C6.30297 0.135157 6.35384 0.210224 6.3799 0.296349L7.58999 4.28686H11.5998C11.6852 4.28681 11.7684 4.31607 11.8372 4.37035C11.906 4.42464 11.9568 4.50109 11.9821 4.58851C12.0074 4.67593 12.0059 4.76974 11.9778 4.85618C11.9497 4.94262 11.8965 5.01716 11.826 5.06889L8.57456 7.45516L9.8279 11.4331C9.84821 11.4975 9.85392 11.5661 9.84456 11.6334C9.83521 11.7006 9.81105 11.7645 9.7741 11.8198C9.73714 11.875 9.68844 11.9201 9.63202 11.9512C9.5756 11.9823 9.51308 11.9986 9.44962 11.9987Z" fill="#FFDCBA"/>
</svg>
