<svg width="39" height="38" viewBox="0 0 39 38" fill="none" xmlns="http://www.w3.org/2000/svg">
<path d="M16.8662 1.82936C18.0032 -0.255468 20.9968 -0.255465 22.1338 1.82936L26.139 9.17346C26.5705 9.96464 27.3348 10.5199 28.2206 10.6858L36.443 12.2256C38.7771 12.6627 39.7022 15.5097 38.0707 17.2353L32.3238 23.314C31.7046 23.9689 31.4127 24.8673 31.5287 25.761L32.6051 34.0568C32.9107 36.4117 30.4888 38.1713 28.3436 37.153L20.7865 33.5657C19.9724 33.1792 19.0276 33.1792 18.2135 33.5657L10.6564 37.153C8.51117 38.1713 6.08932 36.4117 6.3949 34.0568L7.47134 25.761C7.58731 24.8673 7.29537 23.9689 6.67625 23.314L0.929278 17.2353C-0.702155 15.5097 0.222911 12.6627 2.55705 12.2256L10.7794 10.6858C11.6652 10.5199 12.4295 9.96464 12.861 9.17346L16.8662 1.82936Z" fill="#FFB84D"/>
</svg>
