<svg width="54" height="56" viewBox="0 0 54 56" fill="none" xmlns="http://www.w3.org/2000/svg">
<path d="M54 27C54 41.9117 41.9117 54 27 54C12.0883 54 0 41.9117 0 27C0 12.0883 12.0883 0 27 0C41.9117 0 54 12.0883 54 27Z" fill="#008DA0"/>
<path fill-rule="evenodd" clip-rule="evenodd" d="M14.2608 13C13.1562 13 12.2608 13.8659 12.2608 14.934C12.2608 15.9417 13.0578 16.7694 14.0755 16.8599C11.3786 16.872 9.66165 16.8734 8.65902 16.8704C6.35696 16.8637 4.53975 19.03 5.10337 21.3318C5.53356 23.0887 6.43446 26.6811 7.05543 28.4431C7.117 28.6178 7.18899 28.7772 7.26726 28.9238C7.89775 30.1046 8.62477 31.1862 9.62799 32.1198C10.6414 33.0629 11.815 33.7426 13.2008 34.286L13.3425 34.3416L13.4897 34.3811C16.0092 35.0568 18.2689 35.4248 18.7017 35.4928C18.8914 35.5225 19.0756 35.5356 19.2528 35.5356H21.4345C21.5161 35.5356 21.5971 35.5328 21.6773 35.5275C22.5987 36.2599 23.4481 36.8217 24.2609 37.2148C22.9042 41.6233 21.2315 43.5642 16.7326 45.542H14.0434C13.227 45.542 12.5652 46.182 12.5652 46.9715V52.1009C12.5652 52.2319 12.5834 52.3588 12.6175 52.4793H11.6086C10.6721 52.4793 9.91297 53.2134 9.91297 54.119C9.91297 55.0246 10.6721 55.7587 11.6086 55.7587H42.4783C43.4148 55.7587 44.174 55.0246 44.174 54.119C44.174 53.2134 43.4148 52.4793 42.4783 52.4793H41.4694C41.5036 52.3588 41.5218 52.2319 41.5218 52.1009V46.9715C41.5218 46.182 40.8599 45.542 40.0435 45.542H37.7267C32.6165 43.9235 30.6341 42.1161 29.8496 37.2148C30.6929 36.8215 31.5833 36.2611 32.5569 35.5356L32.5654 35.5356H34.7472C34.9243 35.5356 35.1086 35.5225 35.2983 35.4928C35.7311 35.4248 37.9908 35.0568 40.5103 34.3811L40.6574 34.3416L40.7992 34.286C42.185 33.7426 43.3586 33.0629 44.372 32.1198C45.3752 31.1862 46.1022 30.1046 46.7327 28.9238C46.811 28.7772 46.883 28.6178 46.9445 28.4431C47.5655 26.6811 48.4664 23.0887 48.8966 21.3318C49.4602 19.03 47.643 16.8637 45.341 16.8704C44.3642 16.8733 42.7095 16.872 40.1313 16.8608C41.154 16.7752 41.9566 15.9452 41.9566 14.934C41.9566 13.8659 41.0611 13 39.9566 13H14.2608ZM14.8741 19.5448L15.0372 19.5409C15.0569 25.9246 16.1292 29.4324 18.9424 32.8077C18.2735 32.6979 16.3282 32.3571 14.1967 31.7855C11.9069 30.8876 10.7582 29.7187 9.66172 27.6651C9.64264 27.6293 9.62673 27.5937 9.61328 27.5556C9.04594 25.9457 8.17784 22.4994 7.7365 20.697C7.59814 20.132 8.06498 19.5574 8.65101 19.5591C9.75806 19.5624 11.7175 19.5603 14.8741 19.5448ZM39.1565 19.545C39.2542 25.4008 38.2836 28.9564 35.2632 32.7733C36.0704 32.6361 37.8594 32.3068 39.8033 31.7855C42.0931 30.8876 43.2417 29.7187 44.3383 27.6651C44.3573 27.6293 44.3733 27.5937 44.3867 27.5556C44.954 25.9457 45.8221 22.4994 46.2635 20.697C46.4018 20.132 45.935 19.5574 45.349 19.5591C44.2455 19.5624 42.2952 19.5604 39.1565 19.545Z" fill="#FFCC69"/>
<path d="M24.2603 37.2049C24.2603 37.2049 28.2402 35.016 29.6516 33.3313C33.3907 28.8682 33.6081 24.9945 33.6081 21.4999V16.6999H39.0432C39.5688 25.4683 38.476 29.511 33.4779 34.8049C32.134 35.8868 30.9514 36.6875 29.8493 37.2024C30.6474 42.1964 32.6857 43.983 37.9969 45.6264C35.9662 45.6462 33.3186 45.6385 30.4777 45.5417C24.3037 45.3311 24.2603 37.2049 24.2603 37.2049Z" fill="black" fill-opacity="0.09"/>
<path d="M7.26726 28.9238C7.89775 30.1046 8.62477 31.1862 9.62799 32.1198C10.6414 33.0629 11.815 33.7426 13.2008 34.286L13.3425 34.3416L13.4897 34.3811C16.0092 35.0568 18.2689 35.4248 18.7017 35.4928C18.8914 35.5225 19.0756 35.5356 19.2528 35.5356H21.4345C21.5376 35.5356 21.6393 35.5312 21.7402 35.5227C21.4592 35.2994 21.1715 35.0601 20.8762 34.8049C20.1872 34.1345 19.5697 33.4797 19.0186 32.8202C18.4344 32.7258 16.4167 32.3809 14.1967 31.7855C11.9069 30.8876 10.7582 29.7187 9.66172 27.6651C9.64264 27.6293 9.62673 27.5937 9.61328 27.5556C9.04594 25.9457 8.17784 22.4994 7.7365 20.697C7.59814 20.132 8.06498 19.5574 8.65101 19.5591C9.75806 19.5624 11.7175 19.5603 14.8741 19.5448L15.0875 19.5398C15.0858 19.0721 15.0897 18.589 15.099 18.0893C15.1065 17.6869 15.1175 17.2737 15.1319 16.8492L14.8345 16.8563C11.696 16.8717 9.75273 16.8737 8.65902 16.8704C6.35696 16.8637 4.53975 19.03 5.10337 21.3318C5.53356 23.0887 6.43446 26.6811 7.05543 28.4431C7.117 28.6178 7.18899 28.7772 7.26726 28.9238Z" fill="black" fill-opacity="0.12"/>
<path d="M39.5647 55.7587L42.4783 55.7587C43.4148 55.7587 44.1737 55.034 44.1737 54.14C44.1737 53.246 43.4145 52.5213 42.478 52.5213H38.0507C39.6685 52.5236 39.6431 53.2403 39.5882 54.7899C39.5778 55.0828 39.5663 55.4055 39.5647 55.7587Z" fill="black" fill-opacity="0.16"/>
<path d="M27.1732 18.9702L28.8318 21.3876L31.7217 22.1659L29.8568 24.4383L29.9843 27.3367L27.1732 26.3237L24.362 27.3367L24.4895 24.4383L22.6246 22.1659L25.5146 21.3876L27.1732 18.9702Z" fill="white"/>
<path d="M35.3713 52.5214H41.4583C41.4949 52.4061 41.5169 52.2847 41.5221 52.1591V46.9133C41.4907 46.1546 40.8478 45.5481 40.0569 45.5421H33.97C34.7809 45.5483 35.4363 46.1859 35.4363 46.9715V52.1009C35.4363 52.2472 35.4135 52.3884 35.3713 52.5214Z" fill="black" fill-opacity="0.16"/>
<path fill-rule="evenodd" clip-rule="evenodd" d="M16.1303 48.4431C16.1303 48.0251 16.4807 47.6863 16.9129 47.6863H36.826C37.2583 47.6863 37.6087 48.0251 37.6087 48.4431C37.6087 48.861 37.2583 49.1999 36.826 49.1999H16.9129C16.4807 49.1999 16.1303 48.861 16.1303 48.4431Z" fill="white"/>
</svg>
