<svg width="54" height="56" viewBox="0 0 54 56" fill="none" xmlns="http://www.w3.org/2000/svg">
<circle cx="27" cy="27" r="27" fill="#008DA0"/>
<path fill-rule="evenodd" clip-rule="evenodd" d="M14.2609 13C13.1563 13 12.2609 13.8659 12.2609 14.934C12.2609 15.9417 13.0579 16.7694 14.0756 16.8599C11.3787 16.872 9.66174 16.8734 8.65911 16.8704C6.35705 16.8637 4.53984 19.03 5.10346 21.3318C5.53365 23.0887 6.43455 26.6811 7.05552 28.4431C7.11709 28.6178 7.18908 28.7772 7.26735 28.9238C7.89784 30.1046 8.62486 31.1862 9.62808 32.1198C10.6415 33.0629 11.8151 33.7426 13.2008 34.286L13.3426 34.3416L13.4898 34.3811C16.0093 35.0568 18.269 35.4248 18.7018 35.4928C18.8915 35.5225 19.0757 35.5356 19.2529 35.5356H21.4346C21.5162 35.5356 21.5972 35.5328 21.6774 35.5275C22.5988 36.2599 23.4482 36.8216 24.2609 37.2148C22.9043 41.6233 21.2316 43.5642 16.7327 45.542H14.0435C13.2271 45.542 12.5652 46.182 12.5652 46.9715V52.1009C12.5652 52.2319 12.5835 52.3588 12.6176 52.4793H11.6087C10.6722 52.4793 9.91306 53.2134 9.91306 54.119C9.91306 55.0246 10.6722 55.7587 11.6087 55.7587H42.4784C43.4149 55.7587 44.1741 55.0246 44.1741 54.119C44.1741 53.2134 43.4149 52.4793 42.4784 52.4793H41.4695C41.5037 52.3588 41.5219 52.2319 41.5219 52.1009V46.9715C41.5219 46.182 40.86 45.542 40.0436 45.542H37.7268C32.6166 43.9235 30.6342 42.1161 29.8497 37.2148C30.693 36.8215 31.5833 36.2611 32.557 35.5356L32.5655 35.5356H34.7473C34.9244 35.5356 35.1087 35.5225 35.2984 35.4928C35.7312 35.4248 37.9908 35.0568 40.5104 34.3811L40.6575 34.3416L40.7993 34.286C42.1851 33.7426 43.3587 33.0629 44.3721 32.1198C45.3753 31.1862 46.1023 30.1046 46.7328 28.9238C46.8111 28.7772 46.8831 28.6178 46.9446 28.4431C47.5656 26.6811 48.4665 23.0887 48.8967 21.3318C49.4603 19.03 47.6431 16.8637 45.341 16.8704C44.3643 16.8733 42.7096 16.872 40.1314 16.8608C41.1541 16.7752 41.9567 15.9452 41.9567 14.934C41.9567 13.8659 41.0612 13 39.9567 13H14.2609ZM14.8742 19.5448L15.0373 19.5409C15.057 25.9246 16.1293 29.4324 18.9425 32.8077C18.2736 32.6979 16.3283 32.3571 14.1968 31.7855C11.907 30.8876 10.7583 29.7187 9.66181 27.6651C9.64273 27.6293 9.62682 27.5937 9.61337 27.5556C9.04603 25.9457 8.17792 22.4994 7.73659 20.697C7.59823 20.132 8.06507 19.5574 8.6511 19.5591C9.75815 19.5624 11.7176 19.5603 14.8742 19.5448ZM39.1566 19.545C39.2543 25.4008 38.2837 28.9564 35.2633 32.7733C36.0705 32.6361 37.8595 32.3068 39.8034 31.7855C42.0932 30.8876 43.2418 29.7187 44.3384 27.6651C44.3574 27.6293 44.3733 27.5937 44.3868 27.5556C44.9541 25.9457 45.8222 22.4994 46.2636 20.697C46.4019 20.132 45.9351 19.5574 45.3491 19.5591C44.2456 19.5624 42.2952 19.5604 39.1566 19.545Z" fill="#FFCC69"/>
<mask id="mask0_1502_1282" style="mask-type:alpha" maskUnits="userSpaceOnUse" x="15" y="16" width="25" height="30">
<path d="M39.0432 16.6999C39.5688 25.4683 38.476 29.511 33.4779 34.8049C32.134 35.8868 30.9514 36.6875 29.8493 37.2024C30.6815 42.4097 32.862 44.1297 38.6953 45.8363H16.0431C21.0648 43.7472 22.8367 41.8358 24.2605 37.2024C23.2035 36.6903 22.0844 35.8926 20.8257 34.8049C16.3435 30.4432 14.8872 26.7455 15.0485 18.0893C15.0569 17.6398 15.0696 17.1769 15.0866 16.6999H39.0432Z" fill="#D9D9D9"/>
</mask>
<g mask="url(#mask0_1502_1282)">
<path d="M29.6516 33.3313C28.2402 35.0159 24.2603 37.2049 24.2603 37.2049C24.2603 37.2049 24.3037 45.3311 30.4777 45.5416C36.6516 45.7521 41.9125 45.5416 41.9125 45.5416V31.5208L40.3473 14.1315H33.6081V21.4998C33.6081 24.9945 33.3907 28.8682 29.6516 33.3313Z" fill="black" fill-opacity="0.09"/>
</g>
<path fill-rule="evenodd" clip-rule="evenodd" d="M7.26686 28.9238L7.26687 28.9238C7.89736 30.1046 8.62437 31.1862 9.62759 32.1198C10.641 33.0629 11.8146 33.7426 13.2004 34.2861L13.3421 34.3417L13.4893 34.3811C16.0088 35.0568 18.2685 35.4249 18.7013 35.4928C18.891 35.5226 19.0753 35.5356 19.2524 35.5356H21.4341C21.5372 35.5356 21.6393 35.5313 21.7402 35.5227C21.4592 35.2994 21.1715 35.0601 20.8762 34.8049C20.1872 34.1345 19.5697 33.4797 19.0186 32.8202C18.4344 32.7258 16.4163 32.3809 14.1963 31.7856C11.9065 30.8876 10.7578 29.7187 9.66132 27.6651C9.64224 27.6294 9.62633 27.5937 9.61288 27.5556C9.04554 25.9458 8.17744 22.4994 7.7361 20.697C7.59775 20.132 8.06458 19.5574 8.65061 19.5592C9.75767 19.5624 11.7171 19.5604 14.8737 19.5449L15.0875 19.5398C15.0858 19.0721 15.0897 18.589 15.099 18.0893C15.1065 17.6869 15.1175 17.2737 15.1319 16.8492L14.8345 16.8563C11.696 16.8717 9.75233 16.8737 8.65862 16.8705C6.35656 16.8637 4.53935 19.03 5.10297 21.3318C5.53316 23.0887 6.43407 26.6811 7.05504 28.4431C7.1166 28.6178 7.1886 28.7772 7.26686 28.9238Z" fill="black" fill-opacity="0.12"/>
<mask id="mask1_1502_1282" style="mask-type:alpha" maskUnits="userSpaceOnUse" x="9" y="52" width="36" height="4">
<path fill-rule="evenodd" clip-rule="evenodd" d="M9.9126 54.14C9.9126 53.246 10.6718 52.5213 11.6083 52.5213H42.4779C43.4144 52.5213 44.1736 53.246 44.1736 54.14C44.1736 55.034 43.4144 55.7587 42.4779 55.7587H11.6083C10.6718 55.7587 9.9126 55.034 9.9126 54.14Z" fill="#D9D9D9"/>
</mask>
<g mask="url(#mask1_1502_1282)">
<path d="M38.0427 52.5213C39.9993 52.5213 39.5645 53.5589 39.5645 55.8417L40.7819 57.0039H44.8254L45.3036 54.389L43.6514 51.5252C41.8688 51.8157 37.034 52.5213 38.0427 52.5213Z" fill="black" fill-opacity="0.16"/>
</g>
<path d="M27.1733 18.9702L28.8318 21.3876L31.7218 22.1659L29.8569 24.4383L29.9844 27.3367L27.1733 26.3237L24.3621 27.3367L24.4896 24.4383L22.6247 22.1659L25.5147 21.3876L27.1733 18.9702Z" fill="white"/>
<mask id="mask2_1502_1282" style="mask-type:alpha" maskUnits="userSpaceOnUse" x="12" y="45" width="30" height="8">
<path d="M12.5654 46.8184C12.5654 46.1135 13.1564 45.5421 13.8854 45.5421H40.2021C40.9311 45.5421 41.5221 46.1135 41.5221 46.8184V52.5214H12.5654V46.8184Z" fill="#D9D9D9"/>
</mask>
<g mask="url(#mask2_1502_1282)">
<path d="M33.958 53.5304H40.045C40.8614 53.5304 41.5233 52.8904 41.5233 52.1009V46.9715C41.5233 46.182 40.8614 45.542 40.045 45.542H33.958C34.7744 45.542 35.4363 46.182 35.4363 46.9715V52.1009C35.4363 52.8904 34.7744 53.5304 33.958 53.5304Z" fill="black" fill-opacity="0.16"/>
</g>
<path fill-rule="evenodd" clip-rule="evenodd" d="M16.1304 48.4431C16.1304 48.0251 16.4808 47.6863 16.913 47.6863H36.8261C37.2583 47.6863 37.6087 48.0251 37.6087 48.4431C37.6087 48.861 37.2583 49.1999 36.8261 49.1999H16.913C16.4808 49.1999 16.1304 48.861 16.1304 48.4431Z" fill="white"/>
</svg>
